<mxfile host="65bd71144e" pages="7">
    <diagram id="PDROu61l6NSKfbs3pG2e" name="ERD vehicle-rent">
        <mxGraphModel dx="601" dy="272" grid="1" gridSize="10" guides="1" tooltips="1" connect="1" arrows="1" fold="1" page="1" pageScale="1" pageWidth="850" pageHeight="1100" math="0" shadow="0">
            <root>
                <mxCell id="0"/>
                <mxCell id="1" parent="0"/>
                <mxCell id="gDTs8h8bfmBsFh-gLu_6-27" value="vehicles" style="shape=table;startSize=30;container=1;collapsible=1;childLayout=tableLayout;fixedRows=1;rowLines=0;fontStyle=1;align=center;resizeLast=1;" parent="1" vertex="1">
                    <mxGeometry x="80" y="250" width="280" height="370" as="geometry"/>
                </mxCell>
                <mxCell id="gDTs8h8bfmBsFh-gLu_6-28" value="" style="shape=tableRow;horizontal=0;startSize=0;swimlaneHead=0;swimlaneBody=0;fillColor=none;collapsible=0;dropTarget=0;points=[[0,0.5],[1,0.5]];portConstraint=eastwest;top=0;left=0;right=0;bottom=1;" parent="gDTs8h8bfmBsFh-gLu_6-27" vertex="1">
                    <mxGeometry y="30" width="280" height="30" as="geometry"/>
                </mxCell>
                <mxCell id="gDTs8h8bfmBsFh-gLu_6-29" value="PK" style="shape=partialRectangle;connectable=0;fillColor=none;top=0;left=0;bottom=0;right=0;fontStyle=1;overflow=hidden;" parent="gDTs8h8bfmBsFh-gLu_6-28" vertex="1">
                    <mxGeometry width="30" height="30" as="geometry">
                        <mxRectangle width="30" height="30" as="alternateBounds"/>
                    </mxGeometry>
                </mxCell>
                <mxCell id="gDTs8h8bfmBsFh-gLu_6-30" value="id : int(11)" style="shape=partialRectangle;connectable=0;fillColor=none;top=0;left=0;bottom=0;right=0;align=left;spacingLeft=6;fontStyle=5;overflow=hidden;" parent="gDTs8h8bfmBsFh-gLu_6-28" vertex="1">
                    <mxGeometry x="30" width="250" height="30" as="geometry">
                        <mxRectangle width="250" height="30" as="alternateBounds"/>
                    </mxGeometry>
                </mxCell>
                <mxCell id="gDTs8h8bfmBsFh-gLu_6-34" value="" style="shape=tableRow;horizontal=0;startSize=0;swimlaneHead=0;swimlaneBody=0;fillColor=none;collapsible=0;dropTarget=0;points=[[0,0.5],[1,0.5]];portConstraint=eastwest;top=0;left=0;right=0;bottom=0;" parent="gDTs8h8bfmBsFh-gLu_6-27" vertex="1">
                    <mxGeometry y="60" width="280" height="30" as="geometry"/>
                </mxCell>
                <mxCell id="gDTs8h8bfmBsFh-gLu_6-35" value="" style="shape=partialRectangle;connectable=0;fillColor=none;top=0;left=0;bottom=0;right=0;editable=1;overflow=hidden;" parent="gDTs8h8bfmBsFh-gLu_6-34" vertex="1">
                    <mxGeometry width="30" height="30" as="geometry">
                        <mxRectangle width="30" height="30" as="alternateBounds"/>
                    </mxGeometry>
                </mxCell>
                <mxCell id="gDTs8h8bfmBsFh-gLu_6-36" value="category : enum ('Car','Motorcycle', 'Bike')" style="shape=partialRectangle;connectable=0;fillColor=none;top=0;left=0;bottom=0;right=0;align=left;spacingLeft=6;overflow=hidden;" parent="gDTs8h8bfmBsFh-gLu_6-34" vertex="1">
                    <mxGeometry x="30" width="250" height="30" as="geometry">
                        <mxRectangle width="250" height="30" as="alternateBounds"/>
                    </mxGeometry>
                </mxCell>
                <mxCell id="KgY6Qi5ZwSDHWjfHsNPi-4" value="" style="shape=tableRow;horizontal=0;startSize=0;swimlaneHead=0;swimlaneBody=0;fillColor=none;collapsible=0;dropTarget=0;points=[[0,0.5],[1,0.5]];portConstraint=eastwest;top=0;left=0;right=0;bottom=0;" parent="gDTs8h8bfmBsFh-gLu_6-27" vertex="1">
                    <mxGeometry y="90" width="280" height="30" as="geometry"/>
                </mxCell>
                <mxCell id="KgY6Qi5ZwSDHWjfHsNPi-5" value="" style="shape=partialRectangle;connectable=0;fillColor=none;top=0;left=0;bottom=0;right=0;editable=1;overflow=hidden;" parent="KgY6Qi5ZwSDHWjfHsNPi-4" vertex="1">
                    <mxGeometry width="30" height="30" as="geometry">
                        <mxRectangle width="30" height="30" as="alternateBounds"/>
                    </mxGeometry>
                </mxCell>
                <mxCell id="KgY6Qi5ZwSDHWjfHsNPi-6" value="location : varchar(255)    " style="shape=partialRectangle;connectable=0;fillColor=none;top=0;left=0;bottom=0;right=0;align=left;spacingLeft=6;overflow=hidden;" parent="KgY6Qi5ZwSDHWjfHsNPi-4" vertex="1">
                    <mxGeometry x="30" width="250" height="30" as="geometry">
                        <mxRectangle width="250" height="30" as="alternateBounds"/>
                    </mxGeometry>
                </mxCell>
                <mxCell id="gDTs8h8bfmBsFh-gLu_6-31" value="" style="shape=tableRow;horizontal=0;startSize=0;swimlaneHead=0;swimlaneBody=0;fillColor=none;collapsible=0;dropTarget=0;points=[[0,0.5],[1,0.5]];portConstraint=eastwest;top=0;left=0;right=0;bottom=0;" parent="gDTs8h8bfmBsFh-gLu_6-27" vertex="1">
                    <mxGeometry y="120" width="280" height="30" as="geometry"/>
                </mxCell>
                <mxCell id="gDTs8h8bfmBsFh-gLu_6-32" value="" style="shape=partialRectangle;connectable=0;fillColor=none;top=0;left=0;bottom=0;right=0;editable=1;overflow=hidden;" parent="gDTs8h8bfmBsFh-gLu_6-31" vertex="1">
                    <mxGeometry width="30" height="30" as="geometry">
                        <mxRectangle width="30" height="30" as="alternateBounds"/>
                    </mxGeometry>
                </mxCell>
                <mxCell id="gDTs8h8bfmBsFh-gLu_6-33" value="name : varchar(50)  " style="shape=partialRectangle;connectable=0;fillColor=none;top=0;left=0;bottom=0;right=0;align=left;spacingLeft=6;overflow=hidden;" parent="gDTs8h8bfmBsFh-gLu_6-31" vertex="1">
                    <mxGeometry x="30" width="250" height="30" as="geometry">
                        <mxRectangle width="250" height="30" as="alternateBounds"/>
                    </mxGeometry>
                </mxCell>
                <mxCell id="gDTs8h8bfmBsFh-gLu_6-37" value="" style="shape=tableRow;horizontal=0;startSize=0;swimlaneHead=0;swimlaneBody=0;fillColor=none;collapsible=0;dropTarget=0;points=[[0,0.5],[1,0.5]];portConstraint=eastwest;top=0;left=0;right=0;bottom=0;" parent="gDTs8h8bfmBsFh-gLu_6-27" vertex="1">
                    <mxGeometry y="150" width="280" height="30" as="geometry"/>
                </mxCell>
                <mxCell id="gDTs8h8bfmBsFh-gLu_6-38" value="" style="shape=partialRectangle;connectable=0;fillColor=none;top=0;left=0;bottom=0;right=0;editable=1;overflow=hidden;" parent="gDTs8h8bfmBsFh-gLu_6-37" vertex="1">
                    <mxGeometry width="30" height="30" as="geometry">
                        <mxRectangle width="30" height="30" as="alternateBounds"/>
                    </mxGeometry>
                </mxCell>
                <mxCell id="gDTs8h8bfmBsFh-gLu_6-39" value="description : varchar(150)" style="shape=partialRectangle;connectable=0;fillColor=none;top=0;left=0;bottom=0;right=0;align=left;spacingLeft=6;overflow=hidden;" parent="gDTs8h8bfmBsFh-gLu_6-37" vertex="1">
                    <mxGeometry x="30" width="250" height="30" as="geometry">
                        <mxRectangle width="250" height="30" as="alternateBounds"/>
                    </mxGeometry>
                </mxCell>
                <mxCell id="gDTs8h8bfmBsFh-gLu_6-40" value="" style="shape=tableRow;horizontal=0;startSize=0;swimlaneHead=0;swimlaneBody=0;fillColor=none;collapsible=0;dropTarget=0;points=[[0,0.5],[1,0.5]];portConstraint=eastwest;top=0;left=0;right=0;bottom=0;" parent="gDTs8h8bfmBsFh-gLu_6-27" vertex="1">
                    <mxGeometry y="180" width="280" height="30" as="geometry"/>
                </mxCell>
                <mxCell id="gDTs8h8bfmBsFh-gLu_6-41" value="" style="shape=partialRectangle;connectable=0;fillColor=none;top=0;left=0;bottom=0;right=0;editable=1;overflow=hidden;" parent="gDTs8h8bfmBsFh-gLu_6-40" vertex="1">
                    <mxGeometry width="30" height="30" as="geometry">
                        <mxRectangle width="30" height="30" as="alternateBounds"/>
                    </mxGeometry>
                </mxCell>
                <mxCell id="gDTs8h8bfmBsFh-gLu_6-42" value="price : int (11)    " style="shape=partialRectangle;connectable=0;fillColor=none;top=0;left=0;bottom=0;right=0;align=left;spacingLeft=6;overflow=hidden;" parent="gDTs8h8bfmBsFh-gLu_6-40" vertex="1">
                    <mxGeometry x="30" width="250" height="30" as="geometry">
                        <mxRectangle width="250" height="30" as="alternateBounds"/>
                    </mxGeometry>
                </mxCell>
                <mxCell id="gDTs8h8bfmBsFh-gLu_6-43" value="" style="shape=tableRow;horizontal=0;startSize=0;swimlaneHead=0;swimlaneBody=0;fillColor=none;collapsible=0;dropTarget=0;points=[[0,0.5],[1,0.5]];portConstraint=eastwest;top=0;left=0;right=0;bottom=0;" parent="gDTs8h8bfmBsFh-gLu_6-27" vertex="1">
                    <mxGeometry y="210" width="280" height="30" as="geometry"/>
                </mxCell>
                <mxCell id="gDTs8h8bfmBsFh-gLu_6-44" value="    " style="shape=partialRectangle;connectable=0;fillColor=none;top=0;left=0;bottom=0;right=0;editable=1;overflow=hidden;" parent="gDTs8h8bfmBsFh-gLu_6-43" vertex="1">
                    <mxGeometry width="30" height="30" as="geometry">
                        <mxRectangle width="30" height="30" as="alternateBounds"/>
                    </mxGeometry>
                </mxCell>
                <mxCell id="gDTs8h8bfmBsFh-gLu_6-45" value="status : varchar (80)" style="shape=partialRectangle;connectable=0;fillColor=none;top=0;left=0;bottom=0;right=0;align=left;spacingLeft=6;overflow=hidden;" parent="gDTs8h8bfmBsFh-gLu_6-43" vertex="1">
                    <mxGeometry x="30" width="250" height="30" as="geometry">
                        <mxRectangle width="250" height="30" as="alternateBounds"/>
                    </mxGeometry>
                </mxCell>
                <mxCell id="gDTs8h8bfmBsFh-gLu_6-46" value="" style="shape=tableRow;horizontal=0;startSize=0;swimlaneHead=0;swimlaneBody=0;fillColor=none;collapsible=0;dropTarget=0;points=[[0,0.5],[1,0.5]];portConstraint=eastwest;top=0;left=0;right=0;bottom=0;" parent="gDTs8h8bfmBsFh-gLu_6-27" vertex="1">
                    <mxGeometry y="240" width="280" height="30" as="geometry"/>
                </mxCell>
                <mxCell id="gDTs8h8bfmBsFh-gLu_6-47" value="    " style="shape=partialRectangle;connectable=0;fillColor=none;top=0;left=0;bottom=0;right=0;editable=1;overflow=hidden;" parent="gDTs8h8bfmBsFh-gLu_6-46" vertex="1">
                    <mxGeometry width="30" height="30" as="geometry">
                        <mxRectangle width="30" height="30" as="alternateBounds"/>
                    </mxGeometry>
                </mxCell>
                <mxCell id="gDTs8h8bfmBsFh-gLu_6-48" value="stock : int (11)" style="shape=partialRectangle;connectable=0;fillColor=none;top=0;left=0;bottom=0;right=0;align=left;spacingLeft=6;overflow=hidden;" parent="gDTs8h8bfmBsFh-gLu_6-46" vertex="1">
                    <mxGeometry x="30" width="250" height="30" as="geometry">
                        <mxRectangle width="250" height="30" as="alternateBounds"/>
                    </mxGeometry>
                </mxCell>
                <mxCell id="gDTs8h8bfmBsFh-gLu_6-49" value="" style="shape=tableRow;horizontal=0;startSize=0;swimlaneHead=0;swimlaneBody=0;fillColor=none;collapsible=0;dropTarget=0;points=[[0,0.5],[1,0.5]];portConstraint=eastwest;top=0;left=0;right=0;bottom=0;" parent="gDTs8h8bfmBsFh-gLu_6-27" vertex="1">
                    <mxGeometry y="270" width="280" height="30" as="geometry"/>
                </mxCell>
                <mxCell id="gDTs8h8bfmBsFh-gLu_6-50" value="" style="shape=partialRectangle;connectable=0;fillColor=none;top=0;left=0;bottom=0;right=0;editable=1;overflow=hidden;" parent="gDTs8h8bfmBsFh-gLu_6-49" vertex="1">
                    <mxGeometry width="30" height="30" as="geometry">
                        <mxRectangle width="30" height="30" as="alternateBounds"/>
                    </mxGeometry>
                </mxCell>
                <mxCell id="gDTs8h8bfmBsFh-gLu_6-51" value="image : varchar (255)    " style="shape=partialRectangle;connectable=0;fillColor=none;top=0;left=0;bottom=0;right=0;align=left;spacingLeft=6;overflow=hidden;" parent="gDTs8h8bfmBsFh-gLu_6-49" vertex="1">
                    <mxGeometry x="30" width="250" height="30" as="geometry">
                        <mxRectangle width="250" height="30" as="alternateBounds"/>
                    </mxGeometry>
                </mxCell>
                <mxCell id="gDTs8h8bfmBsFh-gLu_6-52" value="" style="shape=tableRow;horizontal=0;startSize=0;swimlaneHead=0;swimlaneBody=0;fillColor=none;collapsible=0;dropTarget=0;points=[[0,0.5],[1,0.5]];portConstraint=eastwest;top=0;left=0;right=0;bottom=0;" parent="gDTs8h8bfmBsFh-gLu_6-27" vertex="1">
                    <mxGeometry y="300" width="280" height="30" as="geometry"/>
                </mxCell>
                <mxCell id="gDTs8h8bfmBsFh-gLu_6-53" value="" style="shape=partialRectangle;connectable=0;fillColor=none;top=0;left=0;bottom=0;right=0;editable=1;overflow=hidden;" parent="gDTs8h8bfmBsFh-gLu_6-52" vertex="1">
                    <mxGeometry width="30" height="30" as="geometry">
                        <mxRectangle width="30" height="30" as="alternateBounds"/>
                    </mxGeometry>
                </mxCell>
                <mxCell id="gDTs8h8bfmBsFh-gLu_6-54" value="createdAt : datetime" style="shape=partialRectangle;connectable=0;fillColor=none;top=0;left=0;bottom=0;right=0;align=left;spacingLeft=6;overflow=hidden;" parent="gDTs8h8bfmBsFh-gLu_6-52" vertex="1">
                    <mxGeometry x="30" width="250" height="30" as="geometry">
                        <mxRectangle width="250" height="30" as="alternateBounds"/>
                    </mxGeometry>
                </mxCell>
                <mxCell id="gDTs8h8bfmBsFh-gLu_6-58" value="" style="shape=tableRow;horizontal=0;startSize=0;swimlaneHead=0;swimlaneBody=0;fillColor=none;collapsible=0;dropTarget=0;points=[[0,0.5],[1,0.5]];portConstraint=eastwest;top=0;left=0;right=0;bottom=0;" parent="gDTs8h8bfmBsFh-gLu_6-27" vertex="1">
                    <mxGeometry y="330" width="280" height="30" as="geometry"/>
                </mxCell>
                <mxCell id="gDTs8h8bfmBsFh-gLu_6-59" value="" style="shape=partialRectangle;connectable=0;fillColor=none;top=0;left=0;bottom=0;right=0;editable=1;overflow=hidden;" parent="gDTs8h8bfmBsFh-gLu_6-58" vertex="1">
                    <mxGeometry width="30" height="30" as="geometry">
                        <mxRectangle width="30" height="30" as="alternateBounds"/>
                    </mxGeometry>
                </mxCell>
                <mxCell id="gDTs8h8bfmBsFh-gLu_6-60" value="updatedAt : datetime" style="shape=partialRectangle;connectable=0;fillColor=none;top=0;left=0;bottom=0;right=0;align=left;spacingLeft=6;overflow=hidden;" parent="gDTs8h8bfmBsFh-gLu_6-58" vertex="1">
                    <mxGeometry x="30" width="250" height="30" as="geometry">
                        <mxRectangle width="250" height="30" as="alternateBounds"/>
                    </mxGeometry>
                </mxCell>
                <mxCell id="gDTs8h8bfmBsFh-gLu_6-61" value="users" style="shape=table;startSize=30;container=1;collapsible=1;childLayout=tableLayout;fixedRows=1;rowLines=0;fontStyle=1;align=center;resizeLast=1;" parent="1" vertex="1">
                    <mxGeometry x="720" y="119" width="230" height="370" as="geometry"/>
                </mxCell>
                <mxCell id="gDTs8h8bfmBsFh-gLu_6-62" value="" style="shape=tableRow;horizontal=0;startSize=0;swimlaneHead=0;swimlaneBody=0;fillColor=none;collapsible=0;dropTarget=0;points=[[0,0.5],[1,0.5]];portConstraint=eastwest;top=0;left=0;right=0;bottom=1;" parent="gDTs8h8bfmBsFh-gLu_6-61" vertex="1">
                    <mxGeometry y="30" width="230" height="30" as="geometry"/>
                </mxCell>
                <mxCell id="gDTs8h8bfmBsFh-gLu_6-63" value="PK" style="shape=partialRectangle;connectable=0;fillColor=none;top=0;left=0;bottom=0;right=0;fontStyle=1;overflow=hidden;" parent="gDTs8h8bfmBsFh-gLu_6-62" vertex="1">
                    <mxGeometry width="30" height="30" as="geometry">
                        <mxRectangle width="30" height="30" as="alternateBounds"/>
                    </mxGeometry>
                </mxCell>
                <mxCell id="gDTs8h8bfmBsFh-gLu_6-64" value="id : int (11)" style="shape=partialRectangle;connectable=0;fillColor=none;top=0;left=0;bottom=0;right=0;align=left;spacingLeft=6;fontStyle=5;overflow=hidden;" parent="gDTs8h8bfmBsFh-gLu_6-62" vertex="1">
                    <mxGeometry x="30" width="200" height="30" as="geometry">
                        <mxRectangle width="200" height="30" as="alternateBounds"/>
                    </mxGeometry>
                </mxCell>
                <mxCell id="gDTs8h8bfmBsFh-gLu_6-65" value="" style="shape=tableRow;horizontal=0;startSize=0;swimlaneHead=0;swimlaneBody=0;fillColor=none;collapsible=0;dropTarget=0;points=[[0,0.5],[1,0.5]];portConstraint=eastwest;top=0;left=0;right=0;bottom=0;" parent="gDTs8h8bfmBsFh-gLu_6-61" vertex="1">
                    <mxGeometry y="60" width="230" height="30" as="geometry"/>
                </mxCell>
                <mxCell id="gDTs8h8bfmBsFh-gLu_6-66" value="" style="shape=partialRectangle;connectable=0;fillColor=none;top=0;left=0;bottom=0;right=0;editable=1;overflow=hidden;" parent="gDTs8h8bfmBsFh-gLu_6-65" vertex="1">
                    <mxGeometry width="30" height="30" as="geometry">
                        <mxRectangle width="30" height="30" as="alternateBounds"/>
                    </mxGeometry>
                </mxCell>
                <mxCell id="gDTs8h8bfmBsFh-gLu_6-67" value="username : varchar (80)  " style="shape=partialRectangle;connectable=0;fillColor=none;top=0;left=0;bottom=0;right=0;align=left;spacingLeft=6;overflow=hidden;" parent="gDTs8h8bfmBsFh-gLu_6-65" vertex="1">
                    <mxGeometry x="30" width="200" height="30" as="geometry">
                        <mxRectangle width="200" height="30" as="alternateBounds"/>
                    </mxGeometry>
                </mxCell>
                <mxCell id="gDTs8h8bfmBsFh-gLu_6-68" value="" style="shape=tableRow;horizontal=0;startSize=0;swimlaneHead=0;swimlaneBody=0;fillColor=none;collapsible=0;dropTarget=0;points=[[0,0.5],[1,0.5]];portConstraint=eastwest;top=0;left=0;right=0;bottom=0;" parent="gDTs8h8bfmBsFh-gLu_6-61" vertex="1">
                    <mxGeometry y="90" width="230" height="30" as="geometry"/>
                </mxCell>
                <mxCell id="gDTs8h8bfmBsFh-gLu_6-69" value="" style="shape=partialRectangle;connectable=0;fillColor=none;top=0;left=0;bottom=0;right=0;editable=1;overflow=hidden;" parent="gDTs8h8bfmBsFh-gLu_6-68" vertex="1">
                    <mxGeometry width="30" height="30" as="geometry">
                        <mxRectangle width="30" height="30" as="alternateBounds"/>
                    </mxGeometry>
                </mxCell>
                <mxCell id="gDTs8h8bfmBsFh-gLu_6-70" value="email : varchar (255)" style="shape=partialRectangle;connectable=0;fillColor=none;top=0;left=0;bottom=0;right=0;align=left;spacingLeft=6;overflow=hidden;" parent="gDTs8h8bfmBsFh-gLu_6-68" vertex="1">
                    <mxGeometry x="30" width="200" height="30" as="geometry">
                        <mxRectangle width="200" height="30" as="alternateBounds"/>
                    </mxGeometry>
                </mxCell>
                <mxCell id="gDTs8h8bfmBsFh-gLu_6-74" value="" style="shape=tableRow;horizontal=0;startSize=0;swimlaneHead=0;swimlaneBody=0;fillColor=none;collapsible=0;dropTarget=0;points=[[0,0.5],[1,0.5]];portConstraint=eastwest;top=0;left=0;right=0;bottom=0;" parent="gDTs8h8bfmBsFh-gLu_6-61" vertex="1">
                    <mxGeometry y="120" width="230" height="30" as="geometry"/>
                </mxCell>
                <mxCell id="gDTs8h8bfmBsFh-gLu_6-75" value="" style="shape=partialRectangle;connectable=0;fillColor=none;top=0;left=0;bottom=0;right=0;editable=1;overflow=hidden;" parent="gDTs8h8bfmBsFh-gLu_6-74" vertex="1">
                    <mxGeometry width="30" height="30" as="geometry">
                        <mxRectangle width="30" height="30" as="alternateBounds"/>
                    </mxGeometry>
                </mxCell>
                <mxCell id="gDTs8h8bfmBsFh-gLu_6-76" value="contact : varchar (255)" style="shape=partialRectangle;connectable=0;fillColor=none;top=0;left=0;bottom=0;right=0;align=left;spacingLeft=6;overflow=hidden;" parent="gDTs8h8bfmBsFh-gLu_6-74" vertex="1">
                    <mxGeometry x="30" width="200" height="30" as="geometry">
                        <mxRectangle width="200" height="30" as="alternateBounds"/>
                    </mxGeometry>
                </mxCell>
                <mxCell id="gDTs8h8bfmBsFh-gLu_6-71" value="" style="shape=tableRow;horizontal=0;startSize=0;swimlaneHead=0;swimlaneBody=0;fillColor=none;collapsible=0;dropTarget=0;points=[[0,0.5],[1,0.5]];portConstraint=eastwest;top=0;left=0;right=0;bottom=0;" parent="gDTs8h8bfmBsFh-gLu_6-61" vertex="1">
                    <mxGeometry y="150" width="230" height="30" as="geometry"/>
                </mxCell>
                <mxCell id="gDTs8h8bfmBsFh-gLu_6-72" value="" style="shape=partialRectangle;connectable=0;fillColor=none;top=0;left=0;bottom=0;right=0;editable=1;overflow=hidden;" parent="gDTs8h8bfmBsFh-gLu_6-71" vertex="1">
                    <mxGeometry width="30" height="30" as="geometry">
                        <mxRectangle width="30" height="30" as="alternateBounds"/>
                    </mxGeometry>
                </mxCell>
                <mxCell id="gDTs8h8bfmBsFh-gLu_6-73" value="password : varchar (80)" style="shape=partialRectangle;connectable=0;fillColor=none;top=0;left=0;bottom=0;right=0;align=left;spacingLeft=6;overflow=hidden;" parent="gDTs8h8bfmBsFh-gLu_6-71" vertex="1">
                    <mxGeometry x="30" width="200" height="30" as="geometry">
                        <mxRectangle width="200" height="30" as="alternateBounds"/>
                    </mxGeometry>
                </mxCell>
                <mxCell id="gDTs8h8bfmBsFh-gLu_6-80" value="" style="shape=tableRow;horizontal=0;startSize=0;swimlaneHead=0;swimlaneBody=0;fillColor=none;collapsible=0;dropTarget=0;points=[[0,0.5],[1,0.5]];portConstraint=eastwest;top=0;left=0;right=0;bottom=0;" parent="gDTs8h8bfmBsFh-gLu_6-61" vertex="1">
                    <mxGeometry y="180" width="230" height="30" as="geometry"/>
                </mxCell>
                <mxCell id="gDTs8h8bfmBsFh-gLu_6-81" value="" style="shape=partialRectangle;connectable=0;fillColor=none;top=0;left=0;bottom=0;right=0;editable=1;overflow=hidden;" parent="gDTs8h8bfmBsFh-gLu_6-80" vertex="1">
                    <mxGeometry width="30" height="30" as="geometry">
                        <mxRectangle width="30" height="30" as="alternateBounds"/>
                    </mxGeometry>
                </mxCell>
                <mxCell id="gDTs8h8bfmBsFh-gLu_6-82" value="gender : enum ('Male', 'Female')" style="shape=partialRectangle;connectable=0;fillColor=none;top=0;left=0;bottom=0;right=0;align=left;spacingLeft=6;overflow=hidden;" parent="gDTs8h8bfmBsFh-gLu_6-80" vertex="1">
                    <mxGeometry x="30" width="200" height="30" as="geometry">
                        <mxRectangle width="200" height="30" as="alternateBounds"/>
                    </mxGeometry>
                </mxCell>
                <mxCell id="gDTs8h8bfmBsFh-gLu_6-83" value="" style="shape=tableRow;horizontal=0;startSize=0;swimlaneHead=0;swimlaneBody=0;fillColor=none;collapsible=0;dropTarget=0;points=[[0,0.5],[1,0.5]];portConstraint=eastwest;top=0;left=0;right=0;bottom=0;" parent="gDTs8h8bfmBsFh-gLu_6-61" vertex="1">
                    <mxGeometry y="210" width="230" height="30" as="geometry"/>
                </mxCell>
                <mxCell id="gDTs8h8bfmBsFh-gLu_6-84" value="" style="shape=partialRectangle;connectable=0;fillColor=none;top=0;left=0;bottom=0;right=0;editable=1;overflow=hidden;" parent="gDTs8h8bfmBsFh-gLu_6-83" vertex="1">
                    <mxGeometry width="30" height="30" as="geometry">
                        <mxRectangle width="30" height="30" as="alternateBounds"/>
                    </mxGeometry>
                </mxCell>
                <mxCell id="gDTs8h8bfmBsFh-gLu_6-85" value="address : varchar (255)" style="shape=partialRectangle;connectable=0;fillColor=none;top=0;left=0;bottom=0;right=0;align=left;spacingLeft=6;overflow=hidden;" parent="gDTs8h8bfmBsFh-gLu_6-83" vertex="1">
                    <mxGeometry x="30" width="200" height="30" as="geometry">
                        <mxRectangle width="200" height="30" as="alternateBounds"/>
                    </mxGeometry>
                </mxCell>
                <mxCell id="gDTs8h8bfmBsFh-gLu_6-86" value="" style="shape=tableRow;horizontal=0;startSize=0;swimlaneHead=0;swimlaneBody=0;fillColor=none;collapsible=0;dropTarget=0;points=[[0,0.5],[1,0.5]];portConstraint=eastwest;top=0;left=0;right=0;bottom=0;" parent="gDTs8h8bfmBsFh-gLu_6-61" vertex="1">
                    <mxGeometry y="240" width="230" height="30" as="geometry"/>
                </mxCell>
                <mxCell id="gDTs8h8bfmBsFh-gLu_6-87" value="" style="shape=partialRectangle;connectable=0;fillColor=none;top=0;left=0;bottom=0;right=0;editable=1;overflow=hidden;" parent="gDTs8h8bfmBsFh-gLu_6-86" vertex="1">
                    <mxGeometry width="30" height="30" as="geometry">
                        <mxRectangle width="30" height="30" as="alternateBounds"/>
                    </mxGeometry>
                </mxCell>
                <mxCell id="gDTs8h8bfmBsFh-gLu_6-88" value="displayName : varchar (255)" style="shape=partialRectangle;connectable=0;fillColor=none;top=0;left=0;bottom=0;right=0;align=left;spacingLeft=6;overflow=hidden;" parent="gDTs8h8bfmBsFh-gLu_6-86" vertex="1">
                    <mxGeometry x="30" width="200" height="30" as="geometry">
                        <mxRectangle width="200" height="30" as="alternateBounds"/>
                    </mxGeometry>
                </mxCell>
                <mxCell id="gDTs8h8bfmBsFh-gLu_6-89" value="" style="shape=tableRow;horizontal=0;startSize=0;swimlaneHead=0;swimlaneBody=0;fillColor=none;collapsible=0;dropTarget=0;points=[[0,0.5],[1,0.5]];portConstraint=eastwest;top=0;left=0;right=0;bottom=0;" parent="gDTs8h8bfmBsFh-gLu_6-61" vertex="1">
                    <mxGeometry y="270" width="230" height="30" as="geometry"/>
                </mxCell>
                <mxCell id="gDTs8h8bfmBsFh-gLu_6-90" value="" style="shape=partialRectangle;connectable=0;fillColor=none;top=0;left=0;bottom=0;right=0;editable=1;overflow=hidden;" parent="gDTs8h8bfmBsFh-gLu_6-89" vertex="1">
                    <mxGeometry width="30" height="30" as="geometry">
                        <mxRectangle width="30" height="30" as="alternateBounds"/>
                    </mxGeometry>
                </mxCell>
                <mxCell id="gDTs8h8bfmBsFh-gLu_6-91" value="birthDate : date" style="shape=partialRectangle;connectable=0;fillColor=none;top=0;left=0;bottom=0;right=0;align=left;spacingLeft=6;overflow=hidden;" parent="gDTs8h8bfmBsFh-gLu_6-89" vertex="1">
                    <mxGeometry x="30" width="200" height="30" as="geometry">
                        <mxRectangle width="200" height="30" as="alternateBounds"/>
                    </mxGeometry>
                </mxCell>
                <mxCell id="gDTs8h8bfmBsFh-gLu_6-92" value="" style="shape=tableRow;horizontal=0;startSize=0;swimlaneHead=0;swimlaneBody=0;fillColor=none;collapsible=0;dropTarget=0;points=[[0,0.5],[1,0.5]];portConstraint=eastwest;top=0;left=0;right=0;bottom=0;" parent="gDTs8h8bfmBsFh-gLu_6-61" vertex="1">
                    <mxGeometry y="300" width="230" height="30" as="geometry"/>
                </mxCell>
                <mxCell id="gDTs8h8bfmBsFh-gLu_6-93" value="" style="shape=partialRectangle;connectable=0;fillColor=none;top=0;left=0;bottom=0;right=0;editable=1;overflow=hidden;" parent="gDTs8h8bfmBsFh-gLu_6-92" vertex="1">
                    <mxGeometry width="30" height="30" as="geometry">
                        <mxRectangle width="30" height="30" as="alternateBounds"/>
                    </mxGeometry>
                </mxCell>
                <mxCell id="gDTs8h8bfmBsFh-gLu_6-94" value="createdAt   : datetime" style="shape=partialRectangle;connectable=0;fillColor=none;top=0;left=0;bottom=0;right=0;align=left;spacingLeft=6;overflow=hidden;" parent="gDTs8h8bfmBsFh-gLu_6-92" vertex="1">
                    <mxGeometry x="30" width="200" height="30" as="geometry">
                        <mxRectangle width="200" height="30" as="alternateBounds"/>
                    </mxGeometry>
                </mxCell>
                <mxCell id="gDTs8h8bfmBsFh-gLu_6-95" value="" style="shape=tableRow;horizontal=0;startSize=0;swimlaneHead=0;swimlaneBody=0;fillColor=none;collapsible=0;dropTarget=0;points=[[0,0.5],[1,0.5]];portConstraint=eastwest;top=0;left=0;right=0;bottom=0;" parent="gDTs8h8bfmBsFh-gLu_6-61" vertex="1">
                    <mxGeometry y="330" width="230" height="30" as="geometry"/>
                </mxCell>
                <mxCell id="gDTs8h8bfmBsFh-gLu_6-96" value="" style="shape=partialRectangle;connectable=0;fillColor=none;top=0;left=0;bottom=0;right=0;editable=1;overflow=hidden;" parent="gDTs8h8bfmBsFh-gLu_6-95" vertex="1">
                    <mxGeometry width="30" height="30" as="geometry">
                        <mxRectangle width="30" height="30" as="alternateBounds"/>
                    </mxGeometry>
                </mxCell>
                <mxCell id="gDTs8h8bfmBsFh-gLu_6-97" value="updatedAt : datetime" style="shape=partialRectangle;connectable=0;fillColor=none;top=0;left=0;bottom=0;right=0;align=left;spacingLeft=6;overflow=hidden;" parent="gDTs8h8bfmBsFh-gLu_6-95" vertex="1">
                    <mxGeometry x="30" width="200" height="30" as="geometry">
                        <mxRectangle width="200" height="30" as="alternateBounds"/>
                    </mxGeometry>
                </mxCell>
                <mxCell id="gDTs8h8bfmBsFh-gLu_6-98" value="histories " style="shape=table;startSize=30;container=1;collapsible=1;childLayout=tableLayout;fixedRows=1;rowLines=0;fontStyle=1;align=center;resizeLast=1;" parent="1" vertex="1">
                    <mxGeometry x="470" y="117" width="180" height="280" as="geometry"/>
                </mxCell>
                <mxCell id="gDTs8h8bfmBsFh-gLu_6-99" value="" style="shape=tableRow;horizontal=0;startSize=0;swimlaneHead=0;swimlaneBody=0;fillColor=none;collapsible=0;dropTarget=0;points=[[0,0.5],[1,0.5]];portConstraint=eastwest;top=0;left=0;right=0;bottom=1;" parent="gDTs8h8bfmBsFh-gLu_6-98" vertex="1">
                    <mxGeometry y="30" width="180" height="30" as="geometry"/>
                </mxCell>
                <mxCell id="gDTs8h8bfmBsFh-gLu_6-100" value="PK" style="shape=partialRectangle;connectable=0;fillColor=none;top=0;left=0;bottom=0;right=0;fontStyle=1;overflow=hidden;" parent="gDTs8h8bfmBsFh-gLu_6-99" vertex="1">
                    <mxGeometry width="30" height="30" as="geometry">
                        <mxRectangle width="30" height="30" as="alternateBounds"/>
                    </mxGeometry>
                </mxCell>
                <mxCell id="gDTs8h8bfmBsFh-gLu_6-101" value="id : int (11)" style="shape=partialRectangle;connectable=0;fillColor=none;top=0;left=0;bottom=0;right=0;align=left;spacingLeft=6;fontStyle=5;overflow=hidden;" parent="gDTs8h8bfmBsFh-gLu_6-99" vertex="1">
                    <mxGeometry x="30" width="150" height="30" as="geometry">
                        <mxRectangle width="150" height="30" as="alternateBounds"/>
                    </mxGeometry>
                </mxCell>
                <mxCell id="gDTs8h8bfmBsFh-gLu_6-102" value="" style="shape=tableRow;horizontal=0;startSize=0;swimlaneHead=0;swimlaneBody=0;fillColor=none;collapsible=0;dropTarget=0;points=[[0,0.5],[1,0.5]];portConstraint=eastwest;top=0;left=0;right=0;bottom=0;" parent="gDTs8h8bfmBsFh-gLu_6-98" vertex="1">
                    <mxGeometry y="60" width="180" height="30" as="geometry"/>
                </mxCell>
                <mxCell id="gDTs8h8bfmBsFh-gLu_6-103" value="" style="shape=partialRectangle;connectable=0;fillColor=none;top=0;left=0;bottom=0;right=0;editable=1;overflow=hidden;" parent="gDTs8h8bfmBsFh-gLu_6-102" vertex="1">
                    <mxGeometry width="30" height="30" as="geometry">
                        <mxRectangle width="30" height="30" as="alternateBounds"/>
                    </mxGeometry>
                </mxCell>
                <mxCell id="gDTs8h8bfmBsFh-gLu_6-104" value="rentStartDate : date" style="shape=partialRectangle;connectable=0;fillColor=none;top=0;left=0;bottom=0;right=0;align=left;spacingLeft=6;overflow=hidden;" parent="gDTs8h8bfmBsFh-gLu_6-102" vertex="1">
                    <mxGeometry x="30" width="150" height="30" as="geometry">
                        <mxRectangle width="150" height="30" as="alternateBounds"/>
                    </mxGeometry>
                </mxCell>
                <mxCell id="gDTs8h8bfmBsFh-gLu_6-105" value="" style="shape=tableRow;horizontal=0;startSize=0;swimlaneHead=0;swimlaneBody=0;fillColor=none;collapsible=0;dropTarget=0;points=[[0,0.5],[1,0.5]];portConstraint=eastwest;top=0;left=0;right=0;bottom=0;" parent="gDTs8h8bfmBsFh-gLu_6-98" vertex="1">
                    <mxGeometry y="90" width="180" height="30" as="geometry"/>
                </mxCell>
                <mxCell id="gDTs8h8bfmBsFh-gLu_6-106" value="" style="shape=partialRectangle;connectable=0;fillColor=none;top=0;left=0;bottom=0;right=0;editable=1;overflow=hidden;" parent="gDTs8h8bfmBsFh-gLu_6-105" vertex="1">
                    <mxGeometry width="30" height="30" as="geometry">
                        <mxRectangle width="30" height="30" as="alternateBounds"/>
                    </mxGeometry>
                </mxCell>
                <mxCell id="gDTs8h8bfmBsFh-gLu_6-107" value="rentEndDate" style="shape=partialRectangle;connectable=0;fillColor=none;top=0;left=0;bottom=0;right=0;align=left;spacingLeft=6;overflow=hidden;" parent="gDTs8h8bfmBsFh-gLu_6-105" vertex="1">
                    <mxGeometry x="30" width="150" height="30" as="geometry">
                        <mxRectangle width="150" height="30" as="alternateBounds"/>
                    </mxGeometry>
                </mxCell>
                <mxCell id="gDTs8h8bfmBsFh-gLu_6-108" value="" style="shape=tableRow;horizontal=0;startSize=0;swimlaneHead=0;swimlaneBody=0;fillColor=none;collapsible=0;dropTarget=0;points=[[0,0.5],[1,0.5]];portConstraint=eastwest;top=0;left=0;right=0;bottom=0;" parent="gDTs8h8bfmBsFh-gLu_6-98" vertex="1">
                    <mxGeometry y="120" width="180" height="30" as="geometry"/>
                </mxCell>
                <mxCell id="gDTs8h8bfmBsFh-gLu_6-109" value="FK" style="shape=partialRectangle;connectable=0;fillColor=none;top=0;left=0;bottom=0;right=0;editable=1;overflow=hidden;" parent="gDTs8h8bfmBsFh-gLu_6-108" vertex="1">
                    <mxGeometry width="30" height="30" as="geometry">
                        <mxRectangle width="30" height="30" as="alternateBounds"/>
                    </mxGeometry>
                </mxCell>
                <mxCell id="gDTs8h8bfmBsFh-gLu_6-110" value="prepayment : int (11)" style="shape=partialRectangle;connectable=0;fillColor=none;top=0;left=0;bottom=0;right=0;align=left;spacingLeft=6;overflow=hidden;" parent="gDTs8h8bfmBsFh-gLu_6-108" vertex="1">
                    <mxGeometry x="30" width="150" height="30" as="geometry">
                        <mxRectangle width="150" height="30" as="alternateBounds"/>
                    </mxGeometry>
                </mxCell>
                <mxCell id="gDTs8h8bfmBsFh-gLu_6-111" value="" style="shape=tableRow;horizontal=0;startSize=0;swimlaneHead=0;swimlaneBody=0;fillColor=none;collapsible=0;dropTarget=0;points=[[0,0.5],[1,0.5]];portConstraint=eastwest;top=0;left=0;right=0;bottom=0;" parent="gDTs8h8bfmBsFh-gLu_6-98" vertex="1">
                    <mxGeometry y="150" width="180" height="30" as="geometry"/>
                </mxCell>
                <mxCell id="gDTs8h8bfmBsFh-gLu_6-112" value="FK" style="shape=partialRectangle;connectable=0;fillColor=none;top=0;left=0;bottom=0;right=0;editable=1;overflow=hidden;" parent="gDTs8h8bfmBsFh-gLu_6-111" vertex="1">
                    <mxGeometry width="30" height="30" as="geometry">
                        <mxRectangle width="30" height="30" as="alternateBounds"/>
                    </mxGeometry>
                </mxCell>
                <mxCell id="gDTs8h8bfmBsFh-gLu_6-113" value="userId : int(11)" style="shape=partialRectangle;connectable=0;fillColor=none;top=0;left=0;bottom=0;right=0;align=left;spacingLeft=6;overflow=hidden;" parent="gDTs8h8bfmBsFh-gLu_6-111" vertex="1">
                    <mxGeometry x="30" width="150" height="30" as="geometry">
                        <mxRectangle width="150" height="30" as="alternateBounds"/>
                    </mxGeometry>
                </mxCell>
                <mxCell id="gDTs8h8bfmBsFh-gLu_6-114" value="" style="shape=tableRow;horizontal=0;startSize=0;swimlaneHead=0;swimlaneBody=0;fillColor=none;collapsible=0;dropTarget=0;points=[[0,0.5],[1,0.5]];portConstraint=eastwest;top=0;left=0;right=0;bottom=0;" parent="gDTs8h8bfmBsFh-gLu_6-98" vertex="1">
                    <mxGeometry y="180" width="180" height="30" as="geometry"/>
                </mxCell>
                <mxCell id="gDTs8h8bfmBsFh-gLu_6-115" value="FK" style="shape=partialRectangle;connectable=0;fillColor=none;top=0;left=0;bottom=0;right=0;editable=1;overflow=hidden;" parent="gDTs8h8bfmBsFh-gLu_6-114" vertex="1">
                    <mxGeometry width="30" height="30" as="geometry">
                        <mxRectangle width="30" height="30" as="alternateBounds"/>
                    </mxGeometry>
                </mxCell>
                <mxCell id="gDTs8h8bfmBsFh-gLu_6-116" value="vehicleId : int (11)" style="shape=partialRectangle;connectable=0;fillColor=none;top=0;left=0;bottom=0;right=0;align=left;spacingLeft=6;overflow=hidden;" parent="gDTs8h8bfmBsFh-gLu_6-114" vertex="1">
                    <mxGeometry x="30" width="150" height="30" as="geometry">
                        <mxRectangle width="150" height="30" as="alternateBounds"/>
                    </mxGeometry>
                </mxCell>
                <mxCell id="gDTs8h8bfmBsFh-gLu_6-117" value="" style="shape=tableRow;horizontal=0;startSize=0;swimlaneHead=0;swimlaneBody=0;fillColor=none;collapsible=0;dropTarget=0;points=[[0,0.5],[1,0.5]];portConstraint=eastwest;top=0;left=0;right=0;bottom=0;" parent="gDTs8h8bfmBsFh-gLu_6-98" vertex="1">
                    <mxGeometry y="210" width="180" height="30" as="geometry"/>
                </mxCell>
                <mxCell id="gDTs8h8bfmBsFh-gLu_6-118" value="" style="shape=partialRectangle;connectable=0;fillColor=none;top=0;left=0;bottom=0;right=0;editable=1;overflow=hidden;" parent="gDTs8h8bfmBsFh-gLu_6-117" vertex="1">
                    <mxGeometry width="30" height="30" as="geometry">
                        <mxRectangle width="30" height="30" as="alternateBounds"/>
                    </mxGeometry>
                </mxCell>
                <mxCell id="gDTs8h8bfmBsFh-gLu_6-119" value="createdAt : datetime" style="shape=partialRectangle;connectable=0;fillColor=none;top=0;left=0;bottom=0;right=0;align=left;spacingLeft=6;overflow=hidden;" parent="gDTs8h8bfmBsFh-gLu_6-117" vertex="1">
                    <mxGeometry x="30" width="150" height="30" as="geometry">
                        <mxRectangle width="150" height="30" as="alternateBounds"/>
                    </mxGeometry>
                </mxCell>
                <mxCell id="gDTs8h8bfmBsFh-gLu_6-120" value="" style="shape=tableRow;horizontal=0;startSize=0;swimlaneHead=0;swimlaneBody=0;fillColor=none;collapsible=0;dropTarget=0;points=[[0,0.5],[1,0.5]];portConstraint=eastwest;top=0;left=0;right=0;bottom=0;" parent="gDTs8h8bfmBsFh-gLu_6-98" vertex="1">
                    <mxGeometry y="240" width="180" height="30" as="geometry"/>
                </mxCell>
                <mxCell id="gDTs8h8bfmBsFh-gLu_6-121" value="" style="shape=partialRectangle;connectable=0;fillColor=none;top=0;left=0;bottom=0;right=0;editable=1;overflow=hidden;" parent="gDTs8h8bfmBsFh-gLu_6-120" vertex="1">
                    <mxGeometry width="30" height="30" as="geometry">
                        <mxRectangle width="30" height="30" as="alternateBounds"/>
                    </mxGeometry>
                </mxCell>
                <mxCell id="gDTs8h8bfmBsFh-gLu_6-122" value="updatedAt : datetime" style="shape=partialRectangle;connectable=0;fillColor=none;top=0;left=0;bottom=0;right=0;align=left;spacingLeft=6;overflow=hidden;" parent="gDTs8h8bfmBsFh-gLu_6-120" vertex="1">
                    <mxGeometry x="30" width="150" height="30" as="geometry">
                        <mxRectangle width="150" height="30" as="alternateBounds"/>
                    </mxGeometry>
                </mxCell>
                <mxCell id="gDTs8h8bfmBsFh-gLu_6-126" style="edgeStyle=orthogonalEdgeStyle;rounded=0;orthogonalLoop=1;jettySize=auto;html=1;exitX=1;exitY=0.5;exitDx=0;exitDy=0;entryX=0;entryY=0.5;entryDx=0;entryDy=0;endArrow=ERmany;endFill=0;" parent="1" source="gDTs8h8bfmBsFh-gLu_6-28" target="gDTs8h8bfmBsFh-gLu_6-114" edge="1">
                    <mxGeometry relative="1" as="geometry"/>
                </mxCell>
                <mxCell id="gDTs8h8bfmBsFh-gLu_6-127" style="edgeStyle=orthogonalEdgeStyle;rounded=0;orthogonalLoop=1;jettySize=auto;html=1;entryX=1;entryY=0.5;entryDx=0;entryDy=0;endArrow=ERmany;endFill=0;" parent="1" source="gDTs8h8bfmBsFh-gLu_6-62" target="gDTs8h8bfmBsFh-gLu_6-111" edge="1">
                    <mxGeometry relative="1" as="geometry"/>
                </mxCell>
                <mxCell id="KgY6Qi5ZwSDHWjfHsNPi-8" value="Table" style="shape=table;startSize=30;container=1;collapsible=1;childLayout=tableLayout;fixedRows=1;rowLines=0;fontStyle=1;align=center;resizeLast=1;" parent="1" vertex="1">
                    <mxGeometry x="80" y="120" width="280" height="90" as="geometry"/>
                </mxCell>
                <mxCell id="KgY6Qi5ZwSDHWjfHsNPi-9" value="" style="shape=tableRow;horizontal=0;startSize=0;swimlaneHead=0;swimlaneBody=0;fillColor=none;collapsible=0;dropTarget=0;points=[[0,0.5],[1,0.5]];portConstraint=eastwest;top=0;left=0;right=0;bottom=1;" parent="KgY6Qi5ZwSDHWjfHsNPi-8" vertex="1">
                    <mxGeometry y="30" width="280" height="30" as="geometry"/>
                </mxCell>
                <mxCell id="KgY6Qi5ZwSDHWjfHsNPi-10" value="PK" style="shape=partialRectangle;connectable=0;fillColor=none;top=0;left=0;bottom=0;right=0;fontStyle=1;overflow=hidden;" parent="KgY6Qi5ZwSDHWjfHsNPi-9" vertex="1">
                    <mxGeometry width="30" height="30" as="geometry">
                        <mxRectangle width="30" height="30" as="alternateBounds"/>
                    </mxGeometry>
                </mxCell>
                <mxCell id="KgY6Qi5ZwSDHWjfHsNPi-11" value="id : int (11)" style="shape=partialRectangle;connectable=0;fillColor=none;top=0;left=0;bottom=0;right=0;align=left;spacingLeft=6;fontStyle=5;overflow=hidden;" parent="KgY6Qi5ZwSDHWjfHsNPi-9" vertex="1">
                    <mxGeometry x="30" width="250" height="30" as="geometry">
                        <mxRectangle width="250" height="30" as="alternateBounds"/>
                    </mxGeometry>
                </mxCell>
                <mxCell id="KgY6Qi5ZwSDHWjfHsNPi-12" value="" style="shape=tableRow;horizontal=0;startSize=0;swimlaneHead=0;swimlaneBody=0;fillColor=none;collapsible=0;dropTarget=0;points=[[0,0.5],[1,0.5]];portConstraint=eastwest;top=0;left=0;right=0;bottom=0;" parent="KgY6Qi5ZwSDHWjfHsNPi-8" vertex="1">
                    <mxGeometry y="60" width="280" height="30" as="geometry"/>
                </mxCell>
                <mxCell id="KgY6Qi5ZwSDHWjfHsNPi-13" value="" style="shape=partialRectangle;connectable=0;fillColor=none;top=0;left=0;bottom=0;right=0;editable=1;overflow=hidden;" parent="KgY6Qi5ZwSDHWjfHsNPi-12" vertex="1">
                    <mxGeometry width="30" height="30" as="geometry">
                        <mxRectangle width="30" height="30" as="alternateBounds"/>
                    </mxGeometry>
                </mxCell>
                <mxCell id="KgY6Qi5ZwSDHWjfHsNPi-14" value="status : varchar (80)" style="shape=partialRectangle;connectable=0;fillColor=none;top=0;left=0;bottom=0;right=0;align=left;spacingLeft=6;overflow=hidden;" parent="KgY6Qi5ZwSDHWjfHsNPi-12" vertex="1">
                    <mxGeometry x="30" width="250" height="30" as="geometry">
                        <mxRectangle width="250" height="30" as="alternateBounds"/>
                    </mxGeometry>
                </mxCell>
                <mxCell id="KgY6Qi5ZwSDHWjfHsNPi-21" style="edgeStyle=orthogonalEdgeStyle;rounded=0;orthogonalLoop=1;jettySize=auto;html=1;exitX=1;exitY=0.5;exitDx=0;exitDy=0;entryX=0;entryY=0.5;entryDx=0;entryDy=0;endArrow=ERmany;endFill=0;" parent="1" source="KgY6Qi5ZwSDHWjfHsNPi-12" target="gDTs8h8bfmBsFh-gLu_6-108" edge="1">
                    <mxGeometry relative="1" as="geometry"/>
                </mxCell>
            </root>
        </mxGraphModel>
    </diagram>
    <diagram id="wLfAhXZJ7SbJs8RcgaPw" name="Vehicles">
        <mxGraphModel dx="1553" dy="567" grid="1" gridSize="10" guides="1" tooltips="1" connect="1" arrows="1" fold="1" page="1" pageScale="1" pageWidth="850" pageHeight="1100" math="0" shadow="0">
            <root>
                <mxCell id="z_57dBjSGjwhRGpCiWja-0"/>
                <mxCell id="z_57dBjSGjwhRGpCiWja-1" parent="z_57dBjSGjwhRGpCiWja-0"/>
                <mxCell id="z_57dBjSGjwhRGpCiWja-3" value="&lt;h1&gt;VEHICLE-RENT PROJECT&lt;/h1&gt;" style="text;html=1;align=center;verticalAlign=middle;resizable=0;points=[];autosize=1;strokeColor=none;fillColor=none;" parent="z_57dBjSGjwhRGpCiWja-1" vertex="1">
                    <mxGeometry x="890" y="20" width="310" height="50" as="geometry"/>
                </mxCell>
                <mxCell id="z_57dBjSGjwhRGpCiWja-5" value="&lt;h2&gt;Flow Chart Vehicles&lt;/h2&gt;" style="text;html=1;align=center;verticalAlign=middle;resizable=0;points=[];autosize=1;strokeColor=none;fillColor=none;" parent="z_57dBjSGjwhRGpCiWja-1" vertex="1">
                    <mxGeometry x="950" y="70" width="190" height="50" as="geometry"/>
                </mxCell>
                <mxCell id="z_57dBjSGjwhRGpCiWja-6" value="LIST VEHICLES" style="text;html=1;align=center;verticalAlign=middle;resizable=0;points=[];autosize=1;strokeColor=none;fillColor=none;" parent="z_57dBjSGjwhRGpCiWja-1" vertex="1">
                    <mxGeometry x="150" y="180" width="100" height="20" as="geometry"/>
                </mxCell>
                <mxCell id="z_57dBjSGjwhRGpCiWja-9" style="edgeStyle=orthogonalEdgeStyle;rounded=0;orthogonalLoop=1;jettySize=auto;html=1;entryX=0.5;entryY=0;entryDx=0;entryDy=0;endArrow=classic;endFill=0;" parent="z_57dBjSGjwhRGpCiWja-1" source="z_57dBjSGjwhRGpCiWja-7" target="z_57dBjSGjwhRGpCiWja-8" edge="1">
                    <mxGeometry relative="1" as="geometry"/>
                </mxCell>
                <mxCell id="z_57dBjSGjwhRGpCiWja-7" value="START" style="ellipse;whiteSpace=wrap;html=1;" parent="z_57dBjSGjwhRGpCiWja-1" vertex="1">
                    <mxGeometry x="140" y="230" width="120" height="80" as="geometry"/>
                </mxCell>
                <mxCell id="z_57dBjSGjwhRGpCiWja-15" style="edgeStyle=orthogonalEdgeStyle;rounded=0;orthogonalLoop=1;jettySize=auto;html=1;endArrow=classic;endFill=0;" parent="z_57dBjSGjwhRGpCiWja-1" source="z_57dBjSGjwhRGpCiWja-8" target="z_57dBjSGjwhRGpCiWja-10" edge="1">
                    <mxGeometry relative="1" as="geometry"/>
                </mxCell>
                <mxCell id="z_57dBjSGjwhRGpCiWja-8" value="INPUT&lt;br&gt;name,&lt;br&gt;id,&lt;br&gt;location" style="shape=parallelogram;perimeter=parallelogramPerimeter;whiteSpace=wrap;html=1;fixedSize=1;" parent="z_57dBjSGjwhRGpCiWja-1" vertex="1">
                    <mxGeometry x="140" y="340" width="120" height="60" as="geometry"/>
                </mxCell>
                <mxCell id="z_57dBjSGjwhRGpCiWja-16" style="edgeStyle=orthogonalEdgeStyle;rounded=0;orthogonalLoop=1;jettySize=auto;html=1;endArrow=classic;endFill=0;" parent="z_57dBjSGjwhRGpCiWja-1" source="z_57dBjSGjwhRGpCiWja-10" target="z_57dBjSGjwhRGpCiWja-12" edge="1">
                    <mxGeometry relative="1" as="geometry"/>
                </mxCell>
                <mxCell id="z_57dBjSGjwhRGpCiWja-10" value="name = name || '',&lt;br&gt;id = id CONERT TO INT || '',&lt;br&gt;location = location || ''" style="rounded=0;whiteSpace=wrap;html=1;" parent="z_57dBjSGjwhRGpCiWja-1" vertex="1">
                    <mxGeometry x="115" y="430" width="170" height="60" as="geometry"/>
                </mxCell>
                <mxCell id="z_57dBjSGjwhRGpCiWja-17" style="edgeStyle=orthogonalEdgeStyle;rounded=0;orthogonalLoop=1;jettySize=auto;html=1;endArrow=classic;endFill=0;" parent="z_57dBjSGjwhRGpCiWja-1" source="z_57dBjSGjwhRGpCiWja-12" target="z_57dBjSGjwhRGpCiWja-13" edge="1">
                    <mxGeometry relative="1" as="geometry"/>
                </mxCell>
                <mxCell id="z_57dBjSGjwhRGpCiWja-12" value="data = { name, id, location }" style="rounded=0;whiteSpace=wrap;html=1;" parent="z_57dBjSGjwhRGpCiWja-1" vertex="1">
                    <mxGeometry x="115" y="520" width="170" height="60" as="geometry"/>
                </mxCell>
                <mxCell id="z_57dBjSGjwhRGpCiWja-18" style="edgeStyle=orthogonalEdgeStyle;rounded=0;orthogonalLoop=1;jettySize=auto;html=1;endArrow=classic;endFill=0;" parent="z_57dBjSGjwhRGpCiWja-1" source="z_57dBjSGjwhRGpCiWja-13" target="z_57dBjSGjwhRGpCiWja-14" edge="1">
                    <mxGeometry relative="1" as="geometry"/>
                </mxCell>
                <mxCell id="z_57dBjSGjwhRGpCiWja-13" value="DB" style="shape=cylinder3;whiteSpace=wrap;html=1;boundedLbl=1;backgroundOutline=1;size=15;" parent="z_57dBjSGjwhRGpCiWja-1" vertex="1">
                    <mxGeometry x="170" y="620" width="60" height="80" as="geometry"/>
                </mxCell>
                <mxCell id="z_57dBjSGjwhRGpCiWja-20" value="FALSE" style="edgeStyle=orthogonalEdgeStyle;rounded=0;orthogonalLoop=1;jettySize=auto;html=1;entryX=0.5;entryY=0;entryDx=0;entryDy=0;endArrow=classic;endFill=0;" parent="z_57dBjSGjwhRGpCiWja-1" source="z_57dBjSGjwhRGpCiWja-14" target="z_57dBjSGjwhRGpCiWja-19" edge="1">
                    <mxGeometry relative="1" as="geometry"/>
                </mxCell>
                <mxCell id="z_57dBjSGjwhRGpCiWja-22" value="TRUE" style="edgeStyle=orthogonalEdgeStyle;rounded=0;orthogonalLoop=1;jettySize=auto;html=1;entryX=0;entryY=0.5;entryDx=0;entryDy=0;endArrow=classic;endFill=0;" parent="z_57dBjSGjwhRGpCiWja-1" source="z_57dBjSGjwhRGpCiWja-14" target="z_57dBjSGjwhRGpCiWja-21" edge="1">
                    <mxGeometry relative="1" as="geometry"/>
                </mxCell>
                <mxCell id="z_57dBjSGjwhRGpCiWja-14" value="results.length &amp;gt; 0" style="rhombus;whiteSpace=wrap;html=1;" parent="z_57dBjSGjwhRGpCiWja-1" vertex="1">
                    <mxGeometry x="140" y="730" width="120" height="120" as="geometry"/>
                </mxCell>
                <mxCell id="z_57dBjSGjwhRGpCiWja-24" style="edgeStyle=orthogonalEdgeStyle;rounded=0;orthogonalLoop=1;jettySize=auto;html=1;entryX=0;entryY=0.5;entryDx=0;entryDy=0;endArrow=classic;endFill=0;" parent="z_57dBjSGjwhRGpCiWja-1" source="z_57dBjSGjwhRGpCiWja-19" target="z_57dBjSGjwhRGpCiWja-23" edge="1">
                    <mxGeometry relative="1" as="geometry"/>
                </mxCell>
                <mxCell id="z_57dBjSGjwhRGpCiWja-19" value="OUTPUT&lt;br&gt;&quot;Data not found&quot;" style="shape=parallelogram;perimeter=parallelogramPerimeter;whiteSpace=wrap;html=1;fixedSize=1;" parent="z_57dBjSGjwhRGpCiWja-1" vertex="1">
                    <mxGeometry x="140" y="880" width="120" height="60" as="geometry"/>
                </mxCell>
                <mxCell id="z_57dBjSGjwhRGpCiWja-25" style="edgeStyle=orthogonalEdgeStyle;rounded=0;orthogonalLoop=1;jettySize=auto;html=1;entryX=0.5;entryY=0;entryDx=0;entryDy=0;endArrow=classic;endFill=0;" parent="z_57dBjSGjwhRGpCiWja-1" source="z_57dBjSGjwhRGpCiWja-21" target="z_57dBjSGjwhRGpCiWja-23" edge="1">
                    <mxGeometry relative="1" as="geometry"/>
                </mxCell>
                <mxCell id="z_57dBjSGjwhRGpCiWja-21" value="OUTPUT&lt;br&gt;result" style="shape=parallelogram;perimeter=parallelogramPerimeter;whiteSpace=wrap;html=1;fixedSize=1;" parent="z_57dBjSGjwhRGpCiWja-1" vertex="1">
                    <mxGeometry x="305" y="760" width="120" height="60" as="geometry"/>
                </mxCell>
                <mxCell id="z_57dBjSGjwhRGpCiWja-23" value="END" style="ellipse;whiteSpace=wrap;html=1;" parent="z_57dBjSGjwhRGpCiWja-1" vertex="1">
                    <mxGeometry x="305" y="870" width="120" height="80" as="geometry"/>
                </mxCell>
                <mxCell id="z_57dBjSGjwhRGpCiWja-32" style="edgeStyle=orthogonalEdgeStyle;rounded=0;orthogonalLoop=1;jettySize=auto;html=1;entryX=0.5;entryY=0;entryDx=0;entryDy=0;endArrow=classic;endFill=0;" parent="z_57dBjSGjwhRGpCiWja-1" source="z_57dBjSGjwhRGpCiWja-26" target="z_57dBjSGjwhRGpCiWja-28" edge="1">
                    <mxGeometry relative="1" as="geometry"/>
                </mxCell>
                <mxCell id="z_57dBjSGjwhRGpCiWja-26" value="START" style="ellipse;whiteSpace=wrap;html=1;" parent="z_57dBjSGjwhRGpCiWja-1" vertex="1">
                    <mxGeometry x="620" y="220" width="120" height="80" as="geometry"/>
                </mxCell>
                <mxCell id="z_57dBjSGjwhRGpCiWja-27" value="DELETE VEHICLE" style="text;html=1;align=center;verticalAlign=middle;resizable=0;points=[];autosize=1;strokeColor=none;fillColor=none;" parent="z_57dBjSGjwhRGpCiWja-1" vertex="1">
                    <mxGeometry x="610" y="180" width="120" height="20" as="geometry"/>
                </mxCell>
                <mxCell id="z_57dBjSGjwhRGpCiWja-33" style="edgeStyle=orthogonalEdgeStyle;rounded=0;orthogonalLoop=1;jettySize=auto;html=1;endArrow=classic;endFill=0;" parent="z_57dBjSGjwhRGpCiWja-1" source="z_57dBjSGjwhRGpCiWja-28" target="z_57dBjSGjwhRGpCiWja-29" edge="1">
                    <mxGeometry relative="1" as="geometry"/>
                </mxCell>
                <mxCell id="z_57dBjSGjwhRGpCiWja-28" value="INPUT&lt;br&gt;id" style="shape=parallelogram;perimeter=parallelogramPerimeter;whiteSpace=wrap;html=1;fixedSize=1;" parent="z_57dBjSGjwhRGpCiWja-1" vertex="1">
                    <mxGeometry x="620" y="340" width="120" height="60" as="geometry"/>
                </mxCell>
                <mxCell id="z_57dBjSGjwhRGpCiWja-34" style="edgeStyle=orthogonalEdgeStyle;rounded=0;orthogonalLoop=1;jettySize=auto;html=1;endArrow=classic;endFill=0;" parent="z_57dBjSGjwhRGpCiWja-1" source="z_57dBjSGjwhRGpCiWja-29" target="z_57dBjSGjwhRGpCiWja-30" edge="1">
                    <mxGeometry relative="1" as="geometry"/>
                </mxCell>
                <mxCell id="z_57dBjSGjwhRGpCiWja-29" value="id = id CONVERT TO INT || 0" style="rounded=0;whiteSpace=wrap;html=1;" parent="z_57dBjSGjwhRGpCiWja-1" vertex="1">
                    <mxGeometry x="585" y="440" width="190" height="60" as="geometry"/>
                </mxCell>
                <mxCell id="z_57dBjSGjwhRGpCiWja-47" style="edgeStyle=orthogonalEdgeStyle;rounded=0;orthogonalLoop=1;jettySize=auto;html=1;entryX=0.5;entryY=0;entryDx=0;entryDy=0;endArrow=classic;endFill=0;" parent="z_57dBjSGjwhRGpCiWja-1" source="z_57dBjSGjwhRGpCiWja-30" target="z_57dBjSGjwhRGpCiWja-31" edge="1">
                    <mxGeometry relative="1" as="geometry"/>
                </mxCell>
                <mxCell id="z_57dBjSGjwhRGpCiWja-30" value="DB find id" style="shape=cylinder3;whiteSpace=wrap;html=1;boundedLbl=1;backgroundOutline=1;size=15;" parent="z_57dBjSGjwhRGpCiWja-1" vertex="1">
                    <mxGeometry x="650" y="530" width="60" height="80" as="geometry"/>
                </mxCell>
                <mxCell id="z_57dBjSGjwhRGpCiWja-35" value="TRUE" style="edgeStyle=orthogonalEdgeStyle;rounded=0;orthogonalLoop=1;jettySize=auto;html=1;endArrow=classic;endFill=0;entryX=0;entryY=0.5;entryDx=0;entryDy=0;entryPerimeter=0;" parent="z_57dBjSGjwhRGpCiWja-1" source="z_57dBjSGjwhRGpCiWja-31" target="z_57dBjSGjwhRGpCiWja-36" edge="1">
                    <mxGeometry relative="1" as="geometry">
                        <mxPoint x="800" y="700" as="targetPoint"/>
                    </mxGeometry>
                </mxCell>
                <mxCell id="z_57dBjSGjwhRGpCiWja-38" value="FALSE" style="edgeStyle=orthogonalEdgeStyle;rounded=0;orthogonalLoop=1;jettySize=auto;html=1;entryX=0.5;entryY=0;entryDx=0;entryDy=0;endArrow=classic;endFill=0;" parent="z_57dBjSGjwhRGpCiWja-1" source="z_57dBjSGjwhRGpCiWja-31" target="z_57dBjSGjwhRGpCiWja-37" edge="1">
                    <mxGeometry relative="1" as="geometry"/>
                </mxCell>
                <mxCell id="z_57dBjSGjwhRGpCiWja-31" value="result.length &amp;gt; 0" style="rhombus;whiteSpace=wrap;html=1;" parent="z_57dBjSGjwhRGpCiWja-1" vertex="1">
                    <mxGeometry x="610" y="640" width="140" height="120" as="geometry"/>
                </mxCell>
                <mxCell id="z_57dBjSGjwhRGpCiWja-41" style="edgeStyle=orthogonalEdgeStyle;rounded=0;orthogonalLoop=1;jettySize=auto;html=1;endArrow=classic;endFill=0;" parent="z_57dBjSGjwhRGpCiWja-1" source="z_57dBjSGjwhRGpCiWja-36" target="z_57dBjSGjwhRGpCiWja-39" edge="1">
                    <mxGeometry relative="1" as="geometry"/>
                </mxCell>
                <mxCell id="z_57dBjSGjwhRGpCiWja-36" value="DB delete id" style="shape=cylinder3;whiteSpace=wrap;html=1;boundedLbl=1;backgroundOutline=1;size=15;" parent="z_57dBjSGjwhRGpCiWja-1" vertex="1">
                    <mxGeometry x="840" y="660" width="60" height="80" as="geometry"/>
                </mxCell>
                <mxCell id="z_57dBjSGjwhRGpCiWja-44" style="edgeStyle=orthogonalEdgeStyle;rounded=0;orthogonalLoop=1;jettySize=auto;html=1;entryX=0.5;entryY=0;entryDx=0;entryDy=0;endArrow=classic;endFill=0;" parent="z_57dBjSGjwhRGpCiWja-1" source="z_57dBjSGjwhRGpCiWja-37" target="z_57dBjSGjwhRGpCiWja-43" edge="1">
                    <mxGeometry relative="1" as="geometry"/>
                </mxCell>
                <mxCell id="z_57dBjSGjwhRGpCiWja-37" value="OUTPUT&lt;br&gt;&quot;Data Not Found&quot;" style="shape=parallelogram;perimeter=parallelogramPerimeter;whiteSpace=wrap;html=1;fixedSize=1;" parent="z_57dBjSGjwhRGpCiWja-1" vertex="1">
                    <mxGeometry x="620" y="800" width="120" height="60" as="geometry"/>
                </mxCell>
                <mxCell id="z_57dBjSGjwhRGpCiWja-42" style="edgeStyle=orthogonalEdgeStyle;rounded=0;orthogonalLoop=1;jettySize=auto;html=1;endArrow=classic;endFill=0;" parent="z_57dBjSGjwhRGpCiWja-1" source="z_57dBjSGjwhRGpCiWja-39" target="z_57dBjSGjwhRGpCiWja-40" edge="1">
                    <mxGeometry relative="1" as="geometry"/>
                </mxCell>
                <mxCell id="z_57dBjSGjwhRGpCiWja-39" value="OUTPUT&lt;br&gt;&quot;Data from id&quot; + id + &quot;Successfully deleted&quot;" style="shape=parallelogram;perimeter=parallelogramPerimeter;whiteSpace=wrap;html=1;fixedSize=1;" parent="z_57dBjSGjwhRGpCiWja-1" vertex="1">
                    <mxGeometry x="785" y="775" width="170" height="85" as="geometry"/>
                </mxCell>
                <mxCell id="z_57dBjSGjwhRGpCiWja-45" style="edgeStyle=orthogonalEdgeStyle;rounded=0;orthogonalLoop=1;jettySize=auto;html=1;endArrow=classic;endFill=0;entryX=1;entryY=0.5;entryDx=0;entryDy=0;" parent="z_57dBjSGjwhRGpCiWja-1" source="z_57dBjSGjwhRGpCiWja-40" target="z_57dBjSGjwhRGpCiWja-43" edge="1">
                    <mxGeometry relative="1" as="geometry">
                        <mxPoint x="750" y="920" as="targetPoint"/>
                    </mxGeometry>
                </mxCell>
                <mxCell id="z_57dBjSGjwhRGpCiWja-40" value="OUTPUT&lt;br&gt;result[0]" style="shape=parallelogram;perimeter=parallelogramPerimeter;whiteSpace=wrap;html=1;fixedSize=1;" parent="z_57dBjSGjwhRGpCiWja-1" vertex="1">
                    <mxGeometry x="810" y="890" width="120" height="60" as="geometry"/>
                </mxCell>
                <mxCell id="z_57dBjSGjwhRGpCiWja-43" value="END" style="ellipse;whiteSpace=wrap;html=1;" parent="z_57dBjSGjwhRGpCiWja-1" vertex="1">
                    <mxGeometry x="620" y="880" width="120" height="80" as="geometry"/>
                </mxCell>
                <mxCell id="z_57dBjSGjwhRGpCiWja-48" value="INSERT VEHICLE" style="text;html=1;align=center;verticalAlign=middle;resizable=0;points=[];autosize=1;strokeColor=none;fillColor=none;" parent="z_57dBjSGjwhRGpCiWja-1" vertex="1">
                    <mxGeometry x="1235" y="190" width="110" height="20" as="geometry"/>
                </mxCell>
                <mxCell id="z_57dBjSGjwhRGpCiWja-54" style="edgeStyle=orthogonalEdgeStyle;rounded=0;orthogonalLoop=1;jettySize=auto;html=1;endArrow=classic;endFill=0;" parent="z_57dBjSGjwhRGpCiWja-1" source="z_57dBjSGjwhRGpCiWja-49" target="z_57dBjSGjwhRGpCiWja-50" edge="1">
                    <mxGeometry relative="1" as="geometry"/>
                </mxCell>
                <mxCell id="z_57dBjSGjwhRGpCiWja-49" value="START" style="ellipse;whiteSpace=wrap;html=1;" parent="z_57dBjSGjwhRGpCiWja-1" vertex="1">
                    <mxGeometry x="1230" y="230" width="120" height="80" as="geometry"/>
                </mxCell>
                <mxCell id="z_57dBjSGjwhRGpCiWja-55" style="edgeStyle=orthogonalEdgeStyle;rounded=0;orthogonalLoop=1;jettySize=auto;html=1;entryX=0.5;entryY=0;entryDx=0;entryDy=0;endArrow=classic;endFill=0;" parent="z_57dBjSGjwhRGpCiWja-1" source="z_57dBjSGjwhRGpCiWja-50" target="z_57dBjSGjwhRGpCiWja-52" edge="1">
                    <mxGeometry relative="1" as="geometry"/>
                </mxCell>
                <mxCell id="z_57dBjSGjwhRGpCiWja-50" value="INPUT&lt;br&gt;name,&lt;br&gt;location,&lt;br&gt;description," style="shape=parallelogram;perimeter=parallelogramPerimeter;whiteSpace=wrap;html=1;fixedSize=1;" parent="z_57dBjSGjwhRGpCiWja-1" vertex="1">
                    <mxGeometry x="1230" y="340" width="120" height="60" as="geometry"/>
                </mxCell>
                <mxCell id="z_57dBjSGjwhRGpCiWja-56" style="edgeStyle=orthogonalEdgeStyle;rounded=0;orthogonalLoop=1;jettySize=auto;html=1;entryX=0.5;entryY=0;entryDx=0;entryDy=0;endArrow=classic;endFill=0;" parent="z_57dBjSGjwhRGpCiWja-1" source="z_57dBjSGjwhRGpCiWja-52" target="z_57dBjSGjwhRGpCiWja-53" edge="1">
                    <mxGeometry relative="1" as="geometry"/>
                </mxCell>
                <mxCell id="z_57dBjSGjwhRGpCiWja-52" value="INPUT&lt;br&gt;price,&lt;br&gt;status,&lt;br&gt;stock" style="shape=parallelogram;perimeter=parallelogramPerimeter;whiteSpace=wrap;html=1;fixedSize=1;" parent="z_57dBjSGjwhRGpCiWja-1" vertex="1">
                    <mxGeometry x="1230" y="440" width="120" height="60" as="geometry"/>
                </mxCell>
                <mxCell id="z_57dBjSGjwhRGpCiWja-59" style="edgeStyle=orthogonalEdgeStyle;rounded=0;orthogonalLoop=1;jettySize=auto;html=1;entryX=0.5;entryY=0;entryDx=0;entryDy=0;endArrow=classic;endFill=0;" parent="z_57dBjSGjwhRGpCiWja-1" source="z_57dBjSGjwhRGpCiWja-53" target="z_57dBjSGjwhRGpCiWja-58" edge="1">
                    <mxGeometry relative="1" as="geometry"/>
                </mxCell>
                <mxCell id="z_57dBjSGjwhRGpCiWja-53" value="INPUT&lt;br&gt;image,&lt;br&gt;category" style="shape=parallelogram;perimeter=parallelogramPerimeter;whiteSpace=wrap;html=1;fixedSize=1;" parent="z_57dBjSGjwhRGpCiWja-1" vertex="1">
                    <mxGeometry x="1230" y="540" width="120" height="60" as="geometry"/>
                </mxCell>
                <mxCell id="z_57dBjSGjwhRGpCiWja-61" style="edgeStyle=orthogonalEdgeStyle;rounded=0;orthogonalLoop=1;jettySize=auto;html=1;entryX=0.5;entryY=0;entryDx=0;entryDy=0;entryPerimeter=0;endArrow=classic;endFill=0;" parent="z_57dBjSGjwhRGpCiWja-1" source="z_57dBjSGjwhRGpCiWja-58" target="z_57dBjSGjwhRGpCiWja-60" edge="1">
                    <mxGeometry relative="1" as="geometry"/>
                </mxCell>
                <mxCell id="z_57dBjSGjwhRGpCiWja-58" value="data = { name, location, description, price, status, stock, image, category }" style="rounded=0;whiteSpace=wrap;html=1;" parent="z_57dBjSGjwhRGpCiWja-1" vertex="1">
                    <mxGeometry x="1230" y="640" width="120" height="60" as="geometry"/>
                </mxCell>
                <mxCell id="z_57dBjSGjwhRGpCiWja-63" style="edgeStyle=orthogonalEdgeStyle;rounded=0;orthogonalLoop=1;jettySize=auto;html=1;endArrow=classic;endFill=0;" parent="z_57dBjSGjwhRGpCiWja-1" source="z_57dBjSGjwhRGpCiWja-60" target="z_57dBjSGjwhRGpCiWja-62" edge="1">
                    <mxGeometry relative="1" as="geometry"/>
                </mxCell>
                <mxCell id="z_57dBjSGjwhRGpCiWja-60" value="DB searchVehicles" style="shape=cylinder3;whiteSpace=wrap;html=1;boundedLbl=1;backgroundOutline=1;size=15;" parent="z_57dBjSGjwhRGpCiWja-1" vertex="1">
                    <mxGeometry x="1245" y="740" width="90" height="120" as="geometry"/>
                </mxCell>
                <mxCell id="z_57dBjSGjwhRGpCiWja-65" value="FALSE" style="edgeStyle=orthogonalEdgeStyle;rounded=0;orthogonalLoop=1;jettySize=auto;html=1;endArrow=classic;endFill=0;" parent="z_57dBjSGjwhRGpCiWja-1" source="z_57dBjSGjwhRGpCiWja-62" target="z_57dBjSGjwhRGpCiWja-64" edge="1">
                    <mxGeometry relative="1" as="geometry"/>
                </mxCell>
                <mxCell id="z_57dBjSGjwhRGpCiWja-67" value="TRUE" style="edgeStyle=orthogonalEdgeStyle;rounded=0;orthogonalLoop=1;jettySize=auto;html=1;entryX=0;entryY=0.5;entryDx=0;entryDy=0;entryPerimeter=0;endArrow=classic;endFill=0;" parent="z_57dBjSGjwhRGpCiWja-1" source="z_57dBjSGjwhRGpCiWja-62" target="z_57dBjSGjwhRGpCiWja-66" edge="1">
                    <mxGeometry relative="1" as="geometry"/>
                </mxCell>
                <mxCell id="z_57dBjSGjwhRGpCiWja-62" value="result.length &amp;lt;= 0" style="rhombus;whiteSpace=wrap;html=1;" parent="z_57dBjSGjwhRGpCiWja-1" vertex="1">
                    <mxGeometry x="1235" y="890" width="110" height="110" as="geometry"/>
                </mxCell>
                <mxCell id="z_57dBjSGjwhRGpCiWja-74" style="edgeStyle=orthogonalEdgeStyle;rounded=0;orthogonalLoop=1;jettySize=auto;html=1;entryX=0.5;entryY=0;entryDx=0;entryDy=0;endArrow=classic;endFill=0;" parent="z_57dBjSGjwhRGpCiWja-1" source="z_57dBjSGjwhRGpCiWja-64" target="z_57dBjSGjwhRGpCiWja-72" edge="1">
                    <mxGeometry relative="1" as="geometry"/>
                </mxCell>
                <mxCell id="z_57dBjSGjwhRGpCiWja-64" value="OUTPUT&lt;br&gt;&quot;Insert failed" style="shape=parallelogram;perimeter=parallelogramPerimeter;whiteSpace=wrap;html=1;fixedSize=1;" parent="z_57dBjSGjwhRGpCiWja-1" vertex="1">
                    <mxGeometry x="1230" y="1050" width="120" height="60" as="geometry"/>
                </mxCell>
                <mxCell id="z_57dBjSGjwhRGpCiWja-69" style="edgeStyle=orthogonalEdgeStyle;rounded=0;orthogonalLoop=1;jettySize=auto;html=1;entryX=0.5;entryY=0;entryDx=0;entryDy=0;endArrow=classic;endFill=0;" parent="z_57dBjSGjwhRGpCiWja-1" source="z_57dBjSGjwhRGpCiWja-66" target="z_57dBjSGjwhRGpCiWja-68" edge="1">
                    <mxGeometry relative="1" as="geometry"/>
                </mxCell>
                <mxCell id="z_57dBjSGjwhRGpCiWja-66" value="DB postVehicle" style="shape=cylinder3;whiteSpace=wrap;html=1;boundedLbl=1;backgroundOutline=1;size=15;" parent="z_57dBjSGjwhRGpCiWja-1" vertex="1">
                    <mxGeometry x="1420" y="892.5" width="78.75" height="105" as="geometry"/>
                </mxCell>
                <mxCell id="z_57dBjSGjwhRGpCiWja-71" style="edgeStyle=orthogonalEdgeStyle;rounded=0;orthogonalLoop=1;jettySize=auto;html=1;endArrow=classic;endFill=0;" parent="z_57dBjSGjwhRGpCiWja-1" source="z_57dBjSGjwhRGpCiWja-68" target="z_57dBjSGjwhRGpCiWja-70" edge="1">
                    <mxGeometry relative="1" as="geometry"/>
                </mxCell>
                <mxCell id="z_57dBjSGjwhRGpCiWja-68" value="OUTPUT&lt;br&gt;&quot;Insert successfully&quot;" style="shape=parallelogram;perimeter=parallelogramPerimeter;whiteSpace=wrap;html=1;fixedSize=1;" parent="z_57dBjSGjwhRGpCiWja-1" vertex="1">
                    <mxGeometry x="1384.06" y="1050" width="150.63" height="60" as="geometry"/>
                </mxCell>
                <mxCell id="z_57dBjSGjwhRGpCiWja-73" style="edgeStyle=orthogonalEdgeStyle;rounded=0;orthogonalLoop=1;jettySize=auto;html=1;entryX=1;entryY=0.5;entryDx=0;entryDy=0;endArrow=classic;endFill=0;" parent="z_57dBjSGjwhRGpCiWja-1" source="z_57dBjSGjwhRGpCiWja-70" target="z_57dBjSGjwhRGpCiWja-72" edge="1">
                    <mxGeometry relative="1" as="geometry"/>
                </mxCell>
                <mxCell id="z_57dBjSGjwhRGpCiWja-70" value="OUTPUT&lt;br&gt;Data" style="shape=parallelogram;perimeter=parallelogramPerimeter;whiteSpace=wrap;html=1;fixedSize=1;" parent="z_57dBjSGjwhRGpCiWja-1" vertex="1">
                    <mxGeometry x="1399.3700000000001" y="1170" width="120" height="60" as="geometry"/>
                </mxCell>
                <mxCell id="z_57dBjSGjwhRGpCiWja-72" value="END" style="ellipse;whiteSpace=wrap;html=1;" parent="z_57dBjSGjwhRGpCiWja-1" vertex="1">
                    <mxGeometry x="1230" y="1160" width="120" height="80" as="geometry"/>
                </mxCell>
                <mxCell id="z_57dBjSGjwhRGpCiWja-75" value="PATCH VEHICLE" style="text;html=1;align=center;verticalAlign=middle;resizable=0;points=[];autosize=1;strokeColor=none;fillColor=none;" parent="z_57dBjSGjwhRGpCiWja-1" vertex="1">
                    <mxGeometry x="1850" y="190" width="110" height="20" as="geometry"/>
                </mxCell>
                <mxCell id="sclcnqEavNYwDWNHTtRX-0" style="edgeStyle=orthogonalEdgeStyle;rounded=0;orthogonalLoop=1;jettySize=auto;html=1;" edge="1" parent="z_57dBjSGjwhRGpCiWja-1" source="z_57dBjSGjwhRGpCiWja-76" target="z_57dBjSGjwhRGpCiWja-77">
                    <mxGeometry relative="1" as="geometry"/>
                </mxCell>
                <mxCell id="z_57dBjSGjwhRGpCiWja-76" value="START" style="ellipse;whiteSpace=wrap;html=1;" parent="z_57dBjSGjwhRGpCiWja-1" vertex="1">
                    <mxGeometry x="1840" y="230" width="120" height="80" as="geometry"/>
                </mxCell>
                <mxCell id="z_57dBjSGjwhRGpCiWja-83" style="edgeStyle=orthogonalEdgeStyle;rounded=0;orthogonalLoop=1;jettySize=auto;html=1;entryX=0.5;entryY=0;entryDx=0;entryDy=0;endArrow=classic;endFill=0;" parent="z_57dBjSGjwhRGpCiWja-1" source="z_57dBjSGjwhRGpCiWja-77" target="z_57dBjSGjwhRGpCiWja-82" edge="1">
                    <mxGeometry relative="1" as="geometry"/>
                </mxCell>
                <mxCell id="z_57dBjSGjwhRGpCiWja-77" value="INPUT&lt;br&gt;id" style="shape=parallelogram;perimeter=parallelogramPerimeter;whiteSpace=wrap;html=1;fixedSize=1;" parent="z_57dBjSGjwhRGpCiWja-1" vertex="1">
                    <mxGeometry x="1840" y="340" width="120" height="60" as="geometry"/>
                </mxCell>
                <mxCell id="z_57dBjSGjwhRGpCiWja-85" style="edgeStyle=orthogonalEdgeStyle;rounded=0;orthogonalLoop=1;jettySize=auto;html=1;endArrow=classic;endFill=0;" parent="z_57dBjSGjwhRGpCiWja-1" source="z_57dBjSGjwhRGpCiWja-79" target="z_57dBjSGjwhRGpCiWja-80" edge="1">
                    <mxGeometry relative="1" as="geometry"/>
                </mxCell>
                <mxCell id="z_57dBjSGjwhRGpCiWja-79" value="INPUT&lt;br&gt;price,&lt;br&gt;status,&lt;br&gt;stock" style="shape=parallelogram;perimeter=parallelogramPerimeter;whiteSpace=wrap;html=1;fixedSize=1;" parent="z_57dBjSGjwhRGpCiWja-1" vertex="1">
                    <mxGeometry x="1840" y="540" width="120" height="60" as="geometry"/>
                </mxCell>
                <mxCell id="z_57dBjSGjwhRGpCiWja-86" style="edgeStyle=orthogonalEdgeStyle;rounded=0;orthogonalLoop=1;jettySize=auto;html=1;endArrow=classic;endFill=0;" parent="z_57dBjSGjwhRGpCiWja-1" source="z_57dBjSGjwhRGpCiWja-80" target="z_57dBjSGjwhRGpCiWja-81" edge="1">
                    <mxGeometry relative="1" as="geometry"/>
                </mxCell>
                <mxCell id="z_57dBjSGjwhRGpCiWja-80" value="INPUT&lt;br&gt;image,&lt;br&gt;category" style="shape=parallelogram;perimeter=parallelogramPerimeter;whiteSpace=wrap;html=1;fixedSize=1;" parent="z_57dBjSGjwhRGpCiWja-1" vertex="1">
                    <mxGeometry x="1840" y="640" width="120" height="60" as="geometry"/>
                </mxCell>
                <mxCell id="z_57dBjSGjwhRGpCiWja-89" style="edgeStyle=orthogonalEdgeStyle;rounded=0;orthogonalLoop=1;jettySize=auto;html=1;entryX=0.5;entryY=0;entryDx=0;entryDy=0;endArrow=classic;endFill=0;" parent="z_57dBjSGjwhRGpCiWja-1" source="z_57dBjSGjwhRGpCiWja-81" target="z_57dBjSGjwhRGpCiWja-87" edge="1">
                    <mxGeometry relative="1" as="geometry"/>
                </mxCell>
                <mxCell id="z_57dBjSGjwhRGpCiWja-81" value="data = { name, location, description, price, status, stock, image, category }" style="rounded=0;whiteSpace=wrap;html=1;" parent="z_57dBjSGjwhRGpCiWja-1" vertex="1">
                    <mxGeometry x="1840" y="740" width="120" height="60" as="geometry"/>
                </mxCell>
                <mxCell id="z_57dBjSGjwhRGpCiWja-84" style="edgeStyle=orthogonalEdgeStyle;rounded=0;orthogonalLoop=1;jettySize=auto;html=1;endArrow=classic;endFill=0;" parent="z_57dBjSGjwhRGpCiWja-1" source="z_57dBjSGjwhRGpCiWja-82" target="z_57dBjSGjwhRGpCiWja-79" edge="1">
                    <mxGeometry relative="1" as="geometry"/>
                </mxCell>
                <mxCell id="z_57dBjSGjwhRGpCiWja-82" value="INPUT&lt;br&gt;name,&lt;br&gt;location,&lt;br&gt;description," style="shape=parallelogram;perimeter=parallelogramPerimeter;whiteSpace=wrap;html=1;fixedSize=1;" parent="z_57dBjSGjwhRGpCiWja-1" vertex="1">
                    <mxGeometry x="1840" y="440" width="120" height="60" as="geometry"/>
                </mxCell>
                <mxCell id="z_57dBjSGjwhRGpCiWja-90" style="edgeStyle=orthogonalEdgeStyle;rounded=0;orthogonalLoop=1;jettySize=auto;html=1;endArrow=classic;endFill=0;" parent="z_57dBjSGjwhRGpCiWja-1" source="z_57dBjSGjwhRGpCiWja-87" target="z_57dBjSGjwhRGpCiWja-88" edge="1">
                    <mxGeometry relative="1" as="geometry"/>
                </mxCell>
                <mxCell id="z_57dBjSGjwhRGpCiWja-87" value="id = id CONERT TO INT || 0" style="rounded=0;whiteSpace=wrap;html=1;" parent="z_57dBjSGjwhRGpCiWja-1" vertex="1">
                    <mxGeometry x="1840" y="840" width="120" height="60" as="geometry"/>
                </mxCell>
                <mxCell id="z_57dBjSGjwhRGpCiWja-92" style="edgeStyle=orthogonalEdgeStyle;rounded=0;orthogonalLoop=1;jettySize=auto;html=1;endArrow=classic;endFill=0;" parent="z_57dBjSGjwhRGpCiWja-1" source="z_57dBjSGjwhRGpCiWja-88" target="z_57dBjSGjwhRGpCiWja-91" edge="1">
                    <mxGeometry relative="1" as="geometry"/>
                </mxCell>
                <mxCell id="z_57dBjSGjwhRGpCiWja-88" value="DB getVehicle" style="shape=cylinder3;whiteSpace=wrap;html=1;boundedLbl=1;backgroundOutline=1;size=15;" parent="z_57dBjSGjwhRGpCiWja-1" vertex="1">
                    <mxGeometry x="1866.25" y="940" width="67.5" height="90" as="geometry"/>
                </mxCell>
                <mxCell id="z_57dBjSGjwhRGpCiWja-94" style="edgeStyle=orthogonalEdgeStyle;rounded=0;orthogonalLoop=1;jettySize=auto;html=1;endArrow=classic;endFill=0;" parent="z_57dBjSGjwhRGpCiWja-1" source="z_57dBjSGjwhRGpCiWja-91" target="z_57dBjSGjwhRGpCiWja-93" edge="1">
                    <mxGeometry relative="1" as="geometry"/>
                </mxCell>
                <mxCell id="z_57dBjSGjwhRGpCiWja-97" style="edgeStyle=orthogonalEdgeStyle;rounded=0;orthogonalLoop=1;jettySize=auto;html=1;entryX=0;entryY=0.5;entryDx=0;entryDy=0;entryPerimeter=0;endArrow=classic;endFill=0;" parent="z_57dBjSGjwhRGpCiWja-1" source="z_57dBjSGjwhRGpCiWja-91" target="z_57dBjSGjwhRGpCiWja-96" edge="1">
                    <mxGeometry relative="1" as="geometry"/>
                </mxCell>
                <mxCell id="z_57dBjSGjwhRGpCiWja-91" value="results.length &amp;gt; 0" style="rhombus;whiteSpace=wrap;html=1;" parent="z_57dBjSGjwhRGpCiWja-1" vertex="1">
                    <mxGeometry x="1845" y="1060" width="110" height="110" as="geometry"/>
                </mxCell>
                <mxCell id="z_57dBjSGjwhRGpCiWja-110" style="edgeStyle=orthogonalEdgeStyle;rounded=0;orthogonalLoop=1;jettySize=auto;html=1;entryX=0.5;entryY=0;entryDx=0;entryDy=0;endArrow=classic;endFill=0;" parent="z_57dBjSGjwhRGpCiWja-1" source="z_57dBjSGjwhRGpCiWja-93" target="z_57dBjSGjwhRGpCiWja-109" edge="1">
                    <mxGeometry relative="1" as="geometry"/>
                </mxCell>
                <mxCell id="z_57dBjSGjwhRGpCiWja-93" value="OUTPUT&lt;br&gt;&quot; Data not found&quot;" style="shape=parallelogram;perimeter=parallelogramPerimeter;whiteSpace=wrap;html=1;fixedSize=1;" parent="z_57dBjSGjwhRGpCiWja-1" vertex="1">
                    <mxGeometry x="1840" y="1208" width="120" height="60" as="geometry"/>
                </mxCell>
                <mxCell id="z_57dBjSGjwhRGpCiWja-103" style="edgeStyle=orthogonalEdgeStyle;rounded=0;orthogonalLoop=1;jettySize=auto;html=1;endArrow=classic;endFill=0;" parent="z_57dBjSGjwhRGpCiWja-1" source="z_57dBjSGjwhRGpCiWja-96" target="z_57dBjSGjwhRGpCiWja-99" edge="1">
                    <mxGeometry relative="1" as="geometry"/>
                </mxCell>
                <mxCell id="z_57dBjSGjwhRGpCiWja-96" value="DB searchVehicles" style="shape=cylinder3;whiteSpace=wrap;html=1;boundedLbl=1;backgroundOutline=1;size=15;" parent="z_57dBjSGjwhRGpCiWja-1" vertex="1">
                    <mxGeometry x="2030" y="1055" width="90" height="120" as="geometry"/>
                </mxCell>
                <mxCell id="z_57dBjSGjwhRGpCiWja-102" value="TRUE" style="edgeStyle=orthogonalEdgeStyle;rounded=0;orthogonalLoop=1;jettySize=auto;html=1;entryX=0;entryY=0.5;entryDx=0;entryDy=0;entryPerimeter=0;endArrow=classic;endFill=0;" parent="z_57dBjSGjwhRGpCiWja-1" source="z_57dBjSGjwhRGpCiWja-99" target="z_57dBjSGjwhRGpCiWja-101" edge="1">
                    <mxGeometry relative="1" as="geometry"/>
                </mxCell>
                <mxCell id="z_57dBjSGjwhRGpCiWja-106" value="FALSE" style="edgeStyle=orthogonalEdgeStyle;rounded=0;orthogonalLoop=1;jettySize=auto;html=1;entryX=0.5;entryY=0;entryDx=0;entryDy=0;endArrow=classic;endFill=0;" parent="z_57dBjSGjwhRGpCiWja-1" source="z_57dBjSGjwhRGpCiWja-99" target="z_57dBjSGjwhRGpCiWja-104" edge="1">
                    <mxGeometry relative="1" as="geometry"/>
                </mxCell>
                <mxCell id="z_57dBjSGjwhRGpCiWja-99" value="result[0].id == id" style="rhombus;whiteSpace=wrap;html=1;" parent="z_57dBjSGjwhRGpCiWja-1" vertex="1">
                    <mxGeometry x="2024" y="1208" width="102" height="102" as="geometry"/>
                </mxCell>
                <mxCell id="z_57dBjSGjwhRGpCiWja-107" style="edgeStyle=orthogonalEdgeStyle;rounded=0;orthogonalLoop=1;jettySize=auto;html=1;endArrow=classic;endFill=0;" parent="z_57dBjSGjwhRGpCiWja-1" source="z_57dBjSGjwhRGpCiWja-101" target="z_57dBjSGjwhRGpCiWja-105" edge="1">
                    <mxGeometry relative="1" as="geometry"/>
                </mxCell>
                <mxCell id="z_57dBjSGjwhRGpCiWja-101" value="DB patchVehicles" style="shape=cylinder3;whiteSpace=wrap;html=1;boundedLbl=1;backgroundOutline=1;size=15;" parent="z_57dBjSGjwhRGpCiWja-1" vertex="1">
                    <mxGeometry x="2190" y="1199" width="90" height="120" as="geometry"/>
                </mxCell>
                <mxCell id="z_57dBjSGjwhRGpCiWja-112" style="edgeStyle=orthogonalEdgeStyle;rounded=0;orthogonalLoop=1;jettySize=auto;html=1;endArrow=classic;endFill=0;" parent="z_57dBjSGjwhRGpCiWja-1" edge="1">
                    <mxGeometry relative="1" as="geometry">
                        <mxPoint x="2075" y="1471" as="targetPoint"/>
                        <mxPoint x="2075" y="1401" as="sourcePoint"/>
                    </mxGeometry>
                </mxCell>
                <mxCell id="z_57dBjSGjwhRGpCiWja-104" value="OUTPUT&lt;br&gt;&quot;Updated failed" style="shape=parallelogram;perimeter=parallelogramPerimeter;whiteSpace=wrap;html=1;fixedSize=1;" parent="z_57dBjSGjwhRGpCiWja-1" vertex="1">
                    <mxGeometry x="2015" y="1350" width="120" height="60" as="geometry"/>
                </mxCell>
                <mxCell id="z_57dBjSGjwhRGpCiWja-105" value="OUPUT&lt;br&gt;&quot;Data has been updated&quot;" style="shape=parallelogram;perimeter=parallelogramPerimeter;whiteSpace=wrap;html=1;fixedSize=1;" parent="z_57dBjSGjwhRGpCiWja-1" vertex="1">
                    <mxGeometry x="2175" y="1350" width="120" height="60" as="geometry"/>
                </mxCell>
                <mxCell id="z_57dBjSGjwhRGpCiWja-111" style="edgeStyle=orthogonalEdgeStyle;rounded=0;orthogonalLoop=1;jettySize=auto;html=1;entryX=1;entryY=0.5;entryDx=0;entryDy=0;endArrow=classic;endFill=0;" parent="z_57dBjSGjwhRGpCiWja-1" source="z_57dBjSGjwhRGpCiWja-108" target="z_57dBjSGjwhRGpCiWja-109" edge="1">
                    <mxGeometry relative="1" as="geometry"/>
                </mxCell>
                <mxCell id="z_57dBjSGjwhRGpCiWja-108" value="OUTPUT&lt;br&gt;data" style="shape=parallelogram;perimeter=parallelogramPerimeter;whiteSpace=wrap;html=1;fixedSize=1;" parent="z_57dBjSGjwhRGpCiWja-1" vertex="1">
                    <mxGeometry x="2170" y="1440" width="120" height="60" as="geometry"/>
                </mxCell>
                <mxCell id="z_57dBjSGjwhRGpCiWja-109" value="END" style="ellipse;whiteSpace=wrap;html=1;" parent="z_57dBjSGjwhRGpCiWja-1" vertex="1">
                    <mxGeometry x="1840" y="1430" width="120" height="80" as="geometry"/>
                </mxCell>
            </root>
        </mxGraphModel>
    </diagram>
    <diagram id="ASdlX2TGMfFm4_jLCKKz" name="Users">
        <mxGraphModel dx="18" dy="482" grid="1" gridSize="10" guides="1" tooltips="1" connect="1" arrows="1" fold="1" page="1" pageScale="1" pageWidth="850" pageHeight="1100" math="0" shadow="0">
            <root>
                <mxCell id="Rkq7HFSGh8d1srvJVFgU-0"/>
                <mxCell id="Rkq7HFSGh8d1srvJVFgU-1" parent="Rkq7HFSGh8d1srvJVFgU-0"/>
                <mxCell id="8Y8KJUJeqwTq6iMTmkwK-0" value="&lt;h1&gt;VEHICLE-RENT PROJECT&lt;/h1&gt;" style="text;html=1;align=center;verticalAlign=middle;resizable=0;points=[];autosize=1;strokeColor=none;fillColor=none;" parent="Rkq7HFSGh8d1srvJVFgU-1" vertex="1">
                    <mxGeometry x="1880" y="30" width="310" height="50" as="geometry"/>
                </mxCell>
                <mxCell id="8Y8KJUJeqwTq6iMTmkwK-1" value="&lt;h2&gt;Flow Chart Users&lt;/h2&gt;" style="text;html=1;align=center;verticalAlign=middle;resizable=0;points=[];autosize=1;strokeColor=none;fillColor=none;" parent="Rkq7HFSGh8d1srvJVFgU-1" vertex="1">
                    <mxGeometry x="1955" y="80" width="160" height="50" as="geometry"/>
                </mxCell>
                <mxCell id="8Y8KJUJeqwTq6iMTmkwK-19" style="edgeStyle=orthogonalEdgeStyle;rounded=0;orthogonalLoop=1;jettySize=auto;html=1;" parent="Rkq7HFSGh8d1srvJVFgU-1" source="8Y8KJUJeqwTq6iMTmkwK-2" target="8Y8KJUJeqwTq6iMTmkwK-4" edge="1">
                    <mxGeometry relative="1" as="geometry"/>
                </mxCell>
                <mxCell id="8Y8KJUJeqwTq6iMTmkwK-2" value="START" style="ellipse;whiteSpace=wrap;html=1;" parent="Rkq7HFSGh8d1srvJVFgU-1" vertex="1">
                    <mxGeometry x="1055" y="250" width="120" height="80" as="geometry"/>
                </mxCell>
                <mxCell id="8Y8KJUJeqwTq6iMTmkwK-3" value="LIST USERS" style="text;html=1;align=center;verticalAlign=middle;resizable=0;points=[];autosize=1;strokeColor=none;fillColor=none;" parent="Rkq7HFSGh8d1srvJVFgU-1" vertex="1">
                    <mxGeometry x="1070" y="200" width="90" height="20" as="geometry"/>
                </mxCell>
                <mxCell id="8Y8KJUJeqwTq6iMTmkwK-18" style="edgeStyle=orthogonalEdgeStyle;rounded=0;orthogonalLoop=1;jettySize=auto;html=1;" parent="Rkq7HFSGh8d1srvJVFgU-1" source="8Y8KJUJeqwTq6iMTmkwK-4" target="8Y8KJUJeqwTq6iMTmkwK-5" edge="1">
                    <mxGeometry relative="1" as="geometry"/>
                </mxCell>
                <mxCell id="8Y8KJUJeqwTq6iMTmkwK-4" value="INPUT&lt;br&gt;username,&lt;br&gt;id" style="shape=parallelogram;perimeter=parallelogramPerimeter;whiteSpace=wrap;html=1;fixedSize=1;" parent="Rkq7HFSGh8d1srvJVFgU-1" vertex="1">
                    <mxGeometry x="1055" y="360" width="120" height="60" as="geometry"/>
                </mxCell>
                <mxCell id="8Y8KJUJeqwTq6iMTmkwK-17" style="edgeStyle=orthogonalEdgeStyle;rounded=0;orthogonalLoop=1;jettySize=auto;html=1;entryX=0.5;entryY=0;entryDx=0;entryDy=0;" parent="Rkq7HFSGh8d1srvJVFgU-1" source="8Y8KJUJeqwTq6iMTmkwK-5" target="8Y8KJUJeqwTq6iMTmkwK-6" edge="1">
                    <mxGeometry relative="1" as="geometry"/>
                </mxCell>
                <mxCell id="8Y8KJUJeqwTq6iMTmkwK-5" value="username = username || '';&lt;br&gt;id = id CONVERT TO INT || ''." style="rounded=0;whiteSpace=wrap;html=1;" parent="Rkq7HFSGh8d1srvJVFgU-1" vertex="1">
                    <mxGeometry x="1032.5" y="460" width="165" height="60" as="geometry"/>
                </mxCell>
                <mxCell id="8Y8KJUJeqwTq6iMTmkwK-16" style="edgeStyle=orthogonalEdgeStyle;rounded=0;orthogonalLoop=1;jettySize=auto;html=1;" parent="Rkq7HFSGh8d1srvJVFgU-1" source="8Y8KJUJeqwTq6iMTmkwK-6" target="8Y8KJUJeqwTq6iMTmkwK-7" edge="1">
                    <mxGeometry relative="1" as="geometry"/>
                </mxCell>
                <mxCell id="8Y8KJUJeqwTq6iMTmkwK-6" value="data = { id, username }" style="rounded=0;whiteSpace=wrap;html=1;" parent="Rkq7HFSGh8d1srvJVFgU-1" vertex="1">
                    <mxGeometry x="1050" y="560" width="130" height="60" as="geometry"/>
                </mxCell>
                <mxCell id="8Y8KJUJeqwTq6iMTmkwK-15" style="edgeStyle=orthogonalEdgeStyle;rounded=0;orthogonalLoop=1;jettySize=auto;html=1;entryX=0.5;entryY=0;entryDx=0;entryDy=0;" parent="Rkq7HFSGh8d1srvJVFgU-1" source="8Y8KJUJeqwTq6iMTmkwK-7" target="8Y8KJUJeqwTq6iMTmkwK-8" edge="1">
                    <mxGeometry relative="1" as="geometry"/>
                </mxCell>
                <mxCell id="8Y8KJUJeqwTq6iMTmkwK-7" value="DB getUsers" style="shape=cylinder3;whiteSpace=wrap;html=1;boundedLbl=1;backgroundOutline=1;size=15;" parent="Rkq7HFSGh8d1srvJVFgU-1" vertex="1">
                    <mxGeometry x="1081.25" y="660" width="67.5" height="90" as="geometry"/>
                </mxCell>
                <mxCell id="8Y8KJUJeqwTq6iMTmkwK-12" value="TRUE" style="edgeStyle=orthogonalEdgeStyle;rounded=0;orthogonalLoop=1;jettySize=auto;html=1;entryX=0;entryY=0.5;entryDx=0;entryDy=0;" parent="Rkq7HFSGh8d1srvJVFgU-1" source="8Y8KJUJeqwTq6iMTmkwK-8" target="8Y8KJUJeqwTq6iMTmkwK-11" edge="1">
                    <mxGeometry relative="1" as="geometry"/>
                </mxCell>
                <mxCell id="8Y8KJUJeqwTq6iMTmkwK-13" value="FALSE" style="edgeStyle=orthogonalEdgeStyle;rounded=0;orthogonalLoop=1;jettySize=auto;html=1;" parent="Rkq7HFSGh8d1srvJVFgU-1" source="8Y8KJUJeqwTq6iMTmkwK-8" target="8Y8KJUJeqwTq6iMTmkwK-9" edge="1">
                    <mxGeometry relative="1" as="geometry"/>
                </mxCell>
                <mxCell id="8Y8KJUJeqwTq6iMTmkwK-8" value="results.length &amp;gt; 0" style="rhombus;whiteSpace=wrap;html=1;" parent="Rkq7HFSGh8d1srvJVFgU-1" vertex="1">
                    <mxGeometry x="1060" y="790" width="110" height="110" as="geometry"/>
                </mxCell>
                <mxCell id="8Y8KJUJeqwTq6iMTmkwK-21" style="edgeStyle=orthogonalEdgeStyle;rounded=0;orthogonalLoop=1;jettySize=auto;html=1;entryX=0.5;entryY=0;entryDx=0;entryDy=0;" parent="Rkq7HFSGh8d1srvJVFgU-1" source="8Y8KJUJeqwTq6iMTmkwK-9" target="8Y8KJUJeqwTq6iMTmkwK-20" edge="1">
                    <mxGeometry relative="1" as="geometry"/>
                </mxCell>
                <mxCell id="8Y8KJUJeqwTq6iMTmkwK-9" value="OUTPUT&lt;br&gt;&quot;Data not found&quot;" style="shape=parallelogram;perimeter=parallelogramPerimeter;whiteSpace=wrap;html=1;fixedSize=1;" parent="Rkq7HFSGh8d1srvJVFgU-1" vertex="1">
                    <mxGeometry x="1055" y="940" width="120" height="60" as="geometry"/>
                </mxCell>
                <mxCell id="8Y8KJUJeqwTq6iMTmkwK-22" style="edgeStyle=orthogonalEdgeStyle;rounded=0;orthogonalLoop=1;jettySize=auto;html=1;entryX=1;entryY=0.5;entryDx=0;entryDy=0;" parent="Rkq7HFSGh8d1srvJVFgU-1" source="8Y8KJUJeqwTq6iMTmkwK-10" target="8Y8KJUJeqwTq6iMTmkwK-20" edge="1">
                    <mxGeometry relative="1" as="geometry">
                        <Array as="points">
                            <mxPoint x="1290" y="1080"/>
                        </Array>
                    </mxGeometry>
                </mxCell>
                <mxCell id="8Y8KJUJeqwTq6iMTmkwK-10" value="OUTPUT&lt;br&gt;results" style="shape=parallelogram;perimeter=parallelogramPerimeter;whiteSpace=wrap;html=1;fixedSize=1;" parent="Rkq7HFSGh8d1srvJVFgU-1" vertex="1">
                    <mxGeometry x="1230" y="940" width="120" height="60" as="geometry"/>
                </mxCell>
                <mxCell id="8Y8KJUJeqwTq6iMTmkwK-14" style="edgeStyle=orthogonalEdgeStyle;rounded=0;orthogonalLoop=1;jettySize=auto;html=1;" parent="Rkq7HFSGh8d1srvJVFgU-1" source="8Y8KJUJeqwTq6iMTmkwK-11" target="8Y8KJUJeqwTq6iMTmkwK-10" edge="1">
                    <mxGeometry relative="1" as="geometry"/>
                </mxCell>
                <mxCell id="8Y8KJUJeqwTq6iMTmkwK-11" value="OUTPUT&lt;br&gt;&quot;List of users&quot;" style="shape=parallelogram;perimeter=parallelogramPerimeter;whiteSpace=wrap;html=1;fixedSize=1;" parent="Rkq7HFSGh8d1srvJVFgU-1" vertex="1">
                    <mxGeometry x="1230" y="815" width="120" height="60" as="geometry"/>
                </mxCell>
                <mxCell id="8Y8KJUJeqwTq6iMTmkwK-20" value="END" style="ellipse;whiteSpace=wrap;html=1;" parent="Rkq7HFSGh8d1srvJVFgU-1" vertex="1">
                    <mxGeometry x="1055" y="1040" width="120" height="80" as="geometry"/>
                </mxCell>
                <mxCell id="lFlw7tYBSV4ykvETLZx7-18" style="edgeStyle=orthogonalEdgeStyle;rounded=0;orthogonalLoop=1;jettySize=auto;html=1;entryX=0.5;entryY=0;entryDx=0;entryDy=0;" parent="Rkq7HFSGh8d1srvJVFgU-1" source="lFlw7tYBSV4ykvETLZx7-0" target="lFlw7tYBSV4ykvETLZx7-2" edge="1">
                    <mxGeometry relative="1" as="geometry"/>
                </mxCell>
                <mxCell id="lFlw7tYBSV4ykvETLZx7-0" value="START" style="ellipse;whiteSpace=wrap;html=1;" parent="Rkq7HFSGh8d1srvJVFgU-1" vertex="1">
                    <mxGeometry x="1540" y="250" width="120" height="80" as="geometry"/>
                </mxCell>
                <mxCell id="lFlw7tYBSV4ykvETLZx7-1" value="DELETE USER" style="text;html=1;align=center;verticalAlign=middle;resizable=0;points=[];autosize=1;strokeColor=none;fillColor=none;" parent="Rkq7HFSGh8d1srvJVFgU-1" vertex="1">
                    <mxGeometry x="1550" y="190" width="100" height="20" as="geometry"/>
                </mxCell>
                <mxCell id="lFlw7tYBSV4ykvETLZx7-19" style="edgeStyle=orthogonalEdgeStyle;rounded=0;orthogonalLoop=1;jettySize=auto;html=1;entryX=0.5;entryY=0;entryDx=0;entryDy=0;" parent="Rkq7HFSGh8d1srvJVFgU-1" source="lFlw7tYBSV4ykvETLZx7-2" target="lFlw7tYBSV4ykvETLZx7-3" edge="1">
                    <mxGeometry relative="1" as="geometry"/>
                </mxCell>
                <mxCell id="lFlw7tYBSV4ykvETLZx7-2" value="INPUT&lt;br&gt;id" style="shape=parallelogram;perimeter=parallelogramPerimeter;whiteSpace=wrap;html=1;fixedSize=1;" parent="Rkq7HFSGh8d1srvJVFgU-1" vertex="1">
                    <mxGeometry x="1540" y="370" width="120" height="60" as="geometry"/>
                </mxCell>
                <mxCell id="lFlw7tYBSV4ykvETLZx7-20" style="edgeStyle=orthogonalEdgeStyle;rounded=0;orthogonalLoop=1;jettySize=auto;html=1;" parent="Rkq7HFSGh8d1srvJVFgU-1" source="lFlw7tYBSV4ykvETLZx7-3" target="lFlw7tYBSV4ykvETLZx7-5" edge="1">
                    <mxGeometry relative="1" as="geometry"/>
                </mxCell>
                <mxCell id="lFlw7tYBSV4ykvETLZx7-3" value="id = id CONVERT TO INT || 0" style="rounded=0;whiteSpace=wrap;html=1;" parent="Rkq7HFSGh8d1srvJVFgU-1" vertex="1">
                    <mxGeometry x="1520" y="480" width="160" height="60" as="geometry"/>
                </mxCell>
                <mxCell id="lFlw7tYBSV4ykvETLZx7-21" style="edgeStyle=orthogonalEdgeStyle;rounded=0;orthogonalLoop=1;jettySize=auto;html=1;" parent="Rkq7HFSGh8d1srvJVFgU-1" source="lFlw7tYBSV4ykvETLZx7-5" target="lFlw7tYBSV4ykvETLZx7-7" edge="1">
                    <mxGeometry relative="1" as="geometry"/>
                </mxCell>
                <mxCell id="lFlw7tYBSV4ykvETLZx7-5" value="DB getUser" style="shape=cylinder3;whiteSpace=wrap;html=1;boundedLbl=1;backgroundOutline=1;size=15;" parent="Rkq7HFSGh8d1srvJVFgU-1" vertex="1">
                    <mxGeometry x="1568.13" y="590" width="63.75" height="90" as="geometry"/>
                </mxCell>
                <mxCell id="lFlw7tYBSV4ykvETLZx7-10" style="edgeStyle=orthogonalEdgeStyle;rounded=0;orthogonalLoop=1;jettySize=auto;html=1;" parent="Rkq7HFSGh8d1srvJVFgU-1" source="lFlw7tYBSV4ykvETLZx7-7" target="lFlw7tYBSV4ykvETLZx7-9" edge="1">
                    <mxGeometry relative="1" as="geometry"/>
                </mxCell>
                <mxCell id="lFlw7tYBSV4ykvETLZx7-15" value="FALSE" style="edgeStyle=orthogonalEdgeStyle;rounded=0;orthogonalLoop=1;jettySize=auto;html=1;" parent="Rkq7HFSGh8d1srvJVFgU-1" source="lFlw7tYBSV4ykvETLZx7-7" target="lFlw7tYBSV4ykvETLZx7-9" edge="1">
                    <mxGeometry relative="1" as="geometry"/>
                </mxCell>
                <mxCell id="lFlw7tYBSV4ykvETLZx7-16" value="TRUE" style="edgeStyle=orthogonalEdgeStyle;rounded=0;orthogonalLoop=1;jettySize=auto;html=1;entryX=0;entryY=0.5;entryDx=0;entryDy=0;entryPerimeter=0;" parent="Rkq7HFSGh8d1srvJVFgU-1" source="lFlw7tYBSV4ykvETLZx7-7" target="lFlw7tYBSV4ykvETLZx7-8" edge="1">
                    <mxGeometry relative="1" as="geometry"/>
                </mxCell>
                <mxCell id="lFlw7tYBSV4ykvETLZx7-7" value="result.length &amp;gt; 0" style="rhombus;whiteSpace=wrap;html=1;" parent="Rkq7HFSGh8d1srvJVFgU-1" vertex="1">
                    <mxGeometry x="1545" y="720" width="110" height="110" as="geometry"/>
                </mxCell>
                <mxCell id="lFlw7tYBSV4ykvETLZx7-22" style="edgeStyle=orthogonalEdgeStyle;rounded=0;orthogonalLoop=1;jettySize=auto;html=1;" parent="Rkq7HFSGh8d1srvJVFgU-1" source="lFlw7tYBSV4ykvETLZx7-8" target="lFlw7tYBSV4ykvETLZx7-11" edge="1">
                    <mxGeometry relative="1" as="geometry"/>
                </mxCell>
                <mxCell id="lFlw7tYBSV4ykvETLZx7-8" value="DB deleteUser" style="shape=cylinder3;whiteSpace=wrap;html=1;boundedLbl=1;backgroundOutline=1;size=15;" parent="Rkq7HFSGh8d1srvJVFgU-1" vertex="1">
                    <mxGeometry x="1740" y="725" width="70.83" height="100" as="geometry"/>
                </mxCell>
                <mxCell id="lFlw7tYBSV4ykvETLZx7-14" style="edgeStyle=orthogonalEdgeStyle;rounded=0;orthogonalLoop=1;jettySize=auto;html=1;" parent="Rkq7HFSGh8d1srvJVFgU-1" source="lFlw7tYBSV4ykvETLZx7-9" target="lFlw7tYBSV4ykvETLZx7-13" edge="1">
                    <mxGeometry relative="1" as="geometry"/>
                </mxCell>
                <mxCell id="lFlw7tYBSV4ykvETLZx7-9" value="OUTPUT&lt;br&gt;&quot;Data not found&quot;" style="shape=parallelogram;perimeter=parallelogramPerimeter;whiteSpace=wrap;html=1;fixedSize=1;" parent="Rkq7HFSGh8d1srvJVFgU-1" vertex="1">
                    <mxGeometry x="1540" y="870" width="120" height="60" as="geometry"/>
                </mxCell>
                <mxCell id="lFlw7tYBSV4ykvETLZx7-23" style="edgeStyle=orthogonalEdgeStyle;rounded=0;orthogonalLoop=1;jettySize=auto;html=1;entryX=0.5;entryY=0;entryDx=0;entryDy=0;" parent="Rkq7HFSGh8d1srvJVFgU-1" source="lFlw7tYBSV4ykvETLZx7-11" target="lFlw7tYBSV4ykvETLZx7-12" edge="1">
                    <mxGeometry relative="1" as="geometry"/>
                </mxCell>
                <mxCell id="lFlw7tYBSV4ykvETLZx7-11" value="OUTPUT&lt;br&gt;&quot;Deleted successfuly&quot;" style="shape=parallelogram;perimeter=parallelogramPerimeter;whiteSpace=wrap;html=1;fixedSize=1;" parent="Rkq7HFSGh8d1srvJVFgU-1" vertex="1">
                    <mxGeometry x="1703.1200000000001" y="870" width="144.59" height="60" as="geometry"/>
                </mxCell>
                <mxCell id="lFlw7tYBSV4ykvETLZx7-24" style="edgeStyle=orthogonalEdgeStyle;rounded=0;orthogonalLoop=1;jettySize=auto;html=1;" parent="Rkq7HFSGh8d1srvJVFgU-1" source="lFlw7tYBSV4ykvETLZx7-12" target="lFlw7tYBSV4ykvETLZx7-13" edge="1">
                    <mxGeometry relative="1" as="geometry"/>
                </mxCell>
                <mxCell id="lFlw7tYBSV4ykvETLZx7-12" value="OUTPUT&lt;br&gt;result[0]" style="shape=parallelogram;perimeter=parallelogramPerimeter;whiteSpace=wrap;html=1;fixedSize=1;" parent="Rkq7HFSGh8d1srvJVFgU-1" vertex="1">
                    <mxGeometry x="1715.42" y="980" width="120" height="60" as="geometry"/>
                </mxCell>
                <mxCell id="lFlw7tYBSV4ykvETLZx7-13" value="END" style="ellipse;whiteSpace=wrap;html=1;" parent="Rkq7HFSGh8d1srvJVFgU-1" vertex="1">
                    <mxGeometry x="1540" y="970" width="120" height="80" as="geometry"/>
                </mxCell>
                <mxCell id="TP7TtVovNn5FQsOMp84W-0" value="INSERT USER" style="text;html=1;align=center;verticalAlign=middle;resizable=0;points=[];autosize=1;strokeColor=none;fillColor=none;" parent="Rkq7HFSGh8d1srvJVFgU-1" vertex="1">
                    <mxGeometry x="2110" y="180" width="100" height="20" as="geometry"/>
                </mxCell>
                <mxCell id="RGCeXzoF5Qncfr0WKtpI-8" style="edgeStyle=orthogonalEdgeStyle;rounded=0;orthogonalLoop=1;jettySize=auto;html=1;entryX=0.5;entryY=0;entryDx=0;entryDy=0;" parent="Rkq7HFSGh8d1srvJVFgU-1" source="RGCeXzoF5Qncfr0WKtpI-0" target="RGCeXzoF5Qncfr0WKtpI-3" edge="1">
                    <mxGeometry relative="1" as="geometry"/>
                </mxCell>
                <mxCell id="RGCeXzoF5Qncfr0WKtpI-0" value="INPUT&lt;br&gt;username,&lt;br&gt;contact,&lt;br&gt;email" style="shape=parallelogram;perimeter=parallelogramPerimeter;whiteSpace=wrap;html=1;fixedSize=1;" parent="Rkq7HFSGh8d1srvJVFgU-1" vertex="1">
                    <mxGeometry x="2080" y="350" width="160" height="60" as="geometry"/>
                </mxCell>
                <mxCell id="RGCeXzoF5Qncfr0WKtpI-5" style="edgeStyle=orthogonalEdgeStyle;rounded=0;orthogonalLoop=1;jettySize=auto;html=1;entryX=0.5;entryY=0;entryDx=0;entryDy=0;" parent="Rkq7HFSGh8d1srvJVFgU-1" source="RGCeXzoF5Qncfr0WKtpI-1" target="RGCeXzoF5Qncfr0WKtpI-0" edge="1">
                    <mxGeometry relative="1" as="geometry"/>
                </mxCell>
                <mxCell id="RGCeXzoF5Qncfr0WKtpI-1" value="START" style="ellipse;whiteSpace=wrap;html=1;" parent="Rkq7HFSGh8d1srvJVFgU-1" vertex="1">
                    <mxGeometry x="2100" y="230" width="120" height="80" as="geometry"/>
                </mxCell>
                <mxCell id="RGCeXzoF5Qncfr0WKtpI-7" style="edgeStyle=orthogonalEdgeStyle;rounded=0;orthogonalLoop=1;jettySize=auto;html=1;" parent="Rkq7HFSGh8d1srvJVFgU-1" source="RGCeXzoF5Qncfr0WKtpI-3" target="RGCeXzoF5Qncfr0WKtpI-4" edge="1">
                    <mxGeometry relative="1" as="geometry"/>
                </mxCell>
                <mxCell id="RGCeXzoF5Qncfr0WKtpI-3" value="INPUT&lt;br&gt;password" style="shape=parallelogram;perimeter=parallelogramPerimeter;whiteSpace=wrap;html=1;fixedSize=1;" parent="Rkq7HFSGh8d1srvJVFgU-1" vertex="1">
                    <mxGeometry x="2080" y="450" width="160" height="60" as="geometry"/>
                </mxCell>
                <mxCell id="RGCeXzoF5Qncfr0WKtpI-11" style="edgeStyle=orthogonalEdgeStyle;rounded=0;orthogonalLoop=1;jettySize=auto;html=1;entryX=0.5;entryY=0;entryDx=0;entryDy=0;entryPerimeter=0;" parent="Rkq7HFSGh8d1srvJVFgU-1" source="RGCeXzoF5Qncfr0WKtpI-4" target="RGCeXzoF5Qncfr0WKtpI-10" edge="1">
                    <mxGeometry relative="1" as="geometry"/>
                </mxCell>
                <mxCell id="RGCeXzoF5Qncfr0WKtpI-4" value="data = { username, contact, email, password }" style="rounded=0;whiteSpace=wrap;html=1;" parent="Rkq7HFSGh8d1srvJVFgU-1" vertex="1">
                    <mxGeometry x="2070" y="550" width="180" height="60" as="geometry"/>
                </mxCell>
                <mxCell id="RGCeXzoF5Qncfr0WKtpI-16" style="edgeStyle=orthogonalEdgeStyle;rounded=0;orthogonalLoop=1;jettySize=auto;html=1;entryX=0.5;entryY=0;entryDx=0;entryDy=0;" parent="Rkq7HFSGh8d1srvJVFgU-1" source="RGCeXzoF5Qncfr0WKtpI-10" target="RGCeXzoF5Qncfr0WKtpI-12" edge="1">
                    <mxGeometry relative="1" as="geometry"/>
                </mxCell>
                <mxCell id="RGCeXzoF5Qncfr0WKtpI-10" value="DB searchUser" style="shape=cylinder3;whiteSpace=wrap;html=1;boundedLbl=1;backgroundOutline=1;size=15;" parent="Rkq7HFSGh8d1srvJVFgU-1" vertex="1">
                    <mxGeometry x="2124.5899999999997" y="650" width="70.83" height="100" as="geometry"/>
                </mxCell>
                <mxCell id="RGCeXzoF5Qncfr0WKtpI-15" style="edgeStyle=orthogonalEdgeStyle;rounded=0;orthogonalLoop=1;jettySize=auto;html=1;entryX=0.028;entryY=0.58;entryDx=0;entryDy=0;entryPerimeter=0;" parent="Rkq7HFSGh8d1srvJVFgU-1" source="RGCeXzoF5Qncfr0WKtpI-12" target="RGCeXzoF5Qncfr0WKtpI-14" edge="1">
                    <mxGeometry relative="1" as="geometry"/>
                </mxCell>
                <mxCell id="RGCeXzoF5Qncfr0WKtpI-17" style="edgeStyle=orthogonalEdgeStyle;rounded=0;orthogonalLoop=1;jettySize=auto;html=1;entryX=0.5;entryY=0;entryDx=0;entryDy=0;" parent="Rkq7HFSGh8d1srvJVFgU-1" source="RGCeXzoF5Qncfr0WKtpI-12" target="RGCeXzoF5Qncfr0WKtpI-13" edge="1">
                    <mxGeometry relative="1" as="geometry"/>
                </mxCell>
                <mxCell id="RGCeXzoF5Qncfr0WKtpI-12" value="result.length &amp;lt;= 0" style="rhombus;whiteSpace=wrap;html=1;" parent="Rkq7HFSGh8d1srvJVFgU-1" vertex="1">
                    <mxGeometry x="2105" y="790" width="110" height="110" as="geometry"/>
                </mxCell>
                <mxCell id="RGCeXzoF5Qncfr0WKtpI-24" style="edgeStyle=orthogonalEdgeStyle;rounded=0;orthogonalLoop=1;jettySize=auto;html=1;" parent="Rkq7HFSGh8d1srvJVFgU-1" source="RGCeXzoF5Qncfr0WKtpI-13" target="RGCeXzoF5Qncfr0WKtpI-22" edge="1">
                    <mxGeometry relative="1" as="geometry"/>
                </mxCell>
                <mxCell id="RGCeXzoF5Qncfr0WKtpI-13" value="OUTPUT&lt;br&gt;&quot;Insert failed&quot;" style="shape=parallelogram;perimeter=parallelogramPerimeter;whiteSpace=wrap;html=1;fixedSize=1;" parent="Rkq7HFSGh8d1srvJVFgU-1" vertex="1">
                    <mxGeometry x="2100" y="940" width="120" height="60" as="geometry"/>
                </mxCell>
                <mxCell id="RGCeXzoF5Qncfr0WKtpI-20" style="edgeStyle=orthogonalEdgeStyle;rounded=0;orthogonalLoop=1;jettySize=auto;html=1;" parent="Rkq7HFSGh8d1srvJVFgU-1" source="RGCeXzoF5Qncfr0WKtpI-14" target="RGCeXzoF5Qncfr0WKtpI-18" edge="1">
                    <mxGeometry relative="1" as="geometry"/>
                </mxCell>
                <mxCell id="RGCeXzoF5Qncfr0WKtpI-14" value="DB postUser" style="shape=cylinder3;whiteSpace=wrap;html=1;boundedLbl=1;backgroundOutline=1;size=15;" parent="Rkq7HFSGh8d1srvJVFgU-1" vertex="1">
                    <mxGeometry x="2353.75" y="787" width="70" height="100" as="geometry"/>
                </mxCell>
                <mxCell id="RGCeXzoF5Qncfr0WKtpI-21" style="edgeStyle=orthogonalEdgeStyle;rounded=0;orthogonalLoop=1;jettySize=auto;html=1;entryX=0.5;entryY=0;entryDx=0;entryDy=0;" parent="Rkq7HFSGh8d1srvJVFgU-1" source="RGCeXzoF5Qncfr0WKtpI-18" target="RGCeXzoF5Qncfr0WKtpI-19" edge="1">
                    <mxGeometry relative="1" as="geometry"/>
                </mxCell>
                <mxCell id="RGCeXzoF5Qncfr0WKtpI-18" value="OUTPUT&lt;br&gt;&quot;Insert successfully&quot;" style="shape=parallelogram;perimeter=parallelogramPerimeter;whiteSpace=wrap;html=1;fixedSize=1;" parent="Rkq7HFSGh8d1srvJVFgU-1" vertex="1">
                    <mxGeometry x="2316.25" y="940" width="145" height="60" as="geometry"/>
                </mxCell>
                <mxCell id="RGCeXzoF5Qncfr0WKtpI-23" style="edgeStyle=orthogonalEdgeStyle;rounded=0;orthogonalLoop=1;jettySize=auto;html=1;" parent="Rkq7HFSGh8d1srvJVFgU-1" source="RGCeXzoF5Qncfr0WKtpI-19" target="RGCeXzoF5Qncfr0WKtpI-22" edge="1">
                    <mxGeometry relative="1" as="geometry"/>
                </mxCell>
                <mxCell id="RGCeXzoF5Qncfr0WKtpI-19" value="OUTPUT&lt;br&gt;{ id : results.insertId, data }" style="shape=parallelogram;perimeter=parallelogramPerimeter;whiteSpace=wrap;html=1;fixedSize=1;" parent="Rkq7HFSGh8d1srvJVFgU-1" vertex="1">
                    <mxGeometry x="2300" y="1060" width="177.5" height="60" as="geometry"/>
                </mxCell>
                <mxCell id="RGCeXzoF5Qncfr0WKtpI-22" value="END" style="ellipse;whiteSpace=wrap;html=1;" parent="Rkq7HFSGh8d1srvJVFgU-1" vertex="1">
                    <mxGeometry x="2100" y="1050" width="120" height="80" as="geometry"/>
                </mxCell>
                <mxCell id="RGCeXzoF5Qncfr0WKtpI-25" value="PATCH USER" style="text;html=1;align=center;verticalAlign=middle;resizable=0;points=[];autosize=1;strokeColor=none;fillColor=none;" parent="Rkq7HFSGh8d1srvJVFgU-1" vertex="1">
                    <mxGeometry x="2730" y="180" width="90" height="20" as="geometry"/>
                </mxCell>
                <mxCell id="RGCeXzoF5Qncfr0WKtpI-31" style="edgeStyle=orthogonalEdgeStyle;rounded=0;orthogonalLoop=1;jettySize=auto;html=1;entryX=0.5;entryY=0;entryDx=0;entryDy=0;" parent="Rkq7HFSGh8d1srvJVFgU-1" source="RGCeXzoF5Qncfr0WKtpI-26" target="RGCeXzoF5Qncfr0WKtpI-27" edge="1">
                    <mxGeometry relative="1" as="geometry"/>
                </mxCell>
                <mxCell id="RGCeXzoF5Qncfr0WKtpI-26" value="START" style="ellipse;whiteSpace=wrap;html=1;" parent="Rkq7HFSGh8d1srvJVFgU-1" vertex="1">
                    <mxGeometry x="2715" y="230" width="120" height="80" as="geometry"/>
                </mxCell>
                <mxCell id="RGCeXzoF5Qncfr0WKtpI-32" style="edgeStyle=orthogonalEdgeStyle;rounded=0;orthogonalLoop=1;jettySize=auto;html=1;" parent="Rkq7HFSGh8d1srvJVFgU-1" source="RGCeXzoF5Qncfr0WKtpI-27" target="RGCeXzoF5Qncfr0WKtpI-28" edge="1">
                    <mxGeometry relative="1" as="geometry"/>
                </mxCell>
                <mxCell id="RGCeXzoF5Qncfr0WKtpI-27" value="INPUT&lt;br&gt;id" style="shape=parallelogram;perimeter=parallelogramPerimeter;whiteSpace=wrap;html=1;fixedSize=1;" parent="Rkq7HFSGh8d1srvJVFgU-1" vertex="1">
                    <mxGeometry x="2715" y="350" width="120" height="60" as="geometry"/>
                </mxCell>
                <mxCell id="RGCeXzoF5Qncfr0WKtpI-33" style="edgeStyle=orthogonalEdgeStyle;rounded=0;orthogonalLoop=1;jettySize=auto;html=1;entryX=0.5;entryY=0;entryDx=0;entryDy=0;" parent="Rkq7HFSGh8d1srvJVFgU-1" source="RGCeXzoF5Qncfr0WKtpI-28" target="RGCeXzoF5Qncfr0WKtpI-29" edge="1">
                    <mxGeometry relative="1" as="geometry"/>
                </mxCell>
                <mxCell id="RGCeXzoF5Qncfr0WKtpI-28" value="INPUT&lt;br&gt;fullName,&lt;br&gt;gender,&lt;br&gt;email" style="shape=parallelogram;perimeter=parallelogramPerimeter;whiteSpace=wrap;html=1;fixedSize=1;" parent="Rkq7HFSGh8d1srvJVFgU-1" vertex="1">
                    <mxGeometry x="2715" y="450" width="120" height="60" as="geometry"/>
                </mxCell>
                <mxCell id="RGCeXzoF5Qncfr0WKtpI-34" style="edgeStyle=orthogonalEdgeStyle;rounded=0;orthogonalLoop=1;jettySize=auto;html=1;entryX=0.5;entryY=0;entryDx=0;entryDy=0;" parent="Rkq7HFSGh8d1srvJVFgU-1" source="RGCeXzoF5Qncfr0WKtpI-29" target="RGCeXzoF5Qncfr0WKtpI-30" edge="1">
                    <mxGeometry relative="1" as="geometry"/>
                </mxCell>
                <mxCell id="RGCeXzoF5Qncfr0WKtpI-29" value="INPUT&lt;br&gt;address,&lt;br&gt;contact,&lt;br&gt;displayName" style="shape=parallelogram;perimeter=parallelogramPerimeter;whiteSpace=wrap;html=1;fixedSize=1;" parent="Rkq7HFSGh8d1srvJVFgU-1" vertex="1">
                    <mxGeometry x="2710" y="550" width="130" height="60" as="geometry"/>
                </mxCell>
                <mxCell id="RGCeXzoF5Qncfr0WKtpI-36" style="edgeStyle=orthogonalEdgeStyle;rounded=0;orthogonalLoop=1;jettySize=auto;html=1;entryX=0.5;entryY=0;entryDx=0;entryDy=0;" parent="Rkq7HFSGh8d1srvJVFgU-1" source="RGCeXzoF5Qncfr0WKtpI-30" target="RGCeXzoF5Qncfr0WKtpI-35" edge="1">
                    <mxGeometry relative="1" as="geometry"/>
                </mxCell>
                <mxCell id="RGCeXzoF5Qncfr0WKtpI-30" value="INPUT&lt;br&gt;birthDate,&lt;br&gt;username" style="shape=parallelogram;perimeter=parallelogramPerimeter;whiteSpace=wrap;html=1;fixedSize=1;" parent="Rkq7HFSGh8d1srvJVFgU-1" vertex="1">
                    <mxGeometry x="2715" y="650" width="120" height="60" as="geometry"/>
                </mxCell>
                <mxCell id="RGCeXzoF5Qncfr0WKtpI-39" style="edgeStyle=orthogonalEdgeStyle;rounded=0;orthogonalLoop=1;jettySize=auto;html=1;" parent="Rkq7HFSGh8d1srvJVFgU-1" source="RGCeXzoF5Qncfr0WKtpI-35" target="RGCeXzoF5Qncfr0WKtpI-37" edge="1">
                    <mxGeometry relative="1" as="geometry"/>
                </mxCell>
                <mxCell id="RGCeXzoF5Qncfr0WKtpI-35" value="data = { fullName, gender, email, address, contact, displayName, birthDate, username }" style="rounded=0;whiteSpace=wrap;html=1;" parent="Rkq7HFSGh8d1srvJVFgU-1" vertex="1">
                    <mxGeometry x="2665" y="755" width="220" height="60" as="geometry"/>
                </mxCell>
                <mxCell id="RGCeXzoF5Qncfr0WKtpI-40" style="edgeStyle=orthogonalEdgeStyle;rounded=0;orthogonalLoop=1;jettySize=auto;html=1;entryX=0.5;entryY=0;entryDx=0;entryDy=0;entryPerimeter=0;" parent="Rkq7HFSGh8d1srvJVFgU-1" source="RGCeXzoF5Qncfr0WKtpI-37" target="RGCeXzoF5Qncfr0WKtpI-38" edge="1">
                    <mxGeometry relative="1" as="geometry"/>
                </mxCell>
                <mxCell id="RGCeXzoF5Qncfr0WKtpI-37" value="id = id CONVERT TO INT || 0" style="rounded=0;whiteSpace=wrap;html=1;" parent="Rkq7HFSGh8d1srvJVFgU-1" vertex="1">
                    <mxGeometry x="2695" y="860" width="160" height="60" as="geometry"/>
                </mxCell>
                <mxCell id="RGCeXzoF5Qncfr0WKtpI-44" style="edgeStyle=orthogonalEdgeStyle;rounded=0;orthogonalLoop=1;jettySize=auto;html=1;" parent="Rkq7HFSGh8d1srvJVFgU-1" source="RGCeXzoF5Qncfr0WKtpI-38" target="RGCeXzoF5Qncfr0WKtpI-42" edge="1">
                    <mxGeometry relative="1" as="geometry"/>
                </mxCell>
                <mxCell id="RGCeXzoF5Qncfr0WKtpI-38" value="DB getUser" style="shape=cylinder3;whiteSpace=wrap;html=1;boundedLbl=1;backgroundOutline=1;size=15;" parent="Rkq7HFSGh8d1srvJVFgU-1" vertex="1">
                    <mxGeometry x="2745" y="960" width="60" height="90" as="geometry"/>
                </mxCell>
                <mxCell id="RGCeXzoF5Qncfr0WKtpI-47" value="FALSE" style="edgeStyle=orthogonalEdgeStyle;rounded=0;orthogonalLoop=1;jettySize=auto;html=1;entryX=0.5;entryY=0;entryDx=0;entryDy=0;" parent="Rkq7HFSGh8d1srvJVFgU-1" source="RGCeXzoF5Qncfr0WKtpI-42" target="RGCeXzoF5Qncfr0WKtpI-43" edge="1">
                    <mxGeometry relative="1" as="geometry"/>
                </mxCell>
                <mxCell id="RGCeXzoF5Qncfr0WKtpI-50" value="TRUE" style="edgeStyle=orthogonalEdgeStyle;rounded=0;orthogonalLoop=1;jettySize=auto;html=1;entryX=0;entryY=0.5;entryDx=0;entryDy=0;entryPerimeter=0;" parent="Rkq7HFSGh8d1srvJVFgU-1" source="RGCeXzoF5Qncfr0WKtpI-42" target="RGCeXzoF5Qncfr0WKtpI-49" edge="1">
                    <mxGeometry relative="1" as="geometry"/>
                </mxCell>
                <mxCell id="RGCeXzoF5Qncfr0WKtpI-42" value="result.length &amp;gt; 0" style="rhombus;whiteSpace=wrap;html=1;" parent="Rkq7HFSGh8d1srvJVFgU-1" vertex="1">
                    <mxGeometry x="2720" y="1090" width="110" height="110" as="geometry"/>
                </mxCell>
                <mxCell id="RGCeXzoF5Qncfr0WKtpI-62" style="edgeStyle=orthogonalEdgeStyle;rounded=0;orthogonalLoop=1;jettySize=auto;html=1;" parent="Rkq7HFSGh8d1srvJVFgU-1" source="RGCeXzoF5Qncfr0WKtpI-43" target="RGCeXzoF5Qncfr0WKtpI-61" edge="1">
                    <mxGeometry relative="1" as="geometry"/>
                </mxCell>
                <mxCell id="RGCeXzoF5Qncfr0WKtpI-43" value="OUTPUT&lt;br&gt;&quot;Data not found&quot;" style="shape=parallelogram;perimeter=parallelogramPerimeter;whiteSpace=wrap;html=1;fixedSize=1;" parent="Rkq7HFSGh8d1srvJVFgU-1" vertex="1">
                    <mxGeometry x="2715" y="1255" width="120" height="60" as="geometry"/>
                </mxCell>
                <mxCell id="RGCeXzoF5Qncfr0WKtpI-52" style="edgeStyle=orthogonalEdgeStyle;rounded=0;orthogonalLoop=1;jettySize=auto;html=1;" parent="Rkq7HFSGh8d1srvJVFgU-1" source="RGCeXzoF5Qncfr0WKtpI-49" target="RGCeXzoF5Qncfr0WKtpI-51" edge="1">
                    <mxGeometry relative="1" as="geometry"/>
                </mxCell>
                <mxCell id="RGCeXzoF5Qncfr0WKtpI-49" value="DB searchUser" style="shape=cylinder3;whiteSpace=wrap;html=1;boundedLbl=1;backgroundOutline=1;size=15;" parent="Rkq7HFSGh8d1srvJVFgU-1" vertex="1">
                    <mxGeometry x="2939.9999999999995" y="1095" width="70.83" height="100" as="geometry"/>
                </mxCell>
                <mxCell id="RGCeXzoF5Qncfr0WKtpI-54" style="edgeStyle=orthogonalEdgeStyle;rounded=0;orthogonalLoop=1;jettySize=auto;html=1;entryX=0.5;entryY=0;entryDx=0;entryDy=0;" parent="Rkq7HFSGh8d1srvJVFgU-1" source="RGCeXzoF5Qncfr0WKtpI-51" target="RGCeXzoF5Qncfr0WKtpI-53" edge="1">
                    <mxGeometry relative="1" as="geometry"/>
                </mxCell>
                <mxCell id="RGCeXzoF5Qncfr0WKtpI-56" style="edgeStyle=orthogonalEdgeStyle;rounded=0;orthogonalLoop=1;jettySize=auto;html=1;" parent="Rkq7HFSGh8d1srvJVFgU-1" source="RGCeXzoF5Qncfr0WKtpI-51" target="RGCeXzoF5Qncfr0WKtpI-55" edge="1">
                    <mxGeometry relative="1" as="geometry"/>
                </mxCell>
                <mxCell id="RGCeXzoF5Qncfr0WKtpI-51" value="resultS[0].id == id" style="rhombus;whiteSpace=wrap;html=1;" parent="Rkq7HFSGh8d1srvJVFgU-1" vertex="1">
                    <mxGeometry x="2920" y="1230" width="110" height="110" as="geometry"/>
                </mxCell>
                <mxCell id="RGCeXzoF5Qncfr0WKtpI-64" style="edgeStyle=orthogonalEdgeStyle;rounded=0;orthogonalLoop=1;jettySize=auto;html=1;" parent="Rkq7HFSGh8d1srvJVFgU-1" source="RGCeXzoF5Qncfr0WKtpI-53" edge="1">
                    <mxGeometry relative="1" as="geometry">
                        <mxPoint x="2975" y="1510" as="targetPoint"/>
                    </mxGeometry>
                </mxCell>
                <mxCell id="RGCeXzoF5Qncfr0WKtpI-53" value="OUTPUT&lt;br&gt;&quot;Bad request. Cek your id, username, and email &quot;" style="shape=parallelogram;perimeter=parallelogramPerimeter;whiteSpace=wrap;html=1;fixedSize=1;" parent="Rkq7HFSGh8d1srvJVFgU-1" vertex="1">
                    <mxGeometry x="2875" y="1380" width="200" height="60" as="geometry"/>
                </mxCell>
                <mxCell id="RGCeXzoF5Qncfr0WKtpI-58" style="edgeStyle=orthogonalEdgeStyle;rounded=0;orthogonalLoop=1;jettySize=auto;html=1;entryX=0.5;entryY=0;entryDx=0;entryDy=0;" parent="Rkq7HFSGh8d1srvJVFgU-1" source="RGCeXzoF5Qncfr0WKtpI-55" target="RGCeXzoF5Qncfr0WKtpI-57" edge="1">
                    <mxGeometry relative="1" as="geometry"/>
                </mxCell>
                <mxCell id="RGCeXzoF5Qncfr0WKtpI-55" value="DB patchUser" style="shape=cylinder3;whiteSpace=wrap;html=1;boundedLbl=1;backgroundOutline=1;size=15;" parent="Rkq7HFSGh8d1srvJVFgU-1" vertex="1">
                    <mxGeometry x="3184.5899999999997" y="1235" width="70.83" height="100" as="geometry"/>
                </mxCell>
                <mxCell id="RGCeXzoF5Qncfr0WKtpI-60" style="edgeStyle=orthogonalEdgeStyle;rounded=0;orthogonalLoop=1;jettySize=auto;html=1;entryX=0.5;entryY=0;entryDx=0;entryDy=0;" parent="Rkq7HFSGh8d1srvJVFgU-1" source="RGCeXzoF5Qncfr0WKtpI-57" target="RGCeXzoF5Qncfr0WKtpI-59" edge="1">
                    <mxGeometry relative="1" as="geometry"/>
                </mxCell>
                <mxCell id="RGCeXzoF5Qncfr0WKtpI-57" value="OUTPUT&lt;br&gt;&quot;Data has been updated&quot;" style="shape=parallelogram;perimeter=parallelogramPerimeter;whiteSpace=wrap;html=1;fixedSize=1;" parent="Rkq7HFSGh8d1srvJVFgU-1" vertex="1">
                    <mxGeometry x="3140" y="1380" width="160" height="60" as="geometry"/>
                </mxCell>
                <mxCell id="RGCeXzoF5Qncfr0WKtpI-63" style="edgeStyle=orthogonalEdgeStyle;rounded=0;orthogonalLoop=1;jettySize=auto;html=1;entryX=1;entryY=0.5;entryDx=0;entryDy=0;" parent="Rkq7HFSGh8d1srvJVFgU-1" source="RGCeXzoF5Qncfr0WKtpI-59" target="RGCeXzoF5Qncfr0WKtpI-61" edge="1">
                    <mxGeometry relative="1" as="geometry"/>
                </mxCell>
                <mxCell id="RGCeXzoF5Qncfr0WKtpI-59" value="OUTPUT&lt;br&gt;{ id : result[0].id , data }" style="shape=parallelogram;perimeter=parallelogramPerimeter;whiteSpace=wrap;html=1;fixedSize=1;" parent="Rkq7HFSGh8d1srvJVFgU-1" vertex="1">
                    <mxGeometry x="3135" y="1480" width="170" height="60" as="geometry"/>
                </mxCell>
                <mxCell id="RGCeXzoF5Qncfr0WKtpI-61" value="END" style="ellipse;whiteSpace=wrap;html=1;" parent="Rkq7HFSGh8d1srvJVFgU-1" vertex="1">
                    <mxGeometry x="2715" y="1470" width="120" height="80" as="geometry"/>
                </mxCell>
            </root>
        </mxGraphModel>
    </diagram>
    <diagram id="h0lieA6H95uUUSMjlAVS" name="Histories">
        <mxGraphModel dx="-1817" dy="268" grid="1" gridSize="10" guides="1" tooltips="1" connect="1" arrows="1" fold="1" page="1" pageScale="1" pageWidth="850" pageHeight="1100" math="0" shadow="0">
            <root>
                <mxCell id="kaOLbwC_KFo8C5Q2GXRU-0"/>
                <mxCell id="kaOLbwC_KFo8C5Q2GXRU-1" parent="kaOLbwC_KFo8C5Q2GXRU-0"/>
                <mxCell id="kbskRh_g7WbJv3t820in-0" value="&lt;h1&gt;VEHICLE-RENT PROJECT&lt;/h1&gt;" style="text;html=1;align=center;verticalAlign=middle;resizable=0;points=[];autosize=1;strokeColor=none;fillColor=none;" parent="kaOLbwC_KFo8C5Q2GXRU-1" vertex="1">
                    <mxGeometry x="3977.19" y="70" width="310" height="50" as="geometry"/>
                </mxCell>
                <mxCell id="kbskRh_g7WbJv3t820in-1" value="&lt;h2&gt;Flow Chart Histories&lt;/h2&gt;" style="text;html=1;align=center;verticalAlign=middle;resizable=0;points=[];autosize=1;strokeColor=none;fillColor=none;" parent="kaOLbwC_KFo8C5Q2GXRU-1" vertex="1">
                    <mxGeometry x="4037.19" y="120" width="190" height="50" as="geometry"/>
                </mxCell>
                <mxCell id="kbskRh_g7WbJv3t820in-2" value="LIST HISTORIES&lt;br&gt;" style="text;html=1;align=center;verticalAlign=middle;resizable=0;points=[];autosize=1;strokeColor=none;fillColor=none;" parent="kaOLbwC_KFo8C5Q2GXRU-1" vertex="1">
                    <mxGeometry x="2675" y="240" width="110" height="20" as="geometry"/>
                </mxCell>
                <mxCell id="kbskRh_g7WbJv3t820in-7" style="edgeStyle=orthogonalEdgeStyle;rounded=0;orthogonalLoop=1;jettySize=auto;html=1;" parent="kaOLbwC_KFo8C5Q2GXRU-1" source="kbskRh_g7WbJv3t820in-3" target="kbskRh_g7WbJv3t820in-4" edge="1">
                    <mxGeometry relative="1" as="geometry"/>
                </mxCell>
                <mxCell id="kbskRh_g7WbJv3t820in-3" value="START" style="ellipse;whiteSpace=wrap;html=1;" parent="kaOLbwC_KFo8C5Q2GXRU-1" vertex="1">
                    <mxGeometry x="2675" y="300" width="120" height="80" as="geometry"/>
                </mxCell>
                <mxCell id="kbskRh_g7WbJv3t820in-8" style="edgeStyle=orthogonalEdgeStyle;rounded=0;orthogonalLoop=1;jettySize=auto;html=1;" parent="kaOLbwC_KFo8C5Q2GXRU-1" source="kbskRh_g7WbJv3t820in-4" target="kbskRh_g7WbJv3t820in-6" edge="1">
                    <mxGeometry relative="1" as="geometry"/>
                </mxCell>
                <mxCell id="kbskRh_g7WbJv3t820in-4" value="INPUT&lt;br&gt;id" style="shape=parallelogram;perimeter=parallelogramPerimeter;whiteSpace=wrap;html=1;fixedSize=1;" parent="kaOLbwC_KFo8C5Q2GXRU-1" vertex="1">
                    <mxGeometry x="2675" y="420" width="120" height="60" as="geometry"/>
                </mxCell>
                <mxCell id="rXMcMI2Y_g3bOWhIOK7i-1" style="edgeStyle=orthogonalEdgeStyle;rounded=0;orthogonalLoop=1;jettySize=auto;html=1;entryX=0.5;entryY=0;entryDx=0;entryDy=0;entryPerimeter=0;" parent="kaOLbwC_KFo8C5Q2GXRU-1" source="kbskRh_g7WbJv3t820in-6" target="rXMcMI2Y_g3bOWhIOK7i-0" edge="1">
                    <mxGeometry relative="1" as="geometry"/>
                </mxCell>
                <mxCell id="kbskRh_g7WbJv3t820in-6" value="id = id CONVERT TO INT || ''" style="whiteSpace=wrap;html=1;" parent="kaOLbwC_KFo8C5Q2GXRU-1" vertex="1">
                    <mxGeometry x="2675" y="520" width="120" height="60" as="geometry"/>
                </mxCell>
                <mxCell id="xf68_sdHLzDe3iKO5Ngr-1" style="edgeStyle=orthogonalEdgeStyle;rounded=0;orthogonalLoop=1;jettySize=auto;html=1;" parent="kaOLbwC_KFo8C5Q2GXRU-1" source="rXMcMI2Y_g3bOWhIOK7i-0" target="xf68_sdHLzDe3iKO5Ngr-0" edge="1">
                    <mxGeometry relative="1" as="geometry"/>
                </mxCell>
                <mxCell id="rXMcMI2Y_g3bOWhIOK7i-0" value="DB getHistories" style="shape=cylinder3;whiteSpace=wrap;html=1;boundedLbl=1;backgroundOutline=1;size=15;" parent="kaOLbwC_KFo8C5Q2GXRU-1" vertex="1">
                    <mxGeometry x="2699.9999999999995" y="620" width="70.83" height="100" as="geometry"/>
                </mxCell>
                <mxCell id="xf68_sdHLzDe3iKO5Ngr-3" value="FALSE" style="edgeStyle=orthogonalEdgeStyle;rounded=0;orthogonalLoop=1;jettySize=auto;html=1;entryX=0.5;entryY=0;entryDx=0;entryDy=0;" parent="kaOLbwC_KFo8C5Q2GXRU-1" source="xf68_sdHLzDe3iKO5Ngr-0" target="xf68_sdHLzDe3iKO5Ngr-2" edge="1">
                    <mxGeometry relative="1" as="geometry"/>
                </mxCell>
                <mxCell id="xf68_sdHLzDe3iKO5Ngr-8" value="TRUE" style="edgeStyle=orthogonalEdgeStyle;rounded=0;orthogonalLoop=1;jettySize=auto;html=1;entryX=0;entryY=0.5;entryDx=0;entryDy=0;" parent="kaOLbwC_KFo8C5Q2GXRU-1" source="xf68_sdHLzDe3iKO5Ngr-0" target="xf68_sdHLzDe3iKO5Ngr-4" edge="1">
                    <mxGeometry relative="1" as="geometry"/>
                </mxCell>
                <mxCell id="xf68_sdHLzDe3iKO5Ngr-0" value="results.length &amp;gt; 0" style="rhombus;whiteSpace=wrap;html=1;" parent="kaOLbwC_KFo8C5Q2GXRU-1" vertex="1">
                    <mxGeometry x="2680" y="760" width="110" height="110" as="geometry"/>
                </mxCell>
                <mxCell id="xf68_sdHLzDe3iKO5Ngr-10" style="edgeStyle=orthogonalEdgeStyle;rounded=0;orthogonalLoop=1;jettySize=auto;html=1;entryX=0.5;entryY=0;entryDx=0;entryDy=0;" parent="kaOLbwC_KFo8C5Q2GXRU-1" source="xf68_sdHLzDe3iKO5Ngr-2" target="xf68_sdHLzDe3iKO5Ngr-9" edge="1">
                    <mxGeometry relative="1" as="geometry"/>
                </mxCell>
                <mxCell id="xf68_sdHLzDe3iKO5Ngr-2" value="OUTPUT&lt;br&gt;&quot;Data not found&quot;" style="shape=parallelogram;perimeter=parallelogramPerimeter;whiteSpace=wrap;html=1;fixedSize=1;" parent="kaOLbwC_KFo8C5Q2GXRU-1" vertex="1">
                    <mxGeometry x="2675.41" y="910" width="120" height="60" as="geometry"/>
                </mxCell>
                <mxCell id="xf68_sdHLzDe3iKO5Ngr-7" style="edgeStyle=orthogonalEdgeStyle;rounded=0;orthogonalLoop=1;jettySize=auto;html=1;entryX=0.5;entryY=0;entryDx=0;entryDy=0;" parent="kaOLbwC_KFo8C5Q2GXRU-1" source="xf68_sdHLzDe3iKO5Ngr-4" target="xf68_sdHLzDe3iKO5Ngr-6" edge="1">
                    <mxGeometry relative="1" as="geometry"/>
                </mxCell>
                <mxCell id="xf68_sdHLzDe3iKO5Ngr-4" value="OUTPUT&lt;br&gt;&quot;List of histories" style="shape=parallelogram;perimeter=parallelogramPerimeter;whiteSpace=wrap;html=1;fixedSize=1;" parent="kaOLbwC_KFo8C5Q2GXRU-1" vertex="1">
                    <mxGeometry x="2860" y="785" width="120" height="60" as="geometry"/>
                </mxCell>
                <mxCell id="xf68_sdHLzDe3iKO5Ngr-11" style="edgeStyle=orthogonalEdgeStyle;rounded=0;orthogonalLoop=1;jettySize=auto;html=1;entryX=1;entryY=0.5;entryDx=0;entryDy=0;" parent="kaOLbwC_KFo8C5Q2GXRU-1" source="xf68_sdHLzDe3iKO5Ngr-6" target="xf68_sdHLzDe3iKO5Ngr-9" edge="1">
                    <mxGeometry relative="1" as="geometry">
                        <Array as="points">
                            <mxPoint x="2920" y="1050"/>
                        </Array>
                    </mxGeometry>
                </mxCell>
                <mxCell id="xf68_sdHLzDe3iKO5Ngr-6" value="OUTPUT&lt;br&gt;results" style="shape=parallelogram;perimeter=parallelogramPerimeter;whiteSpace=wrap;html=1;fixedSize=1;" parent="kaOLbwC_KFo8C5Q2GXRU-1" vertex="1">
                    <mxGeometry x="2860" y="910" width="120" height="60" as="geometry"/>
                </mxCell>
                <mxCell id="xf68_sdHLzDe3iKO5Ngr-9" value="END" style="ellipse;whiteSpace=wrap;html=1;" parent="kaOLbwC_KFo8C5Q2GXRU-1" vertex="1">
                    <mxGeometry x="2675" y="1010" width="120" height="80" as="geometry"/>
                </mxCell>
                <mxCell id="xf68_sdHLzDe3iKO5Ngr-12" value="DELETE HISTORY" style="text;html=1;align=center;verticalAlign=middle;resizable=0;points=[];autosize=1;strokeColor=none;fillColor=none;" parent="kaOLbwC_KFo8C5Q2GXRU-1" vertex="1">
                    <mxGeometry x="3070" y="240" width="120" height="20" as="geometry"/>
                </mxCell>
                <mxCell id="xf68_sdHLzDe3iKO5Ngr-16" style="edgeStyle=orthogonalEdgeStyle;rounded=0;orthogonalLoop=1;jettySize=auto;html=1;" parent="kaOLbwC_KFo8C5Q2GXRU-1" source="xf68_sdHLzDe3iKO5Ngr-13" target="xf68_sdHLzDe3iKO5Ngr-14" edge="1">
                    <mxGeometry relative="1" as="geometry"/>
                </mxCell>
                <mxCell id="xf68_sdHLzDe3iKO5Ngr-13" value="START" style="ellipse;whiteSpace=wrap;html=1;" parent="kaOLbwC_KFo8C5Q2GXRU-1" vertex="1">
                    <mxGeometry x="3070" y="300" width="120" height="80" as="geometry"/>
                </mxCell>
                <mxCell id="xf68_sdHLzDe3iKO5Ngr-18" style="edgeStyle=orthogonalEdgeStyle;rounded=0;orthogonalLoop=1;jettySize=auto;html=1;entryX=0.5;entryY=0;entryDx=0;entryDy=0;" parent="kaOLbwC_KFo8C5Q2GXRU-1" source="xf68_sdHLzDe3iKO5Ngr-14" target="xf68_sdHLzDe3iKO5Ngr-17" edge="1">
                    <mxGeometry relative="1" as="geometry"/>
                </mxCell>
                <mxCell id="xf68_sdHLzDe3iKO5Ngr-14" value="INPUT&lt;br&gt;id" style="shape=parallelogram;perimeter=parallelogramPerimeter;whiteSpace=wrap;html=1;fixedSize=1;" parent="kaOLbwC_KFo8C5Q2GXRU-1" vertex="1">
                    <mxGeometry x="3070" y="420" width="120" height="60" as="geometry"/>
                </mxCell>
                <mxCell id="xf68_sdHLzDe3iKO5Ngr-21" style="edgeStyle=orthogonalEdgeStyle;rounded=0;orthogonalLoop=1;jettySize=auto;html=1;entryX=0.5;entryY=0;entryDx=0;entryDy=0;" parent="kaOLbwC_KFo8C5Q2GXRU-1" source="xf68_sdHLzDe3iKO5Ngr-15" target="xf68_sdHLzDe3iKO5Ngr-20" edge="1">
                    <mxGeometry relative="1" as="geometry"/>
                </mxCell>
                <mxCell id="xf68_sdHLzDe3iKO5Ngr-15" value="DB getHistory" style="shape=cylinder3;whiteSpace=wrap;html=1;boundedLbl=1;backgroundOutline=1;size=15;" parent="kaOLbwC_KFo8C5Q2GXRU-1" vertex="1">
                    <mxGeometry x="3094.5899999999997" y="620" width="70.83" height="100" as="geometry"/>
                </mxCell>
                <mxCell id="xf68_sdHLzDe3iKO5Ngr-19" style="edgeStyle=orthogonalEdgeStyle;rounded=0;orthogonalLoop=1;jettySize=auto;html=1;entryX=0.5;entryY=0;entryDx=0;entryDy=0;entryPerimeter=0;" parent="kaOLbwC_KFo8C5Q2GXRU-1" source="xf68_sdHLzDe3iKO5Ngr-17" target="xf68_sdHLzDe3iKO5Ngr-15" edge="1">
                    <mxGeometry relative="1" as="geometry"/>
                </mxCell>
                <mxCell id="xf68_sdHLzDe3iKO5Ngr-17" value="id = id CONVERT TO INT || 0" style="rounded=0;whiteSpace=wrap;html=1;" parent="kaOLbwC_KFo8C5Q2GXRU-1" vertex="1">
                    <mxGeometry x="3050" y="520" width="160" height="60" as="geometry"/>
                </mxCell>
                <mxCell id="xf68_sdHLzDe3iKO5Ngr-23" value="FALSE" style="edgeStyle=orthogonalEdgeStyle;rounded=0;orthogonalLoop=1;jettySize=auto;html=1;" parent="kaOLbwC_KFo8C5Q2GXRU-1" source="xf68_sdHLzDe3iKO5Ngr-20" target="xf68_sdHLzDe3iKO5Ngr-22" edge="1">
                    <mxGeometry relative="1" as="geometry"/>
                </mxCell>
                <mxCell id="xf68_sdHLzDe3iKO5Ngr-26" value="TRUE" style="edgeStyle=orthogonalEdgeStyle;rounded=0;orthogonalLoop=1;jettySize=auto;html=1;entryX=0;entryY=0.5;entryDx=0;entryDy=0;entryPerimeter=0;" parent="kaOLbwC_KFo8C5Q2GXRU-1" source="xf68_sdHLzDe3iKO5Ngr-20" target="xf68_sdHLzDe3iKO5Ngr-24" edge="1">
                    <mxGeometry relative="1" as="geometry"/>
                </mxCell>
                <mxCell id="xf68_sdHLzDe3iKO5Ngr-20" value="result.length &amp;gt; 0" style="rhombus;whiteSpace=wrap;html=1;" parent="kaOLbwC_KFo8C5Q2GXRU-1" vertex="1">
                    <mxGeometry x="3075" y="760" width="110" height="110" as="geometry"/>
                </mxCell>
                <mxCell id="xf68_sdHLzDe3iKO5Ngr-32" style="edgeStyle=orthogonalEdgeStyle;rounded=0;orthogonalLoop=1;jettySize=auto;html=1;entryX=0.5;entryY=0;entryDx=0;entryDy=0;" parent="kaOLbwC_KFo8C5Q2GXRU-1" source="xf68_sdHLzDe3iKO5Ngr-22" target="xf68_sdHLzDe3iKO5Ngr-31" edge="1">
                    <mxGeometry relative="1" as="geometry"/>
                </mxCell>
                <mxCell id="xf68_sdHLzDe3iKO5Ngr-22" value="OUTPUT&lt;br&gt;&quot;Data not found&quot;" style="shape=parallelogram;perimeter=parallelogramPerimeter;whiteSpace=wrap;html=1;fixedSize=1;" parent="kaOLbwC_KFo8C5Q2GXRU-1" vertex="1">
                    <mxGeometry x="3070" y="910" width="120" height="60" as="geometry"/>
                </mxCell>
                <mxCell id="xf68_sdHLzDe3iKO5Ngr-28" style="edgeStyle=orthogonalEdgeStyle;rounded=0;orthogonalLoop=1;jettySize=auto;html=1;entryX=0.5;entryY=0;entryDx=0;entryDy=0;" parent="kaOLbwC_KFo8C5Q2GXRU-1" source="xf68_sdHLzDe3iKO5Ngr-24" target="xf68_sdHLzDe3iKO5Ngr-27" edge="1">
                    <mxGeometry relative="1" as="geometry"/>
                </mxCell>
                <mxCell id="xf68_sdHLzDe3iKO5Ngr-24" value="DB deleteHistory" style="shape=cylinder3;whiteSpace=wrap;html=1;boundedLbl=1;backgroundOutline=1;size=15;" parent="kaOLbwC_KFo8C5Q2GXRU-1" vertex="1">
                    <mxGeometry x="3290" y="762.5" width="74.37" height="105" as="geometry"/>
                </mxCell>
                <mxCell id="xf68_sdHLzDe3iKO5Ngr-30" style="edgeStyle=orthogonalEdgeStyle;rounded=0;orthogonalLoop=1;jettySize=auto;html=1;entryX=0.5;entryY=0;entryDx=0;entryDy=0;" parent="kaOLbwC_KFo8C5Q2GXRU-1" source="xf68_sdHLzDe3iKO5Ngr-27" target="xf68_sdHLzDe3iKO5Ngr-29" edge="1">
                    <mxGeometry relative="1" as="geometry"/>
                </mxCell>
                <mxCell id="xf68_sdHLzDe3iKO5Ngr-27" value="OUTPUT&lt;br&gt;&quot;Deleted successfully" style="shape=parallelogram;perimeter=parallelogramPerimeter;whiteSpace=wrap;html=1;fixedSize=1;" parent="kaOLbwC_KFo8C5Q2GXRU-1" vertex="1">
                    <mxGeometry x="3250.7799999999997" y="910" width="152.82" height="60" as="geometry"/>
                </mxCell>
                <mxCell id="xf68_sdHLzDe3iKO5Ngr-33" style="edgeStyle=orthogonalEdgeStyle;rounded=0;orthogonalLoop=1;jettySize=auto;html=1;entryX=1;entryY=0.5;entryDx=0;entryDy=0;" parent="kaOLbwC_KFo8C5Q2GXRU-1" source="xf68_sdHLzDe3iKO5Ngr-29" target="xf68_sdHLzDe3iKO5Ngr-31" edge="1">
                    <mxGeometry relative="1" as="geometry"/>
                </mxCell>
                <mxCell id="xf68_sdHLzDe3iKO5Ngr-29" value="OUTPUT&lt;br&gt;result[0]" style="shape=parallelogram;perimeter=parallelogramPerimeter;whiteSpace=wrap;html=1;fixedSize=1;" parent="kaOLbwC_KFo8C5Q2GXRU-1" vertex="1">
                    <mxGeometry x="3267.19" y="1020" width="120" height="60" as="geometry"/>
                </mxCell>
                <mxCell id="xf68_sdHLzDe3iKO5Ngr-31" value="END" style="ellipse;whiteSpace=wrap;html=1;" parent="kaOLbwC_KFo8C5Q2GXRU-1" vertex="1">
                    <mxGeometry x="3070" y="1010" width="120" height="80" as="geometry"/>
                </mxCell>
                <mxCell id="xf68_sdHLzDe3iKO5Ngr-34" value="INSERT HISTORY" style="text;html=1;align=center;verticalAlign=middle;resizable=0;points=[];autosize=1;strokeColor=none;fillColor=none;" parent="kaOLbwC_KFo8C5Q2GXRU-1" vertex="1">
                    <mxGeometry x="3550" y="240" width="120" height="20" as="geometry"/>
                </mxCell>
                <mxCell id="xf68_sdHLzDe3iKO5Ngr-39" style="edgeStyle=orthogonalEdgeStyle;rounded=0;orthogonalLoop=1;jettySize=auto;html=1;entryX=0.5;entryY=0;entryDx=0;entryDy=0;" parent="kaOLbwC_KFo8C5Q2GXRU-1" source="xf68_sdHLzDe3iKO5Ngr-35" target="xf68_sdHLzDe3iKO5Ngr-36" edge="1">
                    <mxGeometry relative="1" as="geometry"/>
                </mxCell>
                <mxCell id="xf68_sdHLzDe3iKO5Ngr-35" value="START" style="ellipse;whiteSpace=wrap;html=1;" parent="kaOLbwC_KFo8C5Q2GXRU-1" vertex="1">
                    <mxGeometry x="3550" y="300" width="120" height="80" as="geometry"/>
                </mxCell>
                <mxCell id="xf68_sdHLzDe3iKO5Ngr-40" style="edgeStyle=orthogonalEdgeStyle;rounded=0;orthogonalLoop=1;jettySize=auto;html=1;" parent="kaOLbwC_KFo8C5Q2GXRU-1" source="xf68_sdHLzDe3iKO5Ngr-36" target="xf68_sdHLzDe3iKO5Ngr-38" edge="1">
                    <mxGeometry relative="1" as="geometry"/>
                </mxCell>
                <mxCell id="xf68_sdHLzDe3iKO5Ngr-36" value="INPUT&lt;br&gt;rentStartDate,&lt;br&gt;rentEndDate,&lt;br&gt;prepayment" style="shape=parallelogram;perimeter=parallelogramPerimeter;whiteSpace=wrap;html=1;fixedSize=1;" parent="kaOLbwC_KFo8C5Q2GXRU-1" vertex="1">
                    <mxGeometry x="3535" y="420" width="150" height="60" as="geometry"/>
                </mxCell>
                <mxCell id="xf68_sdHLzDe3iKO5Ngr-42" style="edgeStyle=orthogonalEdgeStyle;rounded=0;orthogonalLoop=1;jettySize=auto;html=1;" parent="kaOLbwC_KFo8C5Q2GXRU-1" source="xf68_sdHLzDe3iKO5Ngr-38" target="xf68_sdHLzDe3iKO5Ngr-41" edge="1">
                    <mxGeometry relative="1" as="geometry"/>
                </mxCell>
                <mxCell id="xf68_sdHLzDe3iKO5Ngr-38" value="INPUT&lt;br&gt;userId,&lt;br&gt;vehicleId,&lt;br&gt;quantity" style="shape=parallelogram;perimeter=parallelogramPerimeter;whiteSpace=wrap;html=1;fixedSize=1;" parent="kaOLbwC_KFo8C5Q2GXRU-1" vertex="1">
                    <mxGeometry x="3535" y="530" width="150" height="60" as="geometry"/>
                </mxCell>
                <mxCell id="xf68_sdHLzDe3iKO5Ngr-45" style="edgeStyle=orthogonalEdgeStyle;rounded=0;orthogonalLoop=1;jettySize=auto;html=1;" parent="kaOLbwC_KFo8C5Q2GXRU-1" source="xf68_sdHLzDe3iKO5Ngr-41" target="xf68_sdHLzDe3iKO5Ngr-44" edge="1">
                    <mxGeometry relative="1" as="geometry"/>
                </mxCell>
                <mxCell id="xf68_sdHLzDe3iKO5Ngr-41" value="data = { rentStartDate, rentEndDate, prepayment, userId, vehicleId, quantity }" style="rounded=0;whiteSpace=wrap;html=1;" parent="kaOLbwC_KFo8C5Q2GXRU-1" vertex="1">
                    <mxGeometry x="3490" y="640" width="240" height="60" as="geometry"/>
                </mxCell>
                <mxCell id="xf68_sdHLzDe3iKO5Ngr-48" style="edgeStyle=orthogonalEdgeStyle;rounded=0;orthogonalLoop=1;jettySize=auto;html=1;" parent="kaOLbwC_KFo8C5Q2GXRU-1" source="xf68_sdHLzDe3iKO5Ngr-44" target="xf68_sdHLzDe3iKO5Ngr-46" edge="1">
                    <mxGeometry relative="1" as="geometry"/>
                </mxCell>
                <mxCell id="xf68_sdHLzDe3iKO5Ngr-44" value="DB getUser" style="shape=cylinder3;whiteSpace=wrap;html=1;boundedLbl=1;backgroundOutline=1;size=15;" parent="kaOLbwC_KFo8C5Q2GXRU-1" vertex="1">
                    <mxGeometry x="3581.4100000000003" y="750" width="57.18" height="100" as="geometry"/>
                </mxCell>
                <mxCell id="xf68_sdHLzDe3iKO5Ngr-49" value="FALSE" style="edgeStyle=orthogonalEdgeStyle;rounded=0;orthogonalLoop=1;jettySize=auto;html=1;" parent="kaOLbwC_KFo8C5Q2GXRU-1" source="xf68_sdHLzDe3iKO5Ngr-46" target="xf68_sdHLzDe3iKO5Ngr-47" edge="1">
                    <mxGeometry relative="1" as="geometry"/>
                </mxCell>
                <mxCell id="xf68_sdHLzDe3iKO5Ngr-51" value="TRUE" style="edgeStyle=orthogonalEdgeStyle;rounded=0;orthogonalLoop=1;jettySize=auto;html=1;" parent="kaOLbwC_KFo8C5Q2GXRU-1" source="xf68_sdHLzDe3iKO5Ngr-46" target="xf68_sdHLzDe3iKO5Ngr-50" edge="1">
                    <mxGeometry relative="1" as="geometry"/>
                </mxCell>
                <mxCell id="xf68_sdHLzDe3iKO5Ngr-46" value="resultU.length &amp;gt; 0" style="rhombus;whiteSpace=wrap;html=1;" parent="kaOLbwC_KFo8C5Q2GXRU-1" vertex="1">
                    <mxGeometry x="3555" y="890" width="110" height="110" as="geometry"/>
                </mxCell>
                <mxCell id="xf68_sdHLzDe3iKO5Ngr-78" style="edgeStyle=orthogonalEdgeStyle;rounded=0;orthogonalLoop=1;jettySize=auto;html=1;entryX=0;entryY=0.5;entryDx=0;entryDy=0;" parent="kaOLbwC_KFo8C5Q2GXRU-1" source="xf68_sdHLzDe3iKO5Ngr-47" target="xf68_sdHLzDe3iKO5Ngr-76" edge="1">
                    <mxGeometry relative="1" as="geometry">
                        <Array as="points">
                            <mxPoint x="3600" y="1540"/>
                        </Array>
                    </mxGeometry>
                </mxCell>
                <mxCell id="xf68_sdHLzDe3iKO5Ngr-47" value="OUTPUT&lt;br&gt;&quot;Data userId not found&quot;" style="shape=parallelogram;perimeter=parallelogramPerimeter;whiteSpace=wrap;html=1;fixedSize=1;" parent="kaOLbwC_KFo8C5Q2GXRU-1" vertex="1">
                    <mxGeometry x="3535" y="1065" width="150" height="60" as="geometry"/>
                </mxCell>
                <mxCell id="xf68_sdHLzDe3iKO5Ngr-53" style="edgeStyle=orthogonalEdgeStyle;rounded=0;orthogonalLoop=1;jettySize=auto;html=1;" parent="kaOLbwC_KFo8C5Q2GXRU-1" source="xf68_sdHLzDe3iKO5Ngr-50" target="xf68_sdHLzDe3iKO5Ngr-52" edge="1">
                    <mxGeometry relative="1" as="geometry"/>
                </mxCell>
                <mxCell id="xf68_sdHLzDe3iKO5Ngr-50" value="DB getVehicle" style="shape=cylinder3;whiteSpace=wrap;html=1;boundedLbl=1;backgroundOutline=1;size=15;" parent="kaOLbwC_KFo8C5Q2GXRU-1" vertex="1">
                    <mxGeometry x="3770" y="892.5" width="74.37" height="105" as="geometry"/>
                </mxCell>
                <mxCell id="xf68_sdHLzDe3iKO5Ngr-55" value="FALSE" style="edgeStyle=orthogonalEdgeStyle;rounded=0;orthogonalLoop=1;jettySize=auto;html=1;entryX=0.5;entryY=0;entryDx=0;entryDy=0;" parent="kaOLbwC_KFo8C5Q2GXRU-1" source="xf68_sdHLzDe3iKO5Ngr-52" target="xf68_sdHLzDe3iKO5Ngr-54" edge="1">
                    <mxGeometry relative="1" as="geometry"/>
                </mxCell>
                <mxCell id="xf68_sdHLzDe3iKO5Ngr-60" value="TRUE" style="edgeStyle=orthogonalEdgeStyle;rounded=0;orthogonalLoop=1;jettySize=auto;html=1;entryX=0;entryY=0.5;entryDx=0;entryDy=0;" parent="kaOLbwC_KFo8C5Q2GXRU-1" source="xf68_sdHLzDe3iKO5Ngr-52" target="xf68_sdHLzDe3iKO5Ngr-59" edge="1">
                    <mxGeometry relative="1" as="geometry"/>
                </mxCell>
                <mxCell id="xf68_sdHLzDe3iKO5Ngr-52" value="resultV.length &amp;gt; 0" style="rhombus;whiteSpace=wrap;html=1;" parent="kaOLbwC_KFo8C5Q2GXRU-1" vertex="1">
                    <mxGeometry x="3752.18" y="1040" width="110" height="110" as="geometry"/>
                </mxCell>
                <mxCell id="xf68_sdHLzDe3iKO5Ngr-79" style="edgeStyle=orthogonalEdgeStyle;rounded=0;orthogonalLoop=1;jettySize=auto;html=1;" parent="kaOLbwC_KFo8C5Q2GXRU-1" source="xf68_sdHLzDe3iKO5Ngr-54" edge="1">
                    <mxGeometry relative="1" as="geometry">
                        <mxPoint x="3807.1800000000003" y="1540" as="targetPoint"/>
                    </mxGeometry>
                </mxCell>
                <mxCell id="xf68_sdHLzDe3iKO5Ngr-54" value="OUTPUT&lt;br&gt;&quot;Data vehicleId not found&quot;" style="shape=parallelogram;perimeter=parallelogramPerimeter;whiteSpace=wrap;html=1;fixedSize=1;" parent="kaOLbwC_KFo8C5Q2GXRU-1" vertex="1">
                    <mxGeometry x="3738.59" y="1230" width="137.18" height="60" as="geometry"/>
                </mxCell>
                <mxCell id="xf68_sdHLzDe3iKO5Ngr-63" value="FALSE" style="edgeStyle=orthogonalEdgeStyle;rounded=0;orthogonalLoop=1;jettySize=auto;html=1;entryX=0.5;entryY=0;entryDx=0;entryDy=0;" parent="kaOLbwC_KFo8C5Q2GXRU-1" source="xf68_sdHLzDe3iKO5Ngr-59" target="xf68_sdHLzDe3iKO5Ngr-62" edge="1">
                    <mxGeometry relative="1" as="geometry"/>
                </mxCell>
                <mxCell id="xf68_sdHLzDe3iKO5Ngr-69" value="TRUE" style="edgeStyle=orthogonalEdgeStyle;rounded=0;orthogonalLoop=1;jettySize=auto;html=1;entryX=0;entryY=0.5;entryDx=0;entryDy=0;entryPerimeter=0;" parent="kaOLbwC_KFo8C5Q2GXRU-1" source="xf68_sdHLzDe3iKO5Ngr-59" target="xf68_sdHLzDe3iKO5Ngr-68" edge="1">
                    <mxGeometry relative="1" as="geometry"/>
                </mxCell>
                <mxCell id="xf68_sdHLzDe3iKO5Ngr-59" value="data.quantity &amp;lt;= resultV[0].stock" style="rhombus;whiteSpace=wrap;html=1;" parent="kaOLbwC_KFo8C5Q2GXRU-1" vertex="1">
                    <mxGeometry x="3970" y="1035" width="120" height="120" as="geometry"/>
                </mxCell>
                <mxCell id="xf68_sdHLzDe3iKO5Ngr-66" value="FALSE" style="edgeStyle=orthogonalEdgeStyle;rounded=0;orthogonalLoop=1;jettySize=auto;html=1;entryX=0.5;entryY=0;entryDx=0;entryDy=0;" parent="kaOLbwC_KFo8C5Q2GXRU-1" source="xf68_sdHLzDe3iKO5Ngr-62" target="xf68_sdHLzDe3iKO5Ngr-65" edge="1">
                    <mxGeometry relative="1" as="geometry"/>
                </mxCell>
                <mxCell id="xf68_sdHLzDe3iKO5Ngr-71" value="TRUE" style="edgeStyle=orthogonalEdgeStyle;rounded=0;orthogonalLoop=1;jettySize=auto;html=1;entryX=0;entryY=0.5;entryDx=0;entryDy=0;" parent="kaOLbwC_KFo8C5Q2GXRU-1" source="xf68_sdHLzDe3iKO5Ngr-62" target="xf68_sdHLzDe3iKO5Ngr-70" edge="1">
                    <mxGeometry relative="1" as="geometry"/>
                </mxCell>
                <mxCell id="xf68_sdHLzDe3iKO5Ngr-62" value="resultV[0].stock &amp;gt; 0" style="rhombus;whiteSpace=wrap;html=1;" parent="kaOLbwC_KFo8C5Q2GXRU-1" vertex="1">
                    <mxGeometry x="3970" y="1200" width="120" height="120" as="geometry"/>
                </mxCell>
                <mxCell id="xf68_sdHLzDe3iKO5Ngr-77" style="edgeStyle=orthogonalEdgeStyle;rounded=0;orthogonalLoop=1;jettySize=auto;html=1;entryX=0.5;entryY=0;entryDx=0;entryDy=0;" parent="kaOLbwC_KFo8C5Q2GXRU-1" source="xf68_sdHLzDe3iKO5Ngr-65" target="xf68_sdHLzDe3iKO5Ngr-76" edge="1">
                    <mxGeometry relative="1" as="geometry"/>
                </mxCell>
                <mxCell id="xf68_sdHLzDe3iKO5Ngr-65" value="OUTPUT&lt;br&gt;&quot;Vehicle full booked&quot;" style="shape=parallelogram;perimeter=parallelogramPerimeter;whiteSpace=wrap;html=1;fixedSize=1;" parent="kaOLbwC_KFo8C5Q2GXRU-1" vertex="1">
                    <mxGeometry x="3950" y="1370" width="160" height="60" as="geometry"/>
                </mxCell>
                <mxCell id="xf68_sdHLzDe3iKO5Ngr-73" style="edgeStyle=orthogonalEdgeStyle;rounded=0;orthogonalLoop=1;jettySize=auto;html=1;entryX=0;entryY=0.5;entryDx=0;entryDy=0;" parent="kaOLbwC_KFo8C5Q2GXRU-1" source="xf68_sdHLzDe3iKO5Ngr-68" target="xf68_sdHLzDe3iKO5Ngr-72" edge="1">
                    <mxGeometry relative="1" as="geometry">
                        <mxPoint x="4340" y="1095" as="targetPoint"/>
                    </mxGeometry>
                </mxCell>
                <mxCell id="xf68_sdHLzDe3iKO5Ngr-68" value="DB postHistory" style="shape=cylinder3;whiteSpace=wrap;html=1;boundedLbl=1;backgroundOutline=1;size=15;" parent="kaOLbwC_KFo8C5Q2GXRU-1" vertex="1">
                    <mxGeometry x="4212.82" y="1042.5" width="74.37" height="105" as="geometry"/>
                </mxCell>
                <mxCell id="xf68_sdHLzDe3iKO5Ngr-82" style="edgeStyle=orthogonalEdgeStyle;rounded=0;orthogonalLoop=1;jettySize=auto;html=1;" parent="kaOLbwC_KFo8C5Q2GXRU-1" source="xf68_sdHLzDe3iKO5Ngr-70" edge="1">
                    <mxGeometry relative="1" as="geometry">
                        <mxPoint x="4250" y="1540" as="targetPoint"/>
                    </mxGeometry>
                </mxCell>
                <mxCell id="xf68_sdHLzDe3iKO5Ngr-70" value="OUTPUT&lt;br&gt;&quot;Sorry our stock just&quot; + resultV[0].stock + &quot;left&quot;" style="shape=parallelogram;perimeter=parallelogramPerimeter;whiteSpace=wrap;html=1;fixedSize=1;" parent="kaOLbwC_KFo8C5Q2GXRU-1" vertex="1">
                    <mxGeometry x="4160" y="1230" width="180" height="60" as="geometry"/>
                </mxCell>
                <mxCell id="xf68_sdHLzDe3iKO5Ngr-75" style="edgeStyle=orthogonalEdgeStyle;rounded=0;orthogonalLoop=1;jettySize=auto;html=1;entryX=0.5;entryY=0;entryDx=0;entryDy=0;" parent="kaOLbwC_KFo8C5Q2GXRU-1" source="xf68_sdHLzDe3iKO5Ngr-72" target="xf68_sdHLzDe3iKO5Ngr-74" edge="1">
                    <mxGeometry relative="1" as="geometry"/>
                </mxCell>
                <mxCell id="xf68_sdHLzDe3iKO5Ngr-72" value="OUTPUT&lt;br&gt;&quot;insert history successfully&quot;" style="shape=parallelogram;perimeter=parallelogramPerimeter;whiteSpace=wrap;html=1;fixedSize=1;" parent="kaOLbwC_KFo8C5Q2GXRU-1" vertex="1">
                    <mxGeometry x="4380" y="1065" width="190" height="60" as="geometry"/>
                </mxCell>
                <mxCell id="xf68_sdHLzDe3iKO5Ngr-81" style="edgeStyle=orthogonalEdgeStyle;rounded=0;orthogonalLoop=1;jettySize=auto;html=1;entryX=1;entryY=0.5;entryDx=0;entryDy=0;" parent="kaOLbwC_KFo8C5Q2GXRU-1" source="xf68_sdHLzDe3iKO5Ngr-74" target="xf68_sdHLzDe3iKO5Ngr-76" edge="1">
                    <mxGeometry relative="1" as="geometry">
                        <mxPoint x="4250" y="1540" as="targetPoint"/>
                        <Array as="points">
                            <mxPoint x="4475" y="1540"/>
                        </Array>
                    </mxGeometry>
                </mxCell>
                <mxCell id="xf68_sdHLzDe3iKO5Ngr-74" value="OUTPUT&lt;br&gt;{ id : results.insertId, data }" style="shape=parallelogram;perimeter=parallelogramPerimeter;whiteSpace=wrap;html=1;fixedSize=1;" parent="kaOLbwC_KFo8C5Q2GXRU-1" vertex="1">
                    <mxGeometry x="4385" y="1230" width="180" height="60" as="geometry"/>
                </mxCell>
                <mxCell id="xf68_sdHLzDe3iKO5Ngr-76" value="END" style="ellipse;whiteSpace=wrap;html=1;" parent="kaOLbwC_KFo8C5Q2GXRU-1" vertex="1">
                    <mxGeometry x="3970" y="1500" width="120" height="80" as="geometry"/>
                </mxCell>
                <mxCell id="xf68_sdHLzDe3iKO5Ngr-83" value="PATCH HISTORY" style="text;html=1;align=center;verticalAlign=middle;resizable=0;points=[];autosize=1;strokeColor=none;fillColor=none;" parent="kaOLbwC_KFo8C5Q2GXRU-1" vertex="1">
                    <mxGeometry x="4885" y="260" width="110" height="20" as="geometry"/>
                </mxCell>
                <mxCell id="xf68_sdHLzDe3iKO5Ngr-86" style="edgeStyle=orthogonalEdgeStyle;rounded=0;orthogonalLoop=1;jettySize=auto;html=1;entryX=0.5;entryY=0;entryDx=0;entryDy=0;" parent="kaOLbwC_KFo8C5Q2GXRU-1" source="xf68_sdHLzDe3iKO5Ngr-84" target="xf68_sdHLzDe3iKO5Ngr-85" edge="1">
                    <mxGeometry relative="1" as="geometry"/>
                </mxCell>
                <mxCell id="xf68_sdHLzDe3iKO5Ngr-84" value="START" style="ellipse;whiteSpace=wrap;html=1;" parent="kaOLbwC_KFo8C5Q2GXRU-1" vertex="1">
                    <mxGeometry x="4880" y="340" width="120" height="80" as="geometry"/>
                </mxCell>
                <mxCell id="xf68_sdHLzDe3iKO5Ngr-88" style="edgeStyle=orthogonalEdgeStyle;rounded=0;orthogonalLoop=1;jettySize=auto;html=1;" parent="kaOLbwC_KFo8C5Q2GXRU-1" source="xf68_sdHLzDe3iKO5Ngr-85" target="xf68_sdHLzDe3iKO5Ngr-87" edge="1">
                    <mxGeometry relative="1" as="geometry"/>
                </mxCell>
                <mxCell id="xf68_sdHLzDe3iKO5Ngr-85" value="INPUT&lt;br&gt;id,&lt;br&gt;quantity" style="shape=parallelogram;perimeter=parallelogramPerimeter;whiteSpace=wrap;html=1;fixedSize=1;" parent="kaOLbwC_KFo8C5Q2GXRU-1" vertex="1">
                    <mxGeometry x="4880" y="470" width="120" height="60" as="geometry"/>
                </mxCell>
                <mxCell id="xf68_sdHLzDe3iKO5Ngr-93" style="edgeStyle=orthogonalEdgeStyle;rounded=0;orthogonalLoop=1;jettySize=auto;html=1;entryX=0.5;entryY=0;entryDx=0;entryDy=0;" parent="kaOLbwC_KFo8C5Q2GXRU-1" source="xf68_sdHLzDe3iKO5Ngr-87" target="xf68_sdHLzDe3iKO5Ngr-89" edge="1">
                    <mxGeometry relative="1" as="geometry"/>
                </mxCell>
                <mxCell id="xf68_sdHLzDe3iKO5Ngr-87" value="id = id CONVERT TO INT || 0" style="rounded=0;whiteSpace=wrap;html=1;" parent="kaOLbwC_KFo8C5Q2GXRU-1" vertex="1">
                    <mxGeometry x="4880" y="580" width="120" height="60" as="geometry"/>
                </mxCell>
                <mxCell id="xf68_sdHLzDe3iKO5Ngr-92" style="edgeStyle=orthogonalEdgeStyle;rounded=0;orthogonalLoop=1;jettySize=auto;html=1;entryX=0.5;entryY=0;entryDx=0;entryDy=0;entryPerimeter=0;" parent="kaOLbwC_KFo8C5Q2GXRU-1" source="xf68_sdHLzDe3iKO5Ngr-89" target="xf68_sdHLzDe3iKO5Ngr-91" edge="1">
                    <mxGeometry relative="1" as="geometry"/>
                </mxCell>
                <mxCell id="xf68_sdHLzDe3iKO5Ngr-89" value="data = { id, quantity }" style="rounded=0;whiteSpace=wrap;html=1;" parent="kaOLbwC_KFo8C5Q2GXRU-1" vertex="1">
                    <mxGeometry x="4880" y="680" width="120" height="60" as="geometry"/>
                </mxCell>
                <mxCell id="xf68_sdHLzDe3iKO5Ngr-95" style="edgeStyle=orthogonalEdgeStyle;rounded=0;orthogonalLoop=1;jettySize=auto;html=1;entryX=0.5;entryY=0;entryDx=0;entryDy=0;" parent="kaOLbwC_KFo8C5Q2GXRU-1" source="xf68_sdHLzDe3iKO5Ngr-91" target="xf68_sdHLzDe3iKO5Ngr-94" edge="1">
                    <mxGeometry relative="1" as="geometry"/>
                </mxCell>
                <mxCell id="xf68_sdHLzDe3iKO5Ngr-91" value="DB getHistory" style="shape=cylinder3;whiteSpace=wrap;html=1;boundedLbl=1;backgroundOutline=1;size=15;" parent="kaOLbwC_KFo8C5Q2GXRU-1" vertex="1">
                    <mxGeometry x="4902.82" y="785" width="74.37" height="105" as="geometry"/>
                </mxCell>
                <mxCell id="xf68_sdHLzDe3iKO5Ngr-97" value="FALSE" style="edgeStyle=orthogonalEdgeStyle;rounded=0;orthogonalLoop=1;jettySize=auto;html=1;entryX=0.5;entryY=0;entryDx=0;entryDy=0;" parent="kaOLbwC_KFo8C5Q2GXRU-1" source="xf68_sdHLzDe3iKO5Ngr-94" target="xf68_sdHLzDe3iKO5Ngr-96" edge="1">
                    <mxGeometry relative="1" as="geometry"/>
                </mxCell>
                <mxCell id="xf68_sdHLzDe3iKO5Ngr-100" value="TRUE" style="edgeStyle=orthogonalEdgeStyle;rounded=0;orthogonalLoop=1;jettySize=auto;html=1;entryX=0;entryY=0.5;entryDx=0;entryDy=0;" parent="kaOLbwC_KFo8C5Q2GXRU-1" source="xf68_sdHLzDe3iKO5Ngr-94" target="xf68_sdHLzDe3iKO5Ngr-99" edge="1">
                    <mxGeometry relative="1" as="geometry"/>
                </mxCell>
                <mxCell id="xf68_sdHLzDe3iKO5Ngr-94" value="result.length &amp;gt; 0" style="rhombus;whiteSpace=wrap;html=1;" parent="kaOLbwC_KFo8C5Q2GXRU-1" vertex="1">
                    <mxGeometry x="4880" y="940" width="120" height="120" as="geometry"/>
                </mxCell>
                <mxCell id="xf68_sdHLzDe3iKO5Ngr-109" style="edgeStyle=orthogonalEdgeStyle;rounded=0;orthogonalLoop=1;jettySize=auto;html=1;" parent="kaOLbwC_KFo8C5Q2GXRU-1" source="xf68_sdHLzDe3iKO5Ngr-96" target="xf68_sdHLzDe3iKO5Ngr-108" edge="1">
                    <mxGeometry relative="1" as="geometry"/>
                </mxCell>
                <mxCell id="xf68_sdHLzDe3iKO5Ngr-96" value="OUTPUT&lt;br&gt;&quot;Data not found&quot;" style="shape=parallelogram;perimeter=parallelogramPerimeter;whiteSpace=wrap;html=1;fixedSize=1;" parent="kaOLbwC_KFo8C5Q2GXRU-1" vertex="1">
                    <mxGeometry x="4880" y="1110" width="120" height="60" as="geometry"/>
                </mxCell>
                <mxCell id="xf68_sdHLzDe3iKO5Ngr-102" value="FALSE" style="edgeStyle=orthogonalEdgeStyle;rounded=0;orthogonalLoop=1;jettySize=auto;html=1;entryX=0.5;entryY=0;entryDx=0;entryDy=0;" parent="kaOLbwC_KFo8C5Q2GXRU-1" source="xf68_sdHLzDe3iKO5Ngr-99" target="xf68_sdHLzDe3iKO5Ngr-101" edge="1">
                    <mxGeometry relative="1" as="geometry"/>
                </mxCell>
                <mxCell id="xf68_sdHLzDe3iKO5Ngr-105" value="TRUE" style="edgeStyle=orthogonalEdgeStyle;rounded=0;orthogonalLoop=1;jettySize=auto;html=1;entryX=0;entryY=0.5;entryDx=0;entryDy=0;entryPerimeter=0;" parent="kaOLbwC_KFo8C5Q2GXRU-1" source="xf68_sdHLzDe3iKO5Ngr-99" target="xf68_sdHLzDe3iKO5Ngr-104" edge="1">
                    <mxGeometry relative="1" as="geometry"/>
                </mxCell>
                <mxCell id="xf68_sdHLzDe3iKO5Ngr-99" value="result[0].quantity &amp;gt; data.quantity" style="rhombus;whiteSpace=wrap;html=1;" parent="kaOLbwC_KFo8C5Q2GXRU-1" vertex="1">
                    <mxGeometry x="5080" y="940" width="120" height="120" as="geometry"/>
                </mxCell>
                <mxCell id="xf68_sdHLzDe3iKO5Ngr-112" style="edgeStyle=orthogonalEdgeStyle;rounded=0;orthogonalLoop=1;jettySize=auto;html=1;" parent="kaOLbwC_KFo8C5Q2GXRU-1" source="xf68_sdHLzDe3iKO5Ngr-101" edge="1">
                    <mxGeometry relative="1" as="geometry">
                        <mxPoint x="5140" y="1260" as="targetPoint"/>
                    </mxGeometry>
                </mxCell>
                <mxCell id="xf68_sdHLzDe3iKO5Ngr-101" value="OUTPUT&lt;br&gt;&quot;You prohibited update your data. Bad request." style="shape=parallelogram;perimeter=parallelogramPerimeter;whiteSpace=wrap;html=1;fixedSize=1;" parent="kaOLbwC_KFo8C5Q2GXRU-1" vertex="1">
                    <mxGeometry x="5050" y="1110" width="180" height="60" as="geometry"/>
                </mxCell>
                <mxCell id="xf68_sdHLzDe3iKO5Ngr-107" style="edgeStyle=orthogonalEdgeStyle;rounded=0;orthogonalLoop=1;jettySize=auto;html=1;entryX=0.5;entryY=0;entryDx=0;entryDy=0;" parent="kaOLbwC_KFo8C5Q2GXRU-1" source="xf68_sdHLzDe3iKO5Ngr-104" target="xf68_sdHLzDe3iKO5Ngr-106" edge="1">
                    <mxGeometry relative="1" as="geometry"/>
                </mxCell>
                <mxCell id="xf68_sdHLzDe3iKO5Ngr-104" value="DB patchHistory" style="shape=cylinder3;whiteSpace=wrap;html=1;boundedLbl=1;backgroundOutline=1;size=15;" parent="kaOLbwC_KFo8C5Q2GXRU-1" vertex="1">
                    <mxGeometry x="5310" y="947.5" width="74.37" height="105" as="geometry"/>
                </mxCell>
                <mxCell id="xf68_sdHLzDe3iKO5Ngr-111" style="edgeStyle=orthogonalEdgeStyle;rounded=0;orthogonalLoop=1;jettySize=auto;html=1;entryX=1;entryY=0.5;entryDx=0;entryDy=0;" parent="kaOLbwC_KFo8C5Q2GXRU-1" source="xf68_sdHLzDe3iKO5Ngr-106" target="xf68_sdHLzDe3iKO5Ngr-108" edge="1">
                    <mxGeometry relative="1" as="geometry">
                        <Array as="points">
                            <mxPoint x="5347" y="1260"/>
                        </Array>
                    </mxGeometry>
                </mxCell>
                <mxCell id="xf68_sdHLzDe3iKO5Ngr-106" value="OUTPUT&lt;br&gt;&quot;Updated successfully&quot;" style="shape=parallelogram;perimeter=parallelogramPerimeter;whiteSpace=wrap;html=1;fixedSize=1;" parent="kaOLbwC_KFo8C5Q2GXRU-1" vertex="1">
                    <mxGeometry x="5275.77" y="1110" width="142.82" height="60" as="geometry"/>
                </mxCell>
                <mxCell id="xf68_sdHLzDe3iKO5Ngr-108" value="END" style="ellipse;whiteSpace=wrap;html=1;" parent="kaOLbwC_KFo8C5Q2GXRU-1" vertex="1">
                    <mxGeometry x="4880" y="1220" width="120" height="80" as="geometry"/>
                </mxCell>
            </root>
        </mxGraphModel>
    </diagram>
    <diagram id="bzqVUvRE7l4rKwM7XrPJ" name="Profile">
        <mxGraphModel dx="-2160" dy="689" grid="1" gridSize="10" guides="1" tooltips="1" connect="1" arrows="1" fold="1" page="1" pageScale="1" pageWidth="850" pageHeight="1100" math="0" shadow="0">
            <root>
                <mxCell id="dFCv3RJrrJdu5bY9L4S5-0"/>
                <mxCell id="dFCv3RJrrJdu5bY9L4S5-1" parent="dFCv3RJrrJdu5bY9L4S5-0"/>
                <mxCell id="Yq1JWbApXSOafyHNQVJs-1" value="&lt;h1&gt;VEHICLE-RENT PROJECT&lt;/h1&gt;" style="text;html=1;align=center;verticalAlign=middle;resizable=0;points=[];autosize=1;strokeColor=none;fillColor=none;" vertex="1" parent="dFCv3RJrrJdu5bY9L4S5-1">
                    <mxGeometry x="3670" y="20" width="310" height="50" as="geometry"/>
                </mxCell>
                <mxCell id="Yq1JWbApXSOafyHNQVJs-2" value="&lt;h2&gt;Flow Chart Profile&lt;/h2&gt;" style="text;html=1;align=center;verticalAlign=middle;resizable=0;points=[];autosize=1;strokeColor=none;fillColor=none;" vertex="1" parent="dFCv3RJrrJdu5bY9L4S5-1">
                    <mxGeometry x="3740" y="90" width="170" height="50" as="geometry"/>
                </mxCell>
                <mxCell id="Yq1JWbApXSOafyHNQVJs-6" style="edgeStyle=orthogonalEdgeStyle;rounded=0;orthogonalLoop=1;jettySize=auto;html=1;entryX=0.5;entryY=0;entryDx=0;entryDy=0;" edge="1" parent="dFCv3RJrrJdu5bY9L4S5-1" source="Yq1JWbApXSOafyHNQVJs-3" target="Yq1JWbApXSOafyHNQVJs-4">
                    <mxGeometry relative="1" as="geometry"/>
                </mxCell>
                <mxCell id="Yq1JWbApXSOafyHNQVJs-3" value="START" style="ellipse;whiteSpace=wrap;html=1;" vertex="1" parent="dFCv3RJrrJdu5bY9L4S5-1">
                    <mxGeometry x="3765" y="200" width="120" height="80" as="geometry"/>
                </mxCell>
                <mxCell id="Yq1JWbApXSOafyHNQVJs-7" style="edgeStyle=orthogonalEdgeStyle;rounded=0;orthogonalLoop=1;jettySize=auto;html=1;entryX=0.5;entryY=0;entryDx=0;entryDy=0;" edge="1" parent="dFCv3RJrrJdu5bY9L4S5-1" source="Yq1JWbApXSOafyHNQVJs-4" target="Yq1JWbApXSOafyHNQVJs-5">
                    <mxGeometry relative="1" as="geometry"/>
                </mxCell>
                <mxCell id="Yq1JWbApXSOafyHNQVJs-4" value="INPUT&lt;br&gt;id" style="shape=parallelogram;perimeter=parallelogramPerimeter;whiteSpace=wrap;html=1;fixedSize=1;" vertex="1" parent="dFCv3RJrrJdu5bY9L4S5-1">
                    <mxGeometry x="3765" y="320" width="120" height="60" as="geometry"/>
                </mxCell>
                <mxCell id="peRHqmdRuMiEI_AgVE1b-1" style="edgeStyle=orthogonalEdgeStyle;rounded=0;orthogonalLoop=1;jettySize=auto;html=1;entryX=0.5;entryY=0;entryDx=0;entryDy=0;entryPerimeter=0;" edge="1" parent="dFCv3RJrrJdu5bY9L4S5-1" source="Yq1JWbApXSOafyHNQVJs-5" target="4hBY0cIpGjp3UTPPBreh-0">
                    <mxGeometry relative="1" as="geometry"/>
                </mxCell>
                <mxCell id="Yq1JWbApXSOafyHNQVJs-5" value="id = id CONVERT TO INT || ''" style="rounded=0;whiteSpace=wrap;html=1;" vertex="1" parent="dFCv3RJrrJdu5bY9L4S5-1">
                    <mxGeometry x="3765" y="420" width="120" height="60" as="geometry"/>
                </mxCell>
                <mxCell id="peRHqmdRuMiEI_AgVE1b-2" style="edgeStyle=orthogonalEdgeStyle;rounded=0;orthogonalLoop=1;jettySize=auto;html=1;entryX=0.5;entryY=0;entryDx=0;entryDy=0;" edge="1" parent="dFCv3RJrrJdu5bY9L4S5-1" source="4hBY0cIpGjp3UTPPBreh-0" target="peRHqmdRuMiEI_AgVE1b-0">
                    <mxGeometry relative="1" as="geometry"/>
                </mxCell>
                <mxCell id="4hBY0cIpGjp3UTPPBreh-0" value="DB getProfiles" style="shape=cylinder3;whiteSpace=wrap;html=1;boundedLbl=1;backgroundOutline=1;size=15;" vertex="1" parent="dFCv3RJrrJdu5bY9L4S5-1">
                    <mxGeometry x="3788" y="520" width="74.37" height="105" as="geometry"/>
                </mxCell>
                <mxCell id="peRHqmdRuMiEI_AgVE1b-4" style="edgeStyle=orthogonalEdgeStyle;rounded=0;orthogonalLoop=1;jettySize=auto;html=1;entryX=0.5;entryY=0;entryDx=0;entryDy=0;" edge="1" parent="dFCv3RJrrJdu5bY9L4S5-1" source="peRHqmdRuMiEI_AgVE1b-0" target="peRHqmdRuMiEI_AgVE1b-3">
                    <mxGeometry relative="1" as="geometry"/>
                </mxCell>
                <mxCell id="peRHqmdRuMiEI_AgVE1b-6" style="edgeStyle=orthogonalEdgeStyle;rounded=0;orthogonalLoop=1;jettySize=auto;html=1;entryX=0;entryY=0.5;entryDx=0;entryDy=0;" edge="1" parent="dFCv3RJrrJdu5bY9L4S5-1" source="peRHqmdRuMiEI_AgVE1b-0" target="peRHqmdRuMiEI_AgVE1b-5">
                    <mxGeometry relative="1" as="geometry"/>
                </mxCell>
                <mxCell id="peRHqmdRuMiEI_AgVE1b-0" value="results.length &amp;gt; 0" style="rhombus;whiteSpace=wrap;html=1;" vertex="1" parent="dFCv3RJrrJdu5bY9L4S5-1">
                    <mxGeometry x="3770.19" y="670" width="110" height="110" as="geometry"/>
                </mxCell>
                <mxCell id="peRHqmdRuMiEI_AgVE1b-10" style="edgeStyle=orthogonalEdgeStyle;rounded=0;orthogonalLoop=1;jettySize=auto;html=1;entryX=0.5;entryY=0;entryDx=0;entryDy=0;" edge="1" parent="dFCv3RJrrJdu5bY9L4S5-1" source="peRHqmdRuMiEI_AgVE1b-3" target="peRHqmdRuMiEI_AgVE1b-9">
                    <mxGeometry relative="1" as="geometry"/>
                </mxCell>
                <mxCell id="peRHqmdRuMiEI_AgVE1b-3" value="OUTPUT&lt;br&gt;&quot;Data not found&quot;" style="shape=parallelogram;perimeter=parallelogramPerimeter;whiteSpace=wrap;html=1;fixedSize=1;" vertex="1" parent="dFCv3RJrrJdu5bY9L4S5-1">
                    <mxGeometry x="3765" y="830" width="120" height="60" as="geometry"/>
                </mxCell>
                <mxCell id="peRHqmdRuMiEI_AgVE1b-8" style="edgeStyle=orthogonalEdgeStyle;rounded=0;orthogonalLoop=1;jettySize=auto;html=1;" edge="1" parent="dFCv3RJrrJdu5bY9L4S5-1" source="peRHqmdRuMiEI_AgVE1b-5" target="peRHqmdRuMiEI_AgVE1b-7">
                    <mxGeometry relative="1" as="geometry"/>
                </mxCell>
                <mxCell id="peRHqmdRuMiEI_AgVE1b-5" value="OUTPUT&lt;br&gt;&quot;List profiles" style="shape=parallelogram;perimeter=parallelogramPerimeter;whiteSpace=wrap;html=1;fixedSize=1;" vertex="1" parent="dFCv3RJrrJdu5bY9L4S5-1">
                    <mxGeometry x="3950" y="695" width="120" height="60" as="geometry"/>
                </mxCell>
                <mxCell id="peRHqmdRuMiEI_AgVE1b-11" style="edgeStyle=orthogonalEdgeStyle;rounded=0;orthogonalLoop=1;jettySize=auto;html=1;entryX=1;entryY=0.5;entryDx=0;entryDy=0;" edge="1" parent="dFCv3RJrrJdu5bY9L4S5-1" source="peRHqmdRuMiEI_AgVE1b-7" target="peRHqmdRuMiEI_AgVE1b-9">
                    <mxGeometry relative="1" as="geometry">
                        <Array as="points">
                            <mxPoint x="4010" y="980"/>
                        </Array>
                    </mxGeometry>
                </mxCell>
                <mxCell id="peRHqmdRuMiEI_AgVE1b-7" value="OUTPUT&lt;br&gt;results" style="shape=parallelogram;perimeter=parallelogramPerimeter;whiteSpace=wrap;html=1;fixedSize=1;" vertex="1" parent="dFCv3RJrrJdu5bY9L4S5-1">
                    <mxGeometry x="3950" y="830" width="120" height="60" as="geometry"/>
                </mxCell>
                <mxCell id="peRHqmdRuMiEI_AgVE1b-9" value="END" style="ellipse;whiteSpace=wrap;html=1;" vertex="1" parent="dFCv3RJrrJdu5bY9L4S5-1">
                    <mxGeometry x="3765.19" y="940" width="120" height="80" as="geometry"/>
                </mxCell>
                <mxCell id="peRHqmdRuMiEI_AgVE1b-12" value="LIST PROFILES" style="text;html=1;align=center;verticalAlign=middle;resizable=0;points=[];autosize=1;strokeColor=none;fillColor=none;" vertex="1" parent="dFCv3RJrrJdu5bY9L4S5-1">
                    <mxGeometry x="3775.19" y="150" width="100" height="20" as="geometry"/>
                </mxCell>
            </root>
        </mxGraphModel>
    </diagram>
    <diagram id="kxDZx3jgwrkTCZj4bNpw" name="List View">
        <mxGraphModel dx="-2160" dy="689" grid="1" gridSize="10" guides="1" tooltips="1" connect="1" arrows="1" fold="1" page="1" pageScale="1" pageWidth="850" pageHeight="1100" math="0" shadow="0">
            <root>
                <mxCell id="_7H-KmOTrdYRbBJwUbxv-0"/>
                <mxCell id="_7H-KmOTrdYRbBJwUbxv-1" parent="_7H-KmOTrdYRbBJwUbxv-0"/>
                <mxCell id="UCLWgoaozjU6CnQtOi0e-0" value="&lt;h1&gt;VEHICLE-RENT PROJECT&lt;/h1&gt;" style="text;html=1;align=center;verticalAlign=middle;resizable=0;points=[];autosize=1;strokeColor=none;fillColor=none;" vertex="1" parent="_7H-KmOTrdYRbBJwUbxv-1">
                    <mxGeometry x="3670" y="20" width="310" height="50" as="geometry"/>
                </mxCell>
                <mxCell id="UCLWgoaozjU6CnQtOi0e-1" value="&lt;h2&gt;Flow Chart List View&lt;/h2&gt;" style="text;html=1;align=center;verticalAlign=middle;resizable=0;points=[];autosize=1;strokeColor=none;fillColor=none;" vertex="1" parent="_7H-KmOTrdYRbBJwUbxv-1">
                    <mxGeometry x="3730" y="70" width="190" height="50" as="geometry"/>
                </mxCell>
                <mxCell id="_J8yzKhxjg9PYiWLx7IK-1" style="edgeStyle=orthogonalEdgeStyle;rounded=0;orthogonalLoop=1;jettySize=auto;html=1;" edge="1" parent="_7H-KmOTrdYRbBJwUbxv-1" source="UCLWgoaozjU6CnQtOi0e-2" target="UCLWgoaozjU6CnQtOi0e-3">
                    <mxGeometry relative="1" as="geometry"/>
                </mxCell>
                <mxCell id="UCLWgoaozjU6CnQtOi0e-2" value="START" style="ellipse;whiteSpace=wrap;html=1;" vertex="1" parent="_7H-KmOTrdYRbBJwUbxv-1">
                    <mxGeometry x="3765" y="170" width="120" height="80" as="geometry"/>
                </mxCell>
                <mxCell id="_J8yzKhxjg9PYiWLx7IK-2" style="edgeStyle=orthogonalEdgeStyle;rounded=0;orthogonalLoop=1;jettySize=auto;html=1;" edge="1" parent="_7H-KmOTrdYRbBJwUbxv-1" source="UCLWgoaozjU6CnQtOi0e-3" target="_J8yzKhxjg9PYiWLx7IK-0">
                    <mxGeometry relative="1" as="geometry"/>
                </mxCell>
                <mxCell id="UCLWgoaozjU6CnQtOi0e-3" value="INPUT&lt;br&gt;filterBy" style="shape=parallelogram;perimeter=parallelogramPerimeter;whiteSpace=wrap;html=1;fixedSize=1;" vertex="1" parent="_7H-KmOTrdYRbBJwUbxv-1">
                    <mxGeometry x="3765" y="290" width="120" height="60" as="geometry"/>
                </mxCell>
                <mxCell id="DrBtcz1-nt4bUDDV-HMv-2" style="edgeStyle=orthogonalEdgeStyle;rounded=0;orthogonalLoop=1;jettySize=auto;html=1;entryX=0.5;entryY=0;entryDx=0;entryDy=0;" edge="1" parent="_7H-KmOTrdYRbBJwUbxv-1" source="_J8yzKhxjg9PYiWLx7IK-0" target="DrBtcz1-nt4bUDDV-HMv-0">
                    <mxGeometry relative="1" as="geometry"/>
                </mxCell>
                <mxCell id="_J8yzKhxjg9PYiWLx7IK-0" value="DB getList" style="shape=cylinder3;whiteSpace=wrap;html=1;boundedLbl=1;backgroundOutline=1;size=15;" vertex="1" parent="_7H-KmOTrdYRbBJwUbxv-1">
                    <mxGeometry x="3799" y="400" width="52" height="80" as="geometry"/>
                </mxCell>
                <mxCell id="DrBtcz1-nt4bUDDV-HMv-3" value="FALSE" style="edgeStyle=orthogonalEdgeStyle;rounded=0;orthogonalLoop=1;jettySize=auto;html=1;entryX=0.5;entryY=0;entryDx=0;entryDy=0;" edge="1" parent="_7H-KmOTrdYRbBJwUbxv-1" source="DrBtcz1-nt4bUDDV-HMv-0" target="DrBtcz1-nt4bUDDV-HMv-1">
                    <mxGeometry relative="1" as="geometry"/>
                </mxCell>
                <mxCell id="DrBtcz1-nt4bUDDV-HMv-5" style="edgeStyle=orthogonalEdgeStyle;rounded=0;orthogonalLoop=1;jettySize=auto;html=1;entryX=0;entryY=0.5;entryDx=0;entryDy=0;" edge="1" parent="_7H-KmOTrdYRbBJwUbxv-1" source="DrBtcz1-nt4bUDDV-HMv-0" target="DrBtcz1-nt4bUDDV-HMv-4">
                    <mxGeometry relative="1" as="geometry"/>
                </mxCell>
                <mxCell id="DrBtcz1-nt4bUDDV-HMv-0" value="results.length &amp;gt; 0" style="rhombus;whiteSpace=wrap;html=1;" vertex="1" parent="_7H-KmOTrdYRbBJwUbxv-1">
                    <mxGeometry x="3770" y="530" width="110" height="110" as="geometry"/>
                </mxCell>
                <mxCell id="DrBtcz1-nt4bUDDV-HMv-9" style="edgeStyle=orthogonalEdgeStyle;rounded=0;orthogonalLoop=1;jettySize=auto;html=1;entryX=0.5;entryY=0;entryDx=0;entryDy=0;" edge="1" parent="_7H-KmOTrdYRbBJwUbxv-1" source="DrBtcz1-nt4bUDDV-HMv-1" target="DrBtcz1-nt4bUDDV-HMv-8">
                    <mxGeometry relative="1" as="geometry"/>
                </mxCell>
                <mxCell id="DrBtcz1-nt4bUDDV-HMv-1" value="OUTPUT&lt;br&gt;&quot;Data not found&quot;" style="shape=parallelogram;perimeter=parallelogramPerimeter;whiteSpace=wrap;html=1;fixedSize=1;" vertex="1" parent="_7H-KmOTrdYRbBJwUbxv-1">
                    <mxGeometry x="3765" y="680" width="120" height="60" as="geometry"/>
                </mxCell>
                <mxCell id="DrBtcz1-nt4bUDDV-HMv-7" style="edgeStyle=orthogonalEdgeStyle;rounded=0;orthogonalLoop=1;jettySize=auto;html=1;entryX=0.5;entryY=0;entryDx=0;entryDy=0;" edge="1" parent="_7H-KmOTrdYRbBJwUbxv-1" source="DrBtcz1-nt4bUDDV-HMv-4" target="DrBtcz1-nt4bUDDV-HMv-6">
                    <mxGeometry relative="1" as="geometry"/>
                </mxCell>
                <mxCell id="DrBtcz1-nt4bUDDV-HMv-4" value="OUTPUT&lt;br&gt;&quot;List vehicle&quot;" style="shape=parallelogram;perimeter=parallelogramPerimeter;whiteSpace=wrap;html=1;fixedSize=1;" vertex="1" parent="_7H-KmOTrdYRbBJwUbxv-1">
                    <mxGeometry x="3950" y="555" width="120" height="60" as="geometry"/>
                </mxCell>
                <mxCell id="DrBtcz1-nt4bUDDV-HMv-10" style="edgeStyle=orthogonalEdgeStyle;rounded=0;orthogonalLoop=1;jettySize=auto;html=1;entryX=1;entryY=0.5;entryDx=0;entryDy=0;" edge="1" parent="_7H-KmOTrdYRbBJwUbxv-1" source="DrBtcz1-nt4bUDDV-HMv-6" target="DrBtcz1-nt4bUDDV-HMv-8">
                    <mxGeometry relative="1" as="geometry">
                        <Array as="points">
                            <mxPoint x="4010" y="820"/>
                        </Array>
                    </mxGeometry>
                </mxCell>
                <mxCell id="DrBtcz1-nt4bUDDV-HMv-6" value="OUTPUT&lt;br&gt;results" style="shape=parallelogram;perimeter=parallelogramPerimeter;whiteSpace=wrap;html=1;fixedSize=1;" vertex="1" parent="_7H-KmOTrdYRbBJwUbxv-1">
                    <mxGeometry x="3950" y="680" width="120" height="60" as="geometry"/>
                </mxCell>
                <mxCell id="DrBtcz1-nt4bUDDV-HMv-8" value="END" style="ellipse;whiteSpace=wrap;html=1;" vertex="1" parent="_7H-KmOTrdYRbBJwUbxv-1">
                    <mxGeometry x="3765" y="780" width="120" height="80" as="geometry"/>
                </mxCell>
            </root>
        </mxGraphModel>
    </diagram>
    <diagram id="gLm_THBccaq2cJWtKvIQ" name="Popular">
        <mxGraphModel dx="-2799" dy="272" grid="1" gridSize="10" guides="1" tooltips="1" connect="1" arrows="1" fold="1" page="1" pageScale="1" pageWidth="850" pageHeight="1100" math="0" shadow="0">
            <root>
                <mxCell id="KwslsRFeZdLL28EMD6l_-0"/>
                <mxCell id="KwslsRFeZdLL28EMD6l_-1" parent="KwslsRFeZdLL28EMD6l_-0"/>
                <mxCell id="jmg5mbtVXjNuYUouDqxy-0" value="&lt;h1&gt;VEHICLE-RENT PROJECT&lt;/h1&gt;" style="text;html=1;align=center;verticalAlign=middle;resizable=0;points=[];autosize=1;strokeColor=none;fillColor=none;" parent="KwslsRFeZdLL28EMD6l_-1" vertex="1">
                    <mxGeometry x="3670" y="20" width="310" height="50" as="geometry"/>
                </mxCell>
                <mxCell id="jmg5mbtVXjNuYUouDqxy-1" value="&lt;h2&gt;Flow Chart Popular&lt;/h2&gt;" style="text;html=1;align=center;verticalAlign=middle;resizable=0;points=[];autosize=1;strokeColor=none;fillColor=none;" parent="KwslsRFeZdLL28EMD6l_-1" vertex="1">
                    <mxGeometry x="3735" y="70" width="180" height="50" as="geometry"/>
                </mxCell>
                <mxCell id="jmg5mbtVXjNuYUouDqxy-4" style="edgeStyle=orthogonalEdgeStyle;rounded=0;orthogonalLoop=1;jettySize=auto;html=1;" parent="KwslsRFeZdLL28EMD6l_-1" source="jmg5mbtVXjNuYUouDqxy-2" target="jmg5mbtVXjNuYUouDqxy-3" edge="1">
                    <mxGeometry relative="1" as="geometry"/>
                </mxCell>
                <mxCell id="jmg5mbtVXjNuYUouDqxy-2" value="START" style="ellipse;whiteSpace=wrap;html=1;" parent="KwslsRFeZdLL28EMD6l_-1" vertex="1">
                    <mxGeometry x="3765" y="170" width="120" height="80" as="geometry"/>
                </mxCell>
                <mxCell id="2iBdFpsocMCBOfjWIWCc-1" style="edgeStyle=orthogonalEdgeStyle;rounded=0;orthogonalLoop=1;jettySize=auto;html=1;entryX=0.5;entryY=0;entryDx=0;entryDy=0;" parent="KwslsRFeZdLL28EMD6l_-1" source="jmg5mbtVXjNuYUouDqxy-3" target="jmg5mbtVXjNuYUouDqxy-5" edge="1">
                    <mxGeometry relative="1" as="geometry"/>
                </mxCell>
                <mxCell id="jmg5mbtVXjNuYUouDqxy-3" value="INPUT&lt;br&gt;location" style="shape=parallelogram;perimeter=parallelogramPerimeter;whiteSpace=wrap;html=1;fixedSize=1;" parent="KwslsRFeZdLL28EMD6l_-1" vertex="1">
                    <mxGeometry x="3765" y="300" width="120" height="60" as="geometry"/>
                </mxCell>
                <mxCell id="2iBdFpsocMCBOfjWIWCc-2" style="edgeStyle=orthogonalEdgeStyle;rounded=0;orthogonalLoop=1;jettySize=auto;html=1;entryX=0.5;entryY=0;entryDx=0;entryDy=0;entryPerimeter=0;" parent="KwslsRFeZdLL28EMD6l_-1" source="jmg5mbtVXjNuYUouDqxy-5" target="2iBdFpsocMCBOfjWIWCc-0" edge="1">
                    <mxGeometry relative="1" as="geometry"/>
                </mxCell>
                <mxCell id="jmg5mbtVXjNuYUouDqxy-5" value="location = location || ''" style="rounded=0;whiteSpace=wrap;html=1;" parent="KwslsRFeZdLL28EMD6l_-1" vertex="1">
                    <mxGeometry x="3765" y="400" width="120" height="60" as="geometry"/>
                </mxCell>
                <mxCell id="GYHLJZrO5d8MbhRkUVSi-1" style="edgeStyle=orthogonalEdgeStyle;rounded=0;orthogonalLoop=1;jettySize=auto;html=1;entryX=0.5;entryY=0;entryDx=0;entryDy=0;" parent="KwslsRFeZdLL28EMD6l_-1" source="2iBdFpsocMCBOfjWIWCc-0" target="GYHLJZrO5d8MbhRkUVSi-0" edge="1">
                    <mxGeometry relative="1" as="geometry"/>
                </mxCell>
                <mxCell id="2iBdFpsocMCBOfjWIWCc-0" value="DB getPopular" style="shape=cylinder3;whiteSpace=wrap;html=1;boundedLbl=1;backgroundOutline=1;size=15;" parent="KwslsRFeZdLL28EMD6l_-1" vertex="1">
                    <mxGeometry x="3788" y="505" width="75" height="90" as="geometry"/>
                </mxCell>
                <mxCell id="GYHLJZrO5d8MbhRkUVSi-3" style="edgeStyle=orthogonalEdgeStyle;rounded=0;orthogonalLoop=1;jettySize=auto;html=1;" parent="KwslsRFeZdLL28EMD6l_-1" source="GYHLJZrO5d8MbhRkUVSi-0" target="GYHLJZrO5d8MbhRkUVSi-2" edge="1">
                    <mxGeometry relative="1" as="geometry"/>
                </mxCell>
                <mxCell id="GYHLJZrO5d8MbhRkUVSi-6" style="edgeStyle=orthogonalEdgeStyle;rounded=0;orthogonalLoop=1;jettySize=auto;html=1;entryX=0;entryY=0.5;entryDx=0;entryDy=0;" parent="KwslsRFeZdLL28EMD6l_-1" source="GYHLJZrO5d8MbhRkUVSi-0" target="GYHLJZrO5d8MbhRkUVSi-4" edge="1">
                    <mxGeometry relative="1" as="geometry"/>
                </mxCell>
                <mxCell id="GYHLJZrO5d8MbhRkUVSi-0" value="results.length &amp;gt; 0" style="rhombus;whiteSpace=wrap;html=1;" parent="KwslsRFeZdLL28EMD6l_-1" vertex="1">
                    <mxGeometry x="3770" y="640" width="110" height="110" as="geometry"/>
                </mxCell>
                <mxCell id="GYHLJZrO5d8MbhRkUVSi-10" style="edgeStyle=orthogonalEdgeStyle;rounded=0;orthogonalLoop=1;jettySize=auto;html=1;entryX=0.5;entryY=0;entryDx=0;entryDy=0;" parent="KwslsRFeZdLL28EMD6l_-1" source="GYHLJZrO5d8MbhRkUVSi-2" target="GYHLJZrO5d8MbhRkUVSi-8" edge="1">
                    <mxGeometry relative="1" as="geometry"/>
                </mxCell>
                <mxCell id="GYHLJZrO5d8MbhRkUVSi-2" value="OUTPUT&lt;br&gt;&quot;Data not found&quot;" style="shape=parallelogram;perimeter=parallelogramPerimeter;whiteSpace=wrap;html=1;fixedSize=1;" parent="KwslsRFeZdLL28EMD6l_-1" vertex="1">
                    <mxGeometry x="3765" y="800" width="120" height="60" as="geometry"/>
                </mxCell>
                <mxCell id="GYHLJZrO5d8MbhRkUVSi-7" style="edgeStyle=orthogonalEdgeStyle;rounded=0;orthogonalLoop=1;jettySize=auto;html=1;entryX=0.5;entryY=0;entryDx=0;entryDy=0;" parent="KwslsRFeZdLL28EMD6l_-1" source="GYHLJZrO5d8MbhRkUVSi-4" target="GYHLJZrO5d8MbhRkUVSi-5" edge="1">
                    <mxGeometry relative="1" as="geometry"/>
                </mxCell>
                <mxCell id="GYHLJZrO5d8MbhRkUVSi-4" value="OUTPUT&lt;br&gt;&quot;List of popular&quot;" style="shape=parallelogram;perimeter=parallelogramPerimeter;whiteSpace=wrap;html=1;fixedSize=1;" parent="KwslsRFeZdLL28EMD6l_-1" vertex="1">
                    <mxGeometry x="3950" y="665" width="120" height="60" as="geometry"/>
                </mxCell>
                <mxCell id="GYHLJZrO5d8MbhRkUVSi-11" style="edgeStyle=orthogonalEdgeStyle;rounded=0;orthogonalLoop=1;jettySize=auto;html=1;entryX=1;entryY=0.5;entryDx=0;entryDy=0;" parent="KwslsRFeZdLL28EMD6l_-1" source="GYHLJZrO5d8MbhRkUVSi-5" target="GYHLJZrO5d8MbhRkUVSi-8" edge="1">
                    <mxGeometry relative="1" as="geometry">
                        <Array as="points">
                            <mxPoint x="4010" y="960"/>
                        </Array>
                    </mxGeometry>
                </mxCell>
                <mxCell id="GYHLJZrO5d8MbhRkUVSi-5" value="OUTPUT&lt;br&gt;results" style="shape=parallelogram;perimeter=parallelogramPerimeter;whiteSpace=wrap;html=1;fixedSize=1;" parent="KwslsRFeZdLL28EMD6l_-1" vertex="1">
                    <mxGeometry x="3950" y="800" width="120" height="60" as="geometry"/>
                </mxCell>
                <mxCell id="GYHLJZrO5d8MbhRkUVSi-8" value="END" style="ellipse;whiteSpace=wrap;html=1;" parent="KwslsRFeZdLL28EMD6l_-1" vertex="1">
                    <mxGeometry x="3765.5" y="920" width="120" height="80" as="geometry"/>
                </mxCell>
            </root>
        </mxGraphModel>
    </diagram>
</mxfile>